<?xml version="1.0" encoding="UTF-8"?>
<svg id="Layer_1" data-name="Layer 1" xmlns="http://www.w3.org/2000/svg" xmlns:xlink="http://www.w3.org/1999/xlink" viewBox="0 0 556.27 1048">
  <defs>
    <style>
      .cls-1 {
        fill: url(#New_Gradient_Swatch);
      }

      .cls-2 {
        fill: #f2f2f2;
      }

      .cls-3 {
        fill: #fbb03b;
      }

      .cls-4 {
        fill: #333;
      }

      .cls-5 {
        fill: #d77449;
      }

      .cls-6 {
        fill: #42210b;
      }

      .cls-7 {
        fill: url(#New_Gradient_Swatch-5);
      }

      .cls-8 {
        fill: url(#New_Gradient_Swatch-4);
      }

      .cls-9 {
        fill: url(#New_Gradient_Swatch-3);
      }

      .cls-10 {
        fill: url(#New_Gradient_Swatch-2);
      }

      .cls-11 {
        opacity: .8;
      }

      .cls-12 {
        fill: none;
        font-family: BigCaslon-Medium, 'Big Caslon';
        font-size: 83.24px;
        font-weight: 500;
        opacity: .55;
        stroke: #42210b;
        stroke-miterlimit: 10;
        stroke-width: 2px;
      }
    </style>
    <linearGradient id="New_Gradient_Swatch" data-name="New Gradient Swatch" x1="212.97" y1="189.03" x2="318.85" y2="189.03" gradientUnits="userSpaceOnUse">
      <stop offset="0" stop-color="#fff"/>
      <stop offset=".09" stop-color="#fff2d8"/>
      <stop offset=".21" stop-color="#ffe2a7"/>
      <stop offset=".33" stop-color="#ffd47d"/>
      <stop offset=".46" stop-color="#ffc95a"/>
      <stop offset=".59" stop-color="#ffc040"/>
      <stop offset=".72" stop-color="#ffb92d"/>
      <stop offset=".86" stop-color="#ffb621"/>
      <stop offset="1" stop-color="#ffb51e"/>
    </linearGradient>
    <linearGradient id="New_Gradient_Swatch-2" data-name="New Gradient Swatch" x1="197.85" y1="17.39" x2="332.46" y2="17.39" xlink:href="#New_Gradient_Swatch"/>
    <linearGradient id="New_Gradient_Swatch-3" data-name="New Gradient Swatch" x1="176.69" y1="413.51" x2="355.14" y2="413.51" xlink:href="#New_Gradient_Swatch"/>
    <linearGradient id="New_Gradient_Swatch-4" data-name="New Gradient Swatch" x1="193.81" y1="413.19" x2="338.5" y2="413.19" xlink:href="#New_Gradient_Swatch"/>
    <linearGradient id="New_Gradient_Swatch-5" data-name="New Gradient Swatch" x1="193.81" y1="413.19" x2="338.5" y2="413.19" xlink:href="#New_Gradient_Swatch"/>
  </defs>
  <g>
    <rect class="cls-1" x="212.97" y="9.06" width="105.88" height="359.94"/>
    <path d="M317.35,10.56V367.51h-102.88V10.56h102.88m3-3h-108.88V370.51h108.88V7.56h0Z"/>
  </g>
  <g>
    <path class="cls-5" d="M137.36,1046.5l-102.28-226.73C5.6,754.41-4.99,674.65,5.25,595.19c10.5-81.41,42.13-153.44,89.08-202.83,47.31-49.78,85.55-51.13,148.9-53.38,5.44-.19,11.06-.39,16.9-.63h.06c9.52,0,19.14-.29,28.44-.57,9.03-.27,18.37-.56,27.4-.56,32.52,0,66.96,3.4,98.45,28.05,31.68,24.8,58.88,54.87,80.83,89.37,21.35,33.54,37.25,70.49,47.28,109.8,10,39.21,13.87,79.66,11.51,120.24-2.42,41.53-11.33,82.13-26.48,120.68l-94.55,241.14H137.36Z"/>
    <path d="M316.04,338.72c32.25,0,66.38,3.36,97.52,27.73,31.55,24.7,58.63,54.64,80.49,88.99,21.26,33.41,37.1,70.21,47.09,109.36,9.96,39.06,13.82,79.36,11.47,119.78-2.41,41.37-11.28,81.82-26.38,120.22l-94.17,240.19H138.33l-101.88-225.85c-14.68-32.55-24.7-68.8-29.76-107.74-4.97-38.22-4.95-77.26,.05-116.03,10.46-81.09,41.95-152.83,88.68-201.99,22.14-23.29,42.94-36.89,67.45-44.09,23.12-6.79,48.41-7.69,80.42-8.82,5.42-.19,11.03-.39,16.84-.63,9.61,0,19.23-.29,28.54-.58,9.02-.27,18.35-.56,27.36-.56h0m0-3c-18.27,0-36.97,1.13-55.95,1.13-74.79,3.03-115.05,0-166.83,54.47C-5.89,495.62-26.39,687.13,33.72,820.39l102.67,227.61H434.1l94.92-242.09c61.84-157.36,16.09-340.28-113.62-441.82-30.93-24.22-64.37-28.37-99.37-28.37h0Z"/>
  </g>
  <g>
    <rect class="cls-10" x="197.85" y="1.5" width="134.62" height="31.78" rx="7.2" ry="7.2"/>
    <path d="M325.26,3c3.14,0,5.7,2.56,5.7,5.7V26.08c0,3.14-2.56,5.7-5.7,5.7h-120.22c-3.14,0-5.7-2.56-5.7-5.7V8.7c0-3.14,2.56-5.7,5.7-5.7h120.22m0-3h-120.22c-4.8,0-8.7,3.89-8.7,8.7V26.08c0,4.8,3.89,8.7,8.7,8.7h120.22c4.8,0,8.7-3.89,8.7-8.7V8.7c0-4.8-3.89-8.7-8.7-8.7h0Z"/>
  </g>
  <g>
    <rect class="cls-4" x="176.69" y="370.32" width="178.45" height="86.38" rx="27.57" ry="27.57"/>
    <path class="cls-9" d="M327.56,376.32c11.89,0,21.57,9.68,21.57,21.57v31.24c0,11.89-9.68,21.57-21.57,21.57h-123.31c-11.89,0-21.57-9.68-21.57-21.57v-31.24c0-11.89,9.68-21.57,21.57-21.57h123.31m0-6h-123.31c-15.23,0-27.57,12.34-27.57,27.57v31.24c0,15.23,12.34,27.57,27.57,27.57h123.31c15.23,0,27.57-12.34,27.57-27.57v-31.24c0-15.23-12.34-27.57-27.57-27.57h0Z"/>
  </g>
  <path class="cls-2" d="M82.93,914.92c73.45,47.92,165.52,43.07,249.61,39.67,25.58-1.49,51.16-4.74,75.59-12.7,24.58-7.79,48.3-18.07,72.52-26.97-23.48,10.86-46.82,22.11-71.22,30.9-41.05,14.74-85.19,15.67-128.28,16.56-68.16,.65-142.1-4.66-198.23-47.46h0Z"/>
  <g class="cls-11">
    <rect class="cls-6" x="172" y="541.39" width="210.02" height="278.07" rx="50" ry="50"/>
    <path class="cls-6" d="M370.91,870.49H189.2c-23.92,0-45.32-14.67-53.64-36.78l-48.45-128.6c-13.59-36.07,12.62-74.67,51.62-76.04l271.27-9.48c39.02-1.36,67.93,35.35,56.94,72.28l-41.11,138.08c-7.15,24.03-29.51,40.53-54.91,40.53Z"/>
  </g>
  <g>
    <rect class="cls-3" x="185.83" y="570.4" width="184.58" height="247.86" rx="50" ry="50"/>
    <path class="cls-3" d="M360.64,863.74H200.94c-21.02,0-39.83-13.07-47.15-32.78l-42.58-114.63c-11.94-32.15,11.09-66.56,45.37-67.78l238.42-8.45c34.29-1.22,59.7,31.51,50.04,64.43l-36.13,123.08c-6.29,21.42-25.94,36.13-48.26,36.13Z"/>
  </g>
  <text class="cls-12" transform="translate(145.25 744.75) scale(1.11 1)"><tspan x="0" y="0">cognac</tspan></text>
  <g>
    <rect class="cls-8" x="193.81" y="390.39" width="144.69" height="45.58" rx="15.07" ry="15.07"/>
    <path class="cls-7" d="M323.43,396.39c5,0,9.07,4.07,9.07,9.07v15.44c0,5-4.07,9.07-9.07,9.07h-114.55c-5,0-9.07-4.07-9.07-9.07v-15.44c0-5,4.07-9.07,9.07-9.07h114.55m0-6h-114.55c-8.32,0-15.07,6.75-15.07,15.07v15.44c0,8.32,6.75,15.07,15.07,15.07h114.55c8.32,0,15.07-6.75,15.07-15.07v-15.44c0-8.32-6.75-15.07-15.07-15.07h0Z"/>
  </g>
</svg>