<?xml version="1.0" encoding="UTF-8"?>
<svg id="Layer_1" data-name="Layer 1" xmlns="http://www.w3.org/2000/svg" viewBox="0 0 245.39 419.07">
  <defs>
    <style>
      .cls-1 {
        fill: #003b10;
        stroke-width: 5px;
      }

      .cls-1, .cls-2, .cls-3 {
        stroke-miterlimit: 10;
      }

      .cls-1, .cls-3 {
        stroke: #001510;
      }

      .cls-4 {
        fill: #fbb03b;
      }

      .cls-2 {
        fill: #b37424;
        stroke: #754c24;
        stroke-width: 6px;
      }

      .cls-3 {
        fill: none;
        opacity: .47;
        stroke-width: 2px;
      }
    </style>
  </defs>
  <g>
    <path class="cls-1" d="M123.62,407.48c15.73,29.05,108.56-17.92,117.99-51.49,3.46-12.32-.29-23.7-8.58-44.08-50.78-124.81-54.71-134.06-76.51-158.81-16.95-19.24-22.76-13.91-44.81-36.45-37.47-38.29-51.96-77.4-45.62-83.46,1.07-1.02,2.96-1.33,3.3-2.85,1.03-4.62-14.58-9.78-13.53-13.26,.58-1.93,4.51-4.04,5.28-6.15,.92-2.52-1.55-11.61-9.86-7.27C34.03,12.67,16.6,22.91,6.84,29.14c-2.03,1.3-5.25,6.23-4.1,8.92,1.57,3.7,6.9,.51,9.21,3.09,3.1,3.47-3.1,11.79-.04,15.83,1.85,2.44,6.11,.98,7.5,1.73,11.7,6.31,35.7,33.55,27.69,91.7-2.33,16.92-8.56,59.97-6.62,66.71,23.76,82.46,46.99,123.58,83.14,190.36Z"/>
    <path class="cls-2" d="M183.37,359.08h0c-26.01,16.65-45.06,15.06-62.39-18.22l-33.49-63.75c-17.33-33.28-20.5-74.94,5.51-91.59h0c26.01-16.65,50.58,2.16,67.9,35.44l22.81,56.86c17.33,33.28,25.66,64.62-.35,81.27Z"/>
    <path class="cls-4" d="M172.24,338.67h0c-15.23,9.75-27.43,6.81-40.93-19.11l-26.05-49.7c-13.5-25.93-18.66-56.66-3.42-66.42h0c15.23-9.75,32.23,6.28,45.73,32.2l18.76,43.67c13.5,25.93,21.15,49.6,5.92,59.35Z"/>
  </g>
  <path class="cls-3" d="M9.64,42.96c12.29-6.73,34.22-20.04,46.51-26.78"/>
  <path class="cls-3" d="M15.89,58.57c13.34-6.73,37.24-20.25,50.58-26.99"/>
</svg>