<?xml version="1.0" encoding="UTF-8"?>
<svg id="Layer_1" data-name="Layer 1" xmlns="http://www.w3.org/2000/svg" xmlns:xlink="http://www.w3.org/1999/xlink" viewBox="0 0 617.99 936.69">
  <defs>
    <style>
      .cls-1 {
        fill: #eab78b;
        stroke: #ff4b00;
      }

      .cls-1, .cls-2, .cls-3, .cls-4, .cls-5, .cls-6, .cls-7 {
        stroke-miterlimit: 10;
      }

      .cls-1, .cls-4 {
        stroke-width: 5px;
      }

      .cls-8 {
        fill: url(#linear-gradient);
      }

      .cls-2, .cls-6 {
        stroke: #333;
      }

      .cls-2, .cls-7 {
        stroke-width: 3px;
      }

      .cls-3, .cls-5, .cls-7 {
        stroke: #000;
      }

      .cls-9 {
        fill: #f15a24;
      }

      .cls-10, .cls-7 {
        fill: #fff;
      }

      .cls-11 {
        fill: #333;
      }

      .cls-12 {
        fill: #1a1a1a;
      }

      .cls-4 {
        stroke: #f15a24;
      }

      .cls-5 {
        fill: none;
        opacity: .7;
      }

      .cls-5, .cls-6 {
        stroke-width: 2px;
      }

      .cls-13 {
        fill: url(#linear-gradient-3);
      }

      .cls-14 {
        fill: url(#linear-gradient-4);
      }

      .cls-15 {
        fill: url(#linear-gradient-2);
      }

      .cls-16 {
        opacity: .75;
      }

      .cls-17 {
        fill: url(#radial-gradient);
      }
    </style>
    <linearGradient id="linear-gradient" x1="180.08" y1="360.1" x2="195" y2="360.1" gradientTransform="translate(-18.74 20.07) rotate(-4.71)" gradientUnits="userSpaceOnUse">
      <stop offset="0" stop-color="#fff"/>
      <stop offset=".09" stop-color="#ffecd8"/>
      <stop offset=".21" stop-color="#ffd4a7"/>
      <stop offset=".33" stop-color="#ffc07d"/>
      <stop offset=".46" stop-color="#ffb05a"/>
      <stop offset=".59" stop-color="#ffa340"/>
      <stop offset=".72" stop-color="#ff9a2d"/>
      <stop offset=".86" stop-color="#ff9421"/>
      <stop offset="1" stop-color="#ff931e"/>
    </linearGradient>
    <linearGradient id="linear-gradient-2" x1="6.44" y1="127.38" x2="307.64" y2="102.56" gradientUnits="userSpaceOnUse">
      <stop offset=".17" stop-color="#fff"/>
      <stop offset="1" stop-color="#000"/>
    </linearGradient>
    <linearGradient id="linear-gradient-3" x1="8" y1="128.76" x2="301.25" y2="104.6" gradientUnits="userSpaceOnUse">
      <stop offset="0" stop-color="#fff"/>
      <stop offset=".86" stop-color="#0b0b0b"/>
      <stop offset="1" stop-color="#000"/>
    </linearGradient>
    <linearGradient id="linear-gradient-4" x1="283.54" y1="151.27" x2="349.04" y2="145.87" gradientUnits="userSpaceOnUse">
      <stop offset="0" stop-color="#000"/>
      <stop offset=".49" stop-color="#f2f2f2"/>
      <stop offset="1" stop-color="#000"/>
    </linearGradient>
    <radialGradient id="radial-gradient" cx="401.59" cy="316.73" fx="401.59" fy="316.73" r="14.92" gradientTransform="translate(0 -1.7) scale(1 .99)" gradientUnits="userSpaceOnUse">
      <stop offset="0" stop-color="#fff"/>
      <stop offset=".01" stop-color="#fff"/>
      <stop offset=".39" stop-color="#fff"/>
      <stop offset="1" stop-color="#ff931e"/>
    </radialGradient>
  </defs>
  <path class="cls-7" d="M330.96,378.57c-3.99-1.55-30.71,21.53-84.17,61.45-5.79,4.32-20.33,15.2-42.08,20.48-11.68,2.84-27.36,6.65-42.08,0-20.54-9.27-19.91-30.17-31.56-30.72-12.02-.57-14.62,21.57-42.08,51.21-17.09,18.44-22.96,17.29-31.56,30.72-10.6,16.55-11.78,34.07-10.52,61.45,1.79,38.89,18.99,46.29,27.09,104.35,6,43,14.34,75.38,14.99,100.47,.67,25.79-6.52,35.72-10.52,71.69-2.39,21.51-15.9,68.59,0,71.69,157.81,30.72,494.48,0,494.48,0,63.13-10.24,42.08-51.21,31.56-102.41-10.61-51.65-10.52-71.69-42.08-174.1-43.98-142.71-26.96-156.18-63.13-184.34-52.6-40.96-115.73-61.45-168.34-81.93Z"/>
  <path class="cls-10" d="M66.48,935.85c17.73,4.24,37.83-16.88,64.04-44.44,25.39-26.69,88.57-93.1,46.35-176.8-15.72-31.16-57.61-87.66-90.88-86.67-74.72,2.22-79.05,293.67-19.5,307.91Z"/>
  <path class="cls-7" d="M194.68,463.14l148.26,73.3c25.63-35.31-32.95-148.95-32.95-148.95l-115.31,75.64Z"/>
  <rect x="221.49" y="571" width="18" height="17" rx="8.5" ry="8.5"/>
  <rect x="242.49" y="660" width="18" height="17" rx="8.5" ry="8.5"/>
  <rect x="257.49" y="744" width="18" height="17" rx="8.5" ry="8.5"/>
  <rect x="270.49" y="855" width="18" height="17" rx="8.5" ry="8.5"/>
  <path class="cls-5" d="M193.99,469.5c8.23,35.29,13.57,51.64,17,60,.11,.28,2.41,5.85,7,17,6.56,15.93,6.79,16.48,7,17,6.59,16.13,11.08,34.88,13,43,10.63,44.93,15.95,67.4,21,95,10.04,54.87,15.31,99.32,18,125,3.74,35.64,5.8,66.52,7,91"/>
  <path d="M408.49,610c2.01,36.86,8.8,73.36,17.57,109.14,9.13,35.58,20.22,71.26,37.43,103.86-3.57-5.6-7.45-12.04-10.49-18.02-1.92-3.41-4.42-8.91-6.11-12.51-23.37-51.46-40.26-125.95-38.4-182.48h0Z"/>
  <path d="M479.02,823.41c-34.77,12.4-67.83,29.29-99.64,47.87-31.52,18.86-62.57,39.64-88.94,65.41,4.36-5.02,9.42-10.56,14.29-15.18,2.72-2.81,7.29-6.77,10.26-9.41,42.69-37.03,109.31-74.4,164.03-88.69h0Z"/>
  <g>
    <path class="cls-10" d="M84.24,456.18c-42.82,13.1-124.8,274.06-37.72,473.85"/>
    <path d="M84.24,456.18c-15.25,6.26-27.47,35.39-33.49,50.26C6.56,614.94-2.62,757.83,27.98,870.95c4.8,20.08,11.05,39.83,18.54,59.08-8.97-18.72-16.31-38.17-22.4-58.03-26.64-100.48-22.62-207.83,3.07-308.09,8.23-29.94,17.61-60.3,34.82-86.5,3.61-5.41,7.51-10.73,12.34-15.14,2.84-2.6,6.16-5.03,9.89-6.1h0Z"/>
  </g>
  <path class="cls-7" d="M200.49,458.03l-107.19,112.97c-30.82-26.41-7.09-143-7.09-143l114.28,30.03Z"/>
  <g>
    <g>
      <g>
        <g>
          <path class="cls-1" d="M294.59,40.93c5.56,5.09-18.06,26.12-14.25,57.21,3.08,25.21,20.64,27.82,40.54,63.04,23.77,42.08,20.8,77.48,33.17,78.3,11.48,.76,14-29.7,33.42-33.79,18.11-3.82,42.62,17.06,49.12,41.64,5.02,19.01,.56,44.39-15.39,53.85-32.05,19.02-45.47-14.69-44.88-.61,.91,21.48-52.86,143.15-173.28,198.76-62.98,29.08-159.15-66.49-179.66-150.72-4.47-18.36,1.51-14.76-2.05-98.11-.93-21.76-2.38-47.98,8.99-79.19,4.13-11.32,6.64-18.2,11.73-25.1,26.41-35.83,83.9-20.1,141.16-34.04,30.14-7.34,69.73-25.19,111.37-71.24Z"/>
          <path d="M281.72,62.67c-10.99,2.63-37.61,55.3-105.87,64.76-30.68,4.25-42.86,6.17-70.28,4.93-67.49-3.06-77.82,74.05-90.81,59.2C-1.42,173.07-4.53,135.39,6.57,92.24,17.07,51.41,70.08,15.45,156.28,4.91,227.8-3.85,257.14,0,279.06,9.45c42.01,18.09,13.45,35.62,29.8,26.86,18.99-10.18,53.77,24.88,61.16,62.2,7.2,36.37,32.43,89.97,17.15,124.45-9.5,21.43-29.53,44.21-42.35,40.56-11.38-3.24-21.74-23.21-21.07-56.89,.79-39.6-34.6-38.23-46.03-66.9-16.3-40.9,4-77.05,4-77.05Z"/>
          <rect class="cls-12" x="76.29" y="236.64" width="29.21" height="31.79" rx="14.61" ry="14.61" transform="translate(-20.43 8.32) rotate(-4.71)"/>
          <rect class="cls-12" x="193.6" y="226.97" width="29.21" height="31.79" rx="14.61" ry="14.61" transform="translate(-19.24 17.91) rotate(-4.71)"/>
          <path class="cls-9" d="M137.82,283.15c-1.61,7.15-6.15,13.29-10.84,18.69-5.69,6.28-5.31,10.8-1.07,17.55,3.46,5.18,9.42,9.65,15.85,9.32,2.87-.18,5.91-1.84,9.26-3.38,6.7-3.22,14.18-5.1,21.64-5.52,5.45-.46,10.94,.46,16.21,.54,4.89,.12,8.03-4.04,9.38-8.34,3.5-11.35-6.34-18.81-17.1-16.83-3.44,.7-6.66,2.51-9.18,4.99,6.75-9.56,23.4-9.81,28.99,1.11,3.47,7.3,1.2,17.1-5.71,21.78-3.62,2.29-7.96,1.9-11.83,1.71-3.59-.2-7.01-.37-10.46-.1-6.91,.51-13.6,2.2-19.93,5.11-3.47,1.52-6.94,3.47-10.99,3.67-11.89,.26-22.91-11.58-22.71-23.26,.32-4.11,3.1-7.32,5.77-10.03,2.58-2.56,5.12-5,7.31-7.8,2.19-2.78,4.01-5.87,5.4-9.21h0Z"/>
          <path class="cls-9" d="M197.74,298.9c11.02,18.51,23.8,24.99,43.79,30.78,3.99,1.28,7.94,2.27,12,3.47,2.04,.63,4.24,1.31,6.33,2.78,6.77,5.54,8.21,16.95,5.03,24.68,.94-7.09-.77-14.36-5.26-19.82-1.86-2.21-4.31-2.65-7.24-3.39-24.3-5.24-46.52-12.45-54.66-38.5h0Z"/>
          <path class="cls-9" d="M125.78,299.23c-2.84,10.35-7.77,21.2-17.32,27.08-3.79,2.36-8.55,3.05-12.69,3.94-5.91,1.24-11.41,4.14-16.5,7.25-11,6.67-10.09,21.5-8.17,32.73-5.45-11.57-6.57-28.89,5.54-36.67,3.76-2.5,7.45-4.62,11.64-6.27,3.98-1.61,8.6-2.22,12.65-2.99,12.42-2.63,18.99-14.87,24.85-25.07h0Z"/>
          <path class="cls-9" d="M107.13,394.65c31.91,34.82,71.99,49.72,109.41,13.29,4.42-4.26,8.52-8.93,12.35-13.9-5.22,11.64-13.25,21.93-23.43,29.74-35.55,26.95-78.35,6.07-98.32-29.13h0Z"/>
          <path d="M131.39,174.38c-5.92,10.37-16.97,18.2-29.28,18.44-7.26,.35-13.81-3.58-20.94-2.49-10.36,1.13-19.35,7.36-28.35,12.58,1.75-3.41,3.95-6.54,6.49-9.46,3.86-4.39,8.77-8.27,14.31-10.6,5.82-2.57,12.74-3.17,18.91-1.63,4.07,1.07,6.63,1.94,9.76,2.13,10.25,.86,20.21-4.16,29.1-8.98h0Z"/>
          <path d="M174.18,190.69c11.86,3.64,24.35,5.55,36.3,2.14,3.31-.9,8.43-2.89,11.75-4.1,8.91-3.44,19.7-3.61,28.34,.63,8.44,3.93,15.13,10.5,19.82,18.3-7.21-4.41-14.53-8.84-22.53-10.92-14.35-3.98-22.08,2.55-35.26,5.31-13.63,2.75-28.78-1.9-38.42-11.36h0Z"/>
        </g>
        <path class="cls-4" d="M99.44,360.45l131.63-9.02s-13.38,30.86-17.7,35.15c-11.81,11.76-24.16,18.44-32.59,20.43-7,1.65-29.82,5.15-51.18-7.55-8.84-5.26-30.16-39.01-30.16-39.01Z"/>
        <path d="M99.64,330.68c3.22-3.63,3.84-9.39-1.35-11.4-4.35-1.58-9.2-.3-13.42,1.27-5.44,2.02-10.74,6.04-10.34,12.23,.47,9.19,9.36,14.84,17.47,17.3,11.88,3.79,24.38,1.82,35.9-2.55,11.65-4.42,22.93-10.62,33.13-17.78,0,0,2.26-1.62,2.26-1.62,6.08,5.74,13.57,9.88,21.31,12.98,16.82,6.77,35.59,5.99,52.76,.8,7.71-2.5,16.6-5,22.17-10.91,4.88-5.09,2.25-13.16-3.61-16.38-6.27-3.69-14.56-2.03-20.96,.89-2.33,1.18-4.87,2.62-5.98,4.97-.9,2.42,1.31,4.6,3.58,5.51,5.31,1.9,11.87,.15,15.76-4.05-2.34,3.27-6.22,5.2-10.14,5.89-6.8,1.54-15.69-4.09-9.57-11.03,4.47-4.52,10.51-6.79,16.69-7.81,8.58-1.52,18.68,3.04,21.2,12.08,2.89,9.86-5.34,17.21-13.17,21.07-7.34,3.67-15,6.15-22.89,8.08-15.84,3.86-33.02,3.43-48.33-2.62-7.74-3-15.11-7.05-21.39-12.53,0,0,4.37,.26,4.37,.26-20.47,13.88-49.85,29.07-74.77,19.82-6.49-2.4-12.83-5.95-16.69-12.03-5.18-8.33-3.76-18.75,5.69-23.14,5.95-2.76,13.27-4.79,19.59-2,5.57,2.7,4.81,9.08,.74,12.72h0Z"/>
        <path class="cls-3" d="M174.74,444.76c-1.1-.09-12.5-.94-18,4.94-5.83,6.23-.94,15.65,7.38,31.65,4.29,8.26,6.37,9.58,8.3,9.68,5.67,.3,10.84-9.87,13.72-15.53,4.77-9.38,8.65-17.01,4.21-23.39-4.28-6.14-13.54-7.18-15.6-7.35Z"/>
        <path class="cls-10" d="M103.39,362.25c.41-.29,123.79-9.44,124.24-9.23s-3.07,3.78-5.13,5.7c-19.26,18.03-84.23,22.39-112.25,8.24-4.49-2.27-7.26-4.43-6.85-4.72Z"/>
      </g>
      <path class="cls-8" d="M201.42,369.72l-10.13,2.56c-.7,.06-.05-.57-.1-1.27l-1.24-15,14.56-1.2,1.06,12.84c.07,.85-3.29,2-4.14,2.07Z"/>
      <path class="cls-15" d="M14.76,191.56c2.9-6.6,6.22-13.01,9.72-19.32,3.49-6.31,7.17-12.54,11.08-18.61,3.9-6.09,7.97-12.08,12.39-17.85,4.44-5.75,9.11-11.36,14.49-16.45l2.07-1.87c.72-.6,1.42-1.22,2.16-1.79l2.23-1.68,2.19-1.61c2.95-2.17,6.22-4.24,9.67-5.81,3.45-1.61,7.04-2.76,10.64-3.74l2.71-.67c.9-.21,1.81-.37,2.72-.56,1.81-.39,3.63-.67,5.45-.95,7.28-1.1,14.56-1.66,21.82-2.04,3.63-.08,7.25-.29,10.98-.21l10.82,.27c7.15,.17,14.25,.12,21.34-.15,7.08-.3,14.15-.94,21.14-1.96,3.5-.53,6.98-1.11,10.45-1.79,3.46-.7,6.92-1.45,10.34-2.36,6.84-1.77,13.56-4.02,20.15-6.6,6.59-2.61,13.02-5.63,19.26-9.02,6.27-3.35,12.35-7.08,18.24-11.11,11.82-8.02,22.75-17.38,33.16-27.36-9.21,11.09-19.61,21.27-31.06,30.23-5.76,4.43-11.75,8.58-17.99,12.36-6.26,3.75-12.76,7.11-19.45,10.07-6.69,2.97-13.61,5.43-20.65,7.46-7.04,2.02-14.2,3.67-21.45,4.77-14.47,2.25-29.17,2.88-43.67,2.33l-10.77-.37c-3.46-.11-7.04,.07-10.61,.12-7.11,.2-14.22,.57-21.21,1.44-1.75,.22-3.49,.45-5.21,.77-.86,.16-1.73,.28-2.58,.46l-2.55,.55c-3.38,.77-6.71,1.69-9.85,3-3.16,1.29-6.08,2.97-9.02,4.94-3.05,2-5.76,3.92-8.42,6.25-5.28,4.61-10.07,9.91-14.64,15.38-4.53,5.51-8.91,11.19-13.06,17.04-8.27,11.72-16.16,23.77-23.04,36.42Z"/>
      <path class="cls-13" d="M15.22,191.96c-1.55-15.2-1.5-30.69,1.51-45.78,2.93-15.05,9.01-29.67,18.55-41.88,9.5-12.23,22.31-21.73,36.42-28.02,3.53-1.59,7.14-2.98,10.81-4.19,1.83-.61,3.69-1.17,5.54-1.7,1.82-.51,3.73-1.08,5.68-1.44,3.88-.75,7.79-1.03,11.68-1.08,3.89-.04,7.77,.14,11.62,.52,1.93,.18,3.85,.4,5.76,.64,1.9,.23,3.84,.54,5.64,.72,3.72,.35,7.53,.51,11.32,.63,7.6,.25,15.22,.25,22.83,.07,7.61-.21,15.22-.52,22.82-1.05,7.6-.53,15.17-1.27,22.73-2.17,15.11-1.85,30.13-4.5,44.82-8.48,3.67-1,7.31-2.09,10.92-3.29,3.61-1.19,7.2-2.46,10.73-3.88,7.07-2.83,13.93-6.21,20.44-10.24-6.16,4.56-12.91,8.3-19.87,11.55-3.48,1.62-7.03,3.13-10.62,4.5-3.6,1.36-7.24,2.61-10.9,3.77-14.69,4.58-29.82,7.64-45.05,9.73-7.61,1.07-15.26,1.83-22.92,2.42-7.66,.57-15.33,.98-23.02,1.11-7.68,.14-15.37,.1-23.06-.2-3.85-.19-7.68-.41-11.57-.84-2-.24-3.84-.56-5.73-.83-1.88-.27-3.75-.52-5.63-.72-7.49-.81-15.11-1.24-22.44-.06-1.82,.29-3.6,.76-5.46,1.27-1.83,.5-3.65,1.02-5.45,1.59-3.6,1.15-7.16,2.45-10.62,3.96-6.94,3-13.56,6.75-19.63,11.25-6.08,4.49-11.58,9.77-16.35,15.64-9.56,11.78-15.83,26.06-19.01,40.94-3.23,14.91-3.65,30.34-2.49,45.58Z"/>
      <g class="cls-16">
        <path class="cls-14" d="M293.23,45.35c-.49,2.45-.93,4.91-1.54,7.34-.62,2.44-1.36,4.83-2.18,7.2-1.65,4.73-3.31,9.4-4.42,14.22-.57,2.4-1.04,4.85-1.51,7.29-.46,2.44-.89,4.88-1.19,7.32-.61,4.87-.59,9.8-.03,14.67,1.11,9.74,4.33,19.23,9.61,27.44,2.6,4.13,5.72,7.93,9.11,11.49,3.4,3.53,7.08,6.96,10.76,10.18,1.86,1.6,3.78,3.11,5.79,4.52,2,1.42,4.12,2.72,6.2,4.29,2.08,1.57,3.97,3.45,5.59,5.44,1.63,1.96,3.12,4.15,4.34,6.4,2.46,4.51,4.24,9.38,5.2,14.43,.48,2.52,.72,5.1,.73,7.67,0,1.3-.04,2.54-.09,3.8-.04,1.25-.16,2.61-.36,3.85l-.57,3.71-.28,1.85c-.09,.6-.16,1.19-.22,1.8-.24,2.43-.33,4.9-.33,7.37,.02,4.93,.53,9.87,1.51,14.71,.21,1.22,.55,2.41,.83,3.61,.32,1.19,.68,2.38,1.04,3.56,.83,2.32,1.57,4.73,2.85,6.79,.64,1.02,1.42,1.97,2.4,2.66,.97,.71,2.13,1.14,3.32,1.37,2.42,.41,4.95-.16,7.22-1.17-2.2,1.14-4.72,1.88-7.28,1.61-1.26-.16-2.52-.58-3.6-1.3-1.1-.7-1.98-1.69-2.71-2.74-1.45-2.14-2.29-4.52-3.24-6.85-.42-1.19-.84-2.38-1.21-3.58-.33-1.21-.74-2.41-1-3.65-1.2-4.9-1.84-9.93-2.04-14.98-.08-2.53-.07-5.06,.13-7.59,.05-.63,.11-1.28,.19-1.92l.24-1.86,.49-3.7c.16-1.23,.24-2.37,.25-3.61,.02-1.24,.04-2.5,0-3.69-.08-2.42-.33-4.83-.81-7.21-.97-4.75-2.72-9.34-5.1-13.56-1.19-2.13-2.56-4.05-4.11-5.93-1.54-1.87-3.23-3.52-5.13-4.95-1.91-1.43-4.06-2.74-6.13-4.2-2.09-1.45-4.1-3.02-6.03-4.67-1.95-1.63-3.78-3.37-5.6-5.09-1.82-1.73-3.62-3.5-5.36-5.33-3.47-3.68-6.71-7.65-9.41-11.98-5.43-8.66-8.67-18.61-9.63-28.72-.47-5.06-.37-10.19,.37-15.21,.35-2.51,.86-4.98,1.41-7.43,.55-2.44,1.09-4.88,1.76-7.32,.66-2.43,1.41-4.84,2.28-7.2,.87-2.36,1.82-4.67,2.73-6.99,.89-2.32,1.86-4.62,2.61-6.99,.75-2.37,1.45-4.77,2.16-7.17Z"/>
      </g>
    </g>
    <path class="cls-17" d="M410.99,308.5c1.09,.68,1.97,1.77,2.56,3.05,.57,1.3,.8,2.67,.77,4.12-.03,1.45-.4,2.98-1.12,4.36-.73,1.38-1.78,2.61-2.99,3.54-2.43,1.92-5.3,2.82-8.11,3.18-1.3,.16-3.14,.2-4.75-.24-1.63-.42-3.13-1.14-4.39-2.09-.64-.47-1.23-.98-1.77-1.53-.56-.56-1.02-1.12-1.53-1.87-.9-1.39-1.53-2.86-1.85-4.41-.35-1.53-.38-3.03-.3-4.39,.04-.68,.1-1.33,.19-1.95l.16-1.08c.08-.41,.17-.82,.29-1.2,1.03-3.07,2.97-5.09,5.01-6.73,1.11-.92,2.56-1.56,3.9-1.73,1.36-.2,2.68-.06,3.88,.34-1.21,.37-2.31,.85-3.21,1.48-.91,.66-1.56,1.36-2.05,2.24-1.19,1.88-2.13,3.95-2.23,5.6-.02,.2-.01,.39,0,.58l.02,.28,.02,.45c.04,.59,.06,1.14,.11,1.67,.11,1.05,.27,1.97,.54,2.77,.27,.79,.68,1.54,1.12,2.14,.45,.52,1.14,1.24,1.8,1.68,.69,.46,1.36,.85,2.07,1.04,.73,.2,1.33,.3,2.42,.25,1.96-.04,3.9-.42,5.5-1.19,1.59-.78,2.85-1.96,3.6-3.83,.67-1.92,1.15-4.08,.34-6.55Z"/>
  </g>
  <g>
    <path class="cls-2" d="M185.77,514.49c-2.22-4.31-13.08-3.97-30.29-8.29-3.3-.83-5.03-3.34-29.22-5.47-2.04-.18-16.17,.63-19.11,3.15-3.38,2.91-3.76,8-3.9,11.02-.73,15.94,2.59,31.49,3.78,36.91,2.69,12.27,5.03,20.74,9.52,30.29,3.09,6.58,5.35,9.7,8.78,11.57,5.6,3.05,11.82,.68,18.25-1.63,4.35-1.57,8.04-3.86,15.44-8.45,5.98-3.71,9.75-6.05,14.66-10.02,5.89-4.76,8.83-7.14,11.59-11.06,3.32-4.71,6.2-10.99,7.27-10.49,.38,.18,.16,1.04,.87,1.99,.71,.94,1.82,1.28,3.17,1.45,2.89,.36,5.2-.29,7.49-.87,.24-.06,2.21-.52,6.14-1.44,3.71-.87,7.41-1.82,11.13-2.6,2.99-.63,4.91-.98,5.85-2.69,.43-.79,.7-1.96,1.53-2.12,.56-.11,1.02,.31,1.83,.89,1.03,.73,2.21,1.2,3.27,1.87,1.21,.76,12.22,6.43,30.77,8.62,14.91,1.76-.32,.66,20.18,1.43,2.64,.1,18.28-1.87,21.12-4.94,2.65-2.87,2.51-7.09,2.36-12.42-.78-26.8-.29-24.62-.77-27.51-1.45-8.8-3.57-14.5-7.48-25.06-8.56-23.07-13.64-25.19-15.75-25.76-2.57-.69-4.87-.17-6.44,.19-5.48,1.24-3.99,.38-12.18,5.05-3.24,1.85-9.49,6.18-9.49,6.18-4.39,2.66-6.05,4.24-10.73,7.78-7.56,5.72-6.62,5.18-10.06,8.94-.66,.73-2.04,1.84-7.75,8.41-1.6,1.84,0,0,0,0-2.55,2.29-5.44,4.45-6.22,6.29-.71,1.66-.17,2.96-.85,3.28-.82,.38-1.97-1.33-3.37-2.29-2.41-1.65-5.01-.7-9.99,.58-10.21,2.63-11.69,2.26-17.18,4.46-4.82,1.93-2.86,5.39-4.22,2.74Z"/>
    <path class="cls-6" d="M186.35,515.23c-2.27,11.08-.4,22.51,6.18,36.79"/>
    <path class="cls-6" d="M220.53,508.99c5.89,9.61,8.67,20.9,8.01,36.8"/>
    <path class="cls-11" d="M258.94,473.26c.17,.3-4.56,5.33-14.48,14.26-6.76,6.09-2.16,2.2-10.32,9.55-.67,.6-1.98,1.92-5.62,7.12-.9,1.28-2.42,2.84-2.21,4.42,.25,1.84,1.49,3.94,3.03,4.31,1.09,.26,2.01-.46,2.28-.64,3.91-2.51,8.91-2.32,13.34-3.57,1.66-.47,7.63-2.06,12.48-3.17,.07-.02,1.74-.39,4.03-.7,2.29-.3,4.7-.62,4.81-.23,.13,.5-2.98,1.61-9.49,4.45-8.63,3.78-6.5,3.28-11.69,5.42,0,0-2.88,1.18-9,4.79-1.39,.82-3.26,1.96-3.53,3.96,0,0-.19,1.39,.69,2.97,3.26,5.82,29.13,1.43,29.34,2.52,.1,.5-5.23,2.54-11.7,3.63-4.8,.81-9.39,2.63-14.21,3.32-.65,.09-2.29,.31-2.87,1.57-.73,1.58,.63,3.88,1.09,4.66,4.46,7.54,36,14.76,35.97,15.28-.02,.28-9.68-1.77-24.65-4.96-8.33-1.78-16.13-1.99-17.73-6.54-.46-1.32,.11-3.92,.15-6.28,.08-5.34,.52-8.49-1.26-15.77-2.91-11.91-8.33-14.09-5.62-17.1,17.36-19.26,36.7-34.1,37.16-33.28Z"/>
    <path class="cls-11" d="M155.07,586.51c-.18-.29,4.44-5.41,14.16-14.52,6.62-6.22,2.11-2.24,10.1-9.75,.66-.62,1.94-1.96,5.47-7.2,.87-1.29,2.36-2.88,2.11-4.43-.29-1.8-1.57-3.84-3.12-4.16-1.09-.22-2,.52-2.26,.7-3.85,2.6-8.84,2.57-13.24,3.94-6.87,2.14-10.93,3.35-16.39,4.33-4.06,.73-4.73,.59-4.79,.38-.14-.49,2.94-1.68,9.37-4.69,8.54-4,6.42-3.44,11.55-5.71,0,0,2.85-1.26,8.89-5.01,1.37-.85,3.22-2.04,3.44-4.01,0,0,.16-1.38-.75-2.9-3.37-5.64-29.09-.5-29.33-1.56-.11-.49,5.16-2.67,11.6-3.95,4.77-.95,9.31-2.89,14.11-3.73,.65-.11,2.28-.38,2.83-1.64,.7-1.58-.7-3.8-1.18-4.56-4.6-7.3-36.23-13.43-36.21-13.94,.01-.28,9.69,1.44,24.7,4.12,8.35,1.49,17.96,1.84,19.66,6.27,.49,1.28-.46,6.12-.45,8.46,.03,5.27-.25,6.98,1.68,14.11,3.15,11.65,6.73,14.45,4.09,17.5-16.93,19.55-35.55,32.74-36.03,31.96Z"/>
    <path d="M226.76,520.94c2.33-2.42,5.07-4.41,7.93-6.14,2.86-1.75,5.89-3.2,9-4.43,3.11-1.23,6.3-2.23,9.56-2.97,3.25-.75,6.56-1.27,9.92-1.35-3.09,1.3-6.17,2.44-9.24,3.59l-9.13,3.51c-3.03,1.19-6.03,2.43-9.03,3.71-2.99,1.3-5.96,2.67-9,4.07Z"/>
    <path d="M229.44,532.48c2.69-.26,5.29-.42,7.87-.69,2.58-.25,5.13-.57,7.69-.91,2.56-.35,5.14-.72,7.74-1.04,2.61-.3,5.24-.6,7.95-.59-2.42,1.22-4.92,2.13-7.47,2.9-2.55,.76-5.17,1.34-7.83,1.7-2.66,.36-5.37,.48-8.06,.29-2.69-.2-5.37-.68-7.9-1.66Z"/>
    <path d="M184.85,527.9c-2.82,.02-5.57,.17-8.31,.44-2.74,.28-5.47,.64-8.2,1.07l-8.23,1.26c-2.76,.4-5.53,.77-8.35,.9,2.66-.94,5.33-1.73,8.04-2.43,2.71-.71,5.46-1.27,8.23-1.71,2.78-.4,5.6-.68,8.43-.65,2.82,.02,5.67,.31,8.38,1.11Z"/>
    <path d="M152.68,553.4c2.93-.93,5.79-1.92,8.63-2.97,2.83-1.07,5.66-2.16,8.46-3.31l8.44-3.43c2.82-1.14,5.65-2.28,8.56-3.28-2.54,1.74-5.19,3.28-7.91,4.7-2.71,1.43-5.5,2.7-8.34,3.87-2.85,1.13-5.76,2.16-8.74,2.94-2.97,.79-6.02,1.38-9.1,1.49Z"/>
  </g>
  <path d="M121.49,628c6.6,9.62,10.73,20.79,13.97,31.94,9.77,36.87,11.39,75.3,14.33,113.09,2.69,36.99,4.98,74.19,12.93,110.49,2.62,12.08,6.12,23.98,10.77,35.48-1.27-2.82-2.61-5.63-3.84-8.48-2.3-5.77-4.43-11.62-6.25-17.57-14.92-50.14-16.13-104.82-20.16-156.73-1.86-24.64-3.79-49.39-9.07-73.55-2.58-12.06-6.45-23.91-12.68-34.66h0Z"/>
</svg>