<?xml version="1.0" encoding="UTF-8"?>
<svg id="Layer_1" data-name="Layer 1" xmlns="http://www.w3.org/2000/svg" viewBox="0 0 704.57 982">
  <defs>
    <style>
      .cls-1 {
        fill: none;
        opacity: .25;
        stroke-width: 3px;
      }

      .cls-1, .cls-2, .cls-3 {
        stroke: #000;
        stroke-miterlimit: 10;
      }

      .cls-4 {
        fill: #0071bc;
      }

      .cls-5 {
        fill: #666;
      }

      .cls-6 {
        fill: #35b6ff;
      }

      .cls-7 {
        fill: #4d4d4d;
      }

      .cls-2 {
        fill: #b5ffff;
      }

      .cls-2, .cls-3 {
        stroke-width: 4px;
      }

      .cls-3 {
        fill: #f2f2f2;
      }

      .cls-8 {
        opacity: .5;
      }
    </style>
  </defs>
  <g>
    <path class="cls-3" d="M2.22,64.64L125.1,923.51c15.26,20.05,101.43,40.54,101.43,40.54,64.37,12.67,193.1,22.8,356.95,10.13,0,0,42.91-5.07,54.61-35.47L702.46,41.84h0C474.5-17.67,230.96-10.35,8.08,62.72l-5.86,1.92Z"/>
    <path class="cls-3" d="M702.46,41.84c-66.32,79.55-189.2,115.87-333.54,117.59-141.09,1.69-292.58-8.65-366.7-95.11"/>
  </g>
  <g>
    <g>
      <path class="cls-2" d="M52.95,262.23l104.87,626.05c13.02,14.62,86.56,29.55,86.56,29.55,54.93,9.23,164.79,16.62,304.61,7.39,0,0,36.62-3.69,46.61-25.85l54.93-653.76h0c-194.54-43.38-402.36-38.04-592.57,15.22l-5,1.4Z"/>
      <path class="cls-2" d="M650.53,245.61c-56.59,57.99-161.46,84.46-284.64,85.72-120.4,1.23-249.68-6.3-312.94-69.33"/>
    </g>
    <path class="cls-1" d="M158.01,891.53c45.75-33.07,151.6-44.89,218.59-43.41,68.04,1.51,147.42,6.2,218.59,51.67"/>
  </g>
  <g class="cls-8">
    <path class="cls-6" d="M98.53,280.06c10.06-9.34,21.04-17.67,32.76-24.82-10.05,9.35-21.05,17.67-32.76,24.82h0Z"/>
  </g>
  <g class="cls-8">
    <path class="cls-6" d="M115.85,292.7c19.51-16.86,39.91-32.69,61.11-47.38-19.51,16.87-39.92,32.68-61.11,47.38h0Z"/>
  </g>
  <g class="cls-8">
    <path class="cls-6" d="M137.42,303.98c26.19-23.9,53.28-46.79,81.24-68.59-26.18,23.91-53.29,46.78-81.24,68.59h0Z"/>
  </g>
  <g class="cls-8">
    <path class="cls-6" d="M171.03,314.58c33.48-32.04,67.9-63.1,103.22-93.1-33.47,32.05-67.91,63.09-103.22,93.1h0Z"/>
  </g>
  <g class="cls-8">
    <path class="cls-6" d="M207.7,320.88c35.15-34.13,71.25-67.29,108.26-99.39-35.14,34.14-71.25,67.28-108.26,99.39h0Z"/>
  </g>
  <g class="cls-8">
    <path class="cls-6" d="M340.6,328.51c38.39-36.53,78.13-72.48,118.33-107.02-38.39,36.54-78.14,72.48-118.33,107.02h0Z"/>
  </g>
  <g class="cls-8">
    <path class="cls-6" d="M285.92,328.35c36.75-36.46,74.84-72.36,113.43-106.86-36.74,36.47-74.85,72.35-113.43,106.86h0Z"/>
  </g>
  <g class="cls-8">
    <path class="cls-6" d="M240.5,324.74c38.01-35.94,77.35-71.3,117.15-105.24-38,35.95-77.36,71.29-117.15,105.24h0Z"/>
  </g>
  <g class="cls-8">
    <path class="cls-6" d="M381.23,328.35c36.77-35.16,74.86-69.73,113.43-102.89-36.76,35.16-74.87,69.72-113.43,102.89h0Z"/>
  </g>
  <g class="cls-8">
    <path class="cls-6" d="M429.35,324.3c34.74-33.29,70.43-65.6,107.02-96.86-34.74,33.3-70.43,65.59-107.02,96.86h0Z"/>
  </g>
  <g class="cls-8">
    <path class="cls-6" d="M478.29,319.47c30.33-29.69,61.62-58.41,93.81-86.07-30.33,29.7-61.62,58.4-93.81,86.07h0Z"/>
  </g>
  <g class="cls-8">
    <path class="cls-6" d="M538.51,305.14c21.48-22.9,43.95-44.86,67.35-65.79-21.47,22.9-43.96,44.85-67.35,65.79h0Z"/>
  </g>
  <g class="cls-8">
    <path class="cls-6" d="M589.47,282.1c12.46-13.25,25.91-25.56,40.22-36.78-12.45,13.26-25.91,25.56-40.22,36.78h0Z"/>
  </g>
  <g class="cls-8">
    <path class="cls-4" d="M393.48,257.24c10.06-9.34,21.04-17.67,32.76-24.82-10.05,9.35-21.05,17.67-32.76,24.82h0Z"/>
  </g>
  <g class="cls-8">
    <path class="cls-4" d="M514.6,304.89c10.06-9.34,21.04-17.67,32.76-24.82-10.05,9.35-21.05,17.67-32.76,24.82h0Z"/>
  </g>
  <g class="cls-8">
    <path class="cls-4" d="M236.61,312.83c15.62-14.93,32.17-28.88,49.56-41.71-15.61,14.94-32.18,28.87-49.56,41.71h0Z"/>
  </g>
  <g class="cls-8">
    <path class="cls-4" d="M176.96,296.94c24.08-23.35,49.09-45.71,75-67.01-24.07,23.35-49.1,45.71-75,67.01h0Z"/>
  </g>
  <g class="cls-8">
    <path class="cls-4" d="M108.27,290.25c14.67-15.31,30.32-29.67,46.85-42.95-14.66,15.31-30.33,29.66-46.85,42.95h0Z"/>
  </g>
  <g class="cls-8">
    <path class="cls-4" d="M416.22,317.93c14.67-15.31,30.32-29.67,46.85-42.95-14.66,15.31-30.33,29.66-46.85,42.95h0Z"/>
  </g>
  <g class="cls-8">
    <path class="cls-7" d="M458.91,518.34c64.07-22.59,113.79-72.24,154.52-124.97,20.83-29.78,34.85-63.78,45.77-98.31,3.8-12.13,7.21-24.48,10.19-36.83-5.67,28.61-13.94,56.75-25.06,83.75-7.64,18.55-17.05,36.58-28.53,53.09-7.36,10.01-16.04,20.43-24.31,29.71-35.97,40.86-79.79,77.46-132.59,93.57h0Z"/>
  </g>
  <g class="cls-8">
    <path class="cls-5" d="M428.14,586.84c51.89-13.76,98.89-41.56,139.79-75.88,5.64-4.82,14-11.96,19.45-17.04,25.83-22.87,44.41-52.82,58.34-84.16,5.65-12.59,10.48-25.56,14.67-38.74l-1.38,5c-3.33,11.64-7.38,23.11-11.94,34.32-13.35,31.91-31.61,62.59-57.71,85.74-5.49,5.11-13.82,12.35-19.53,17.16-41.14,34.37-89.02,61.95-141.7,73.59h0Z"/>
  </g>
</svg>