<?xml version="1.0" encoding="UTF-8"?>
<svg id="Layer_1" data-name="Layer 1" xmlns="http://www.w3.org/2000/svg" viewBox="0 0 1027.77 1030">
  <defs>
    <style>
      .cls-1 {
        fill: #f05a24;
      }

      .cls-2 {
        fill: #f6921e;
      }

      .cls-3 {
        fill: #ffe899;
      }

      .cls-4, .cls-5 {
        fill: #fbed21;
      }

      .cls-6 {
        fill: #989898;
      }

      .cls-7 {
        fill: #8a3e00;
      }

      .cls-5, .cls-8 {
        stroke: #1a1a1a;
      }

      .cls-5, .cls-8, .cls-9 {
        stroke-miterlimit: 10;
        stroke-width: 4px;
      }

      .cls-8 {
        fill: #f1f1f1;
      }

      .cls-9 {
        fill: #ffffed;
        stroke: #333;
      }

      .cls-10 {
        opacity: .31;
      }

      .cls-11 {
        opacity: .3;
      }

      .cls-12 {
        opacity: .4;
      }

      .cls-13 {
        opacity: .41;
      }

      .cls-14 {
        opacity: .75;
      }
    </style>
  </defs>
  <path class="cls-5" d="M742.43,890.87c1.47-87.28-.72-166.01-3.05-253.22-1.17-43.89-1.21-87.86,1.66-131.7,1.38-21.09,3.63-42.06,6.23-63.03,2.18-17.61,7.95-37.15,3.45-54.74-.98-3.85-.05-7.07,1.88-9.45-3.52-2.06-12.71-10.14-16.87-8.19-41.05,19.27-71.37-5.75-116.12,0-40.87,5.25-82.93,61.04-123.9,65.27-41.7,4.31-98.49-73.44-139.61-65.27-74.51,14.8-132.66,120.09-202.28,150.62,1.65,3.86,2.86,7.98,3.53,12.39,.84,5.51,.49,9.15,0,15.63-4.77,63.08-14.2,282.58-20.1,326.03-.07,.5-.16,1.1-.26,1.75,42.04,11.88,76.94,45.42,118.61,58.54,43.12,13.58,98.17,24.38,142.92,31.26,46.97,7.22,95.86,9.29,142.92,15.63,46.98,6.33,88.4-6.5,135.79-14.97,26.75-4.78,64.03-7.99,89.75-16.29-1.4-5.37-13.15-18.36-15.63-24.56-4.47-11.17-11.21-28.07-8.93-35.73Z"/>
  <path class="cls-8" d="M992.53,448.72c-5.11-8.38-37.91-62.21-96.02-75.93-11.19-2.64-23.99-2.54-49.13-2.23-42.06,.52-77.39,4.03-100.85,6.24-1.52,.14-2.45,1.76-1.76,3.12,.35,.7,5.29-2.77,5.12-1.92-3,15-3.88,40.18-6,58-2.52,21.19-5.34,42.24-6.87,63.52-3.21,44.52-3.33,89.2-2.22,133.8,2.14,85.73,.93,168.23,7.88,257.12,44.42,7.13,127.04-8.5,171.7-50.93,35.65-33.87,67.31-59.01,91.56-129.52,21.52-62.57,35.84-180.49-13.4-261.27Zm-40.01,218.72c-24.25,72.02-86.07,145.71-164.35,158.71-7.53,1.25-14.11-2.98-14.13-10.77-.36-127.72,4.33-269.85,8.58-337.63,.19-3.02,1-25.16,2.23-31.26-.15,.11,2.23-20.1,10.27-21.01,45.98-5.2,94.42-1.65,127.58,36.56,23.68,27.29,34.19,63.78,38.66,98.96,4.5,35.43,2.61,72.43-8.84,106.43Z"/>
  <path class="cls-9" d="M269.01,493.38c17.06-30.1,70.66-118.19,100.49-93.79,49.13,40.2,87.27,83.4,129.52,64.76,44.17-19.49,78.16-51.36,136.22-80.39,32.43-16.22,76.01,12.4,107.19-2.23,4.86-2.28,17.86-8.93,17.86-8.93,0,0,12.83-6.33,22.33-13.4,12.34-9.18,15.63-24.56,15.63-24.56,0,0-2.67-31.75,6.7-44.66,3-4.13,7.28-5.33,11.17-6.7,25.71-9.08,52.07-32.38,60.29-51.36,11.67-26.92-7.23-58.82-13.4-69.23-19.84-33.47-61.95-64.4-104.96-62.53-25.63,1.12-43,13.51-62.53,2.23-11.7-6.76-16.3-17.47-20.1-24.56-19.92-37.23-66.98-66.97-109.42-73.69-9.96-1.58-39.71-6.82-73.42,6.68-11.81,4.73-35.86,14.37-51.64,37.98-13.49,20.19-13.38,39.64-22.33,40.2-7.51,.46-11.16-11.49-20.1-22.33-27.68-33.57-84.7-30.57-113.89-29.03-32.49,1.71-56.2,10.1-71.46,15.63-47.28,17.14-72.27,40.88-80.39,49.13-21.21,21.53-23.88,35.29-24.56,40.2-2,14.37,3.84,19.1,0,29.03-6.3,16.31-25.96,13.62-49.13,29.03-23.46,15.6-33.73,38.59-42.43,58.06-9.99,22.37-17.83,39.9-13.4,62.53,.53,2.68,7.45,35.44,35.73,51.36,31.69,17.84,69.01,2.61,71.46,11.17,1.25,4.37-8.36,8.87-20.1,20.1-6.94,6.63-31.43,30.06-31.26,49.13,.26,29.34,53.16,47.93,88.64,71.69,16.32,10.93,43.4,8.62,67.68-.23,0,0,41.74-10.34,53.59-31.26Z"/>
  <path class="cls-8" d="M740.19,949.08c-14.8,7-75.86,9.46-75.86,9.46,0,0-100.83,.47-147.41-3.44-24.58-2.06-42.43-2.3-66.84-3.48-23.76-1.15-47.46-3.94-70.9-7.99-83.58-14.44-162.83-45.87-244.41-68.22-2.1,2.81-4.85,5.85-9.13,10.96-16.7,19.96-19.03,26.43-19.89,29.17,0,0-2.47,7.85-2.12,15.65,1.37,30.49,87.48,55.22,87.48,55.22,71.63,20.57,144.15,37.4,192.32,38.85,130.27,3.92,102.75,3.75,187.58-1.31,31.07-1.85,71.52-4.63,131.66-14.32,65.57-10.56,73.76-27.49,75.69-34.03,3.23-10.93-2.93-20.34-9.73-37.01-9.79,3.31-19.12,6.08-28.42,10.48Z"/>
  <g class="cls-14">
    <path class="cls-3" d="M159.58,191.91c28.98-2.62,34.11-36.31,54.91-50.69,7.86-5.33,17.3-4.87,25.48-.67-7.13-2-14.75-2.32-21.17,1.54-8.06,4.93-13.17,13.3-18.46,21.01-9.39,14.18-21.62,30.75-40.76,28.81h0Z"/>
  </g>
  <g class="cls-11">
    <path class="cls-7" d="M164.05,408.52c9.91-26.4,7.13-53.71-20.4-67.19-14.41-6.97-30.69-7.79-46.6-6.5,15.7-3.81,33.15-3.71,48.21,3.08,29.14,13.38,33.44,44.36,18.79,70.62h0Z"/>
  </g>
  <g class="cls-14">
    <path class="cls-3" d="M284.64,363.86c8.24,20.75,21.27,15.42,37.84,8.21,13.36-5.87,34.84-15.75,44.79,.73-12.09-13.39-29.86-2.65-43.2,2.94-17.1,7.69-34.74,11.57-39.42-11.87h0Z"/>
  </g>
  <g class="cls-11">
    <path class="cls-7" d="M432.02,392.89c21.94,19.67,42.07,24.88,67.31,7.23,6.95-4.78,13.37-10.42,19.78-16.16-7.81,10.28-17.31,19.81-28.95,25.85-22.41,11.6-43.71,1.88-58.14-16.91h0Z"/>
  </g>
  <g class="cls-14">
    <path class="cls-3" d="M365.03,124.92c15.56,12.5,34.28,22.56,54.62,22.77,20.24,.6,39.53-9.97,50.34-27.24-6.07,14.31-19.5,25.52-34.71,29.35-25.81,6.85-53.07-5.64-70.24-24.88h0Z"/>
  </g>
  <g class="cls-14">
    <path class="cls-3" d="M499.02,78.02c7.05-11.14,20-18.04,33.06-19.34,9.68-.93,21.5,1.06,27.37,9.76,1.8,2.92,2.54,6.38,2.1,9.59-.74-6.44-5.25-11.2-11.06-13.4-17.47-6.09-38.29,.94-51.46,13.4h0Z"/>
  </g>
  <g class="cls-11">
    <path class="cls-7" d="M762.52,153.95c20.32-2.87,40.29,15.51,37.63,36.28-.77,6.67-3.97,12.88-8.6,17.31,3.32-5.49,5.34-11.49,5.49-17.55,.46-19.26-15.98-34.05-34.52-36.05h0Z"/>
  </g>
  <g class="cls-14">
    <path class="cls-3" d="M617.37,151.71c9.65-8.2,21.72-12.08,31.42-1.62,4.05,4.09,7.05,8.67,11.34,11.36,4.52,2.91,10.11,2.54,15.3,1.42-2.44,1.36-5.12,2.38-8.03,2.77-6.21,.89-11.71-2.46-15.78-6.74-3.78-3.75-6.95-8.25-11.65-10.55-7.37-3.38-15.6,.5-22.6,3.36h0Z"/>
  </g>
  <g class="cls-14">
    <path class="cls-3" d="M675.43,325.9c1.91-25.38,18-47.05,45.67-42.34,7.75,1.33,15.02,4.49,21.32,8.84-7.08-2.89-14.36-5.06-21.72-5.75-26.55-2.5-38.55,16.36-45.27,39.25h0Z"/>
  </g>
  <g class="cls-11">
    <path class="cls-7" d="M528.05,292.4c8.14,3.55,17.85,7.27,26.36,3.06,5.51-2.65,9.53-7.56,13.92-11.89,4.58-4.68,10.63-9.48,17.71-8.4,3.38,.5,6.39,1.97,9,3.84-5.76-2.27-12.24-2.96-17.31,.93-5.04,3.62-8.68,8.98-13.36,13.26-11.3,11.13-24.83,8.45-36.32-.79h0Z"/>
  </g>
  <g class="cls-11">
    <path class="cls-7" d="M269.01,227.64c19.16,11.43,39.54,14.52,59.62,3.67,11.34-5.92,20.71-14.6,29.7-23.76-4.74,7.2-10.42,13.87-17.11,19.53-21.99,18.99-50.18,19.87-72.21,.57h0Z"/>
  </g>
  <g class="cls-14">
    <path class="cls-3" d="M434.92,274.48c4.54-24.14,23.39-44.25,45.35-54.34,11.34-4.91,27.09-8.46,36.89,1.31,.6,.67,1.16,1.46,1.72,2.16,.32,.52,1.01,1.85,1.32,2.39-.38-.5-1.32-1.63-1.68-2.11-.66-.57-1.29-1.26-1.94-1.82-10.22-7.71-24.16-3.4-34.72,1.5-21.17,10.42-38.74,28.53-46.93,50.9h0Z"/>
  </g>
  <g>
    <path d="M318.22,600.57c.38-13.34,.9-26.71,.55-40.05-.64-12.9-1.07-27.18-9.39-37.7-8.6-10.85-24.08-9.38-35.9-5.27-12.43,4.31-23.63,11.83-32.34,21.69-10.99,12.18-18.14,27.63-21.19,43.71-5.44,34.44-3.3,74.73-3.67,109.71-.02,29.35-.12,96.63-.26,125.27-.14,4.91,.19,9.66,1.74,14.31,4.67,14.3,21.14,27.07,35.51,30.4,9.45,2.22,19.81,.78,26.7-6.56,9.15-9.61,13.25-22.83,16.62-35.4,4.85-19.43,7.07-39.41,9.15-59.3-2.11,26.56-4,53.81-13.56,78.94-4.38,10.87-11.77,22.46-24.03,25.06-8.49,1.83-17.41,.16-25.22-3.41-11.88-5.62-24.01-15.97-28.35-28.68-2.35-6.43-2.03-13.65-2.05-20.37-.19-44.75-.29-115.59-.2-160.34-.15-20.08,.27-40.26,2.65-60.23,1.34-13.49,5.24-26.85,11.9-38.7,9.98-17.78,26.3-32.13,45.8-38.48,9.6-3.06,20.72-4.72,30.21-.18,16.05,8.64,16.56,29.47,16.93,45.53,.08,13.39-.8,26.74-1.61,40.07h0Z"/>
    <g class="cls-10">
      <path class="cls-1" d="M309.41,604.99c.25-12.37,.61-24.76,.36-37.13-.39-25.26-4.7-56.16-37.98-41.81-23.99,10.88-37.41,36.71-41.4,61.79-3.03,22.47-3.07,46.53-2.99,69.25,.09,41.48-.01,107.14-.2,148.62,.08,5.04-.42,13.29,.62,18.22,2.44,15.9,20.46,34.19,37.06,33.21,17.91-.69,24.04-28.51,27.24-42.75,3.73-18.18,5.5-36.71,7.19-55.18-1.55,24.71-2.99,49.76-10.06,73.63-3.15,9.48-7.5,20.27-17.05,25.02-8.27,3.78-18.2,1.4-25.56-3.19-8.12-5.03-14.97-12.36-19.19-20.93-2.71-5.81-3.85-12.41-3.73-18.75,0,0-.04-9.29-.04-9.29l-.14-37.15c-.04-24.66-.14-87.63-.06-111.46-.06-22.94,.14-47.13,3.4-69.81,4.26-26.04,18.81-52.62,43.88-63.54,23.68-9.91,36.65,1.27,39.15,25.48,1.9,18.56,.36,37.22-.53,55.77h0Z"/>
    </g>
  </g>
  <g>
    <g>
      <path class="cls-4" d="M405.26,720.99c-1.86,46.61-8.09,143.16,7.33,155.17,8.35,6.5,21.43,5.98,35.14,.6,29.12-11.44,49.43-41.17,53.1-75.52l.04-.33c1.8-16.89,2.67-33.89,2.59-50.9l-.71-151.52-.18-38.87c-.04-8.36-3.16-16.09-7.38-22.93-18.5-30.03-43.06-32.36-60.93-20.71-22.46,14.64-20.62,95.5-24.54,146.77"/>
      <path d="M405.26,720.99c-.07,27.84-8.16,139.09,8.18,154.16,10.31,7.37,24.1,4.19,35.07-.41,14.71-6.22,27.02-17.41,35.63-30.81,8.69-13.45,13.66-29.14,15.11-45.05,3.39-27.91,2-68.89,1.98-97.36-.05-17.89-.31-106.09-.35-122.05-.05-3.6,0-14.72-.05-18.31,0-1.77-.04-4.08-.3-5.86-1.85-13.93-14.08-30.74-25.79-38.31-11.91-7.89-26.7-8.05-38.85-.47-24.74,13.71-22.19,116.16-26.16,146.22,.81-14.16,1.57-34.41,2.11-48.77,1.52-25.26,1.88-76.38,17.73-95.53,2.78-3.22,6.7-5.33,10.51-7.07,7.73-3.43,16.57-4.2,24.78-2.09,7.07,1.97,13.64,5.84,18.99,10.86,10.65,10.23,20.17,24.12,20.46,39.49,.07,11.58,.22,32.42,.29,44.24,0,0,.64,97.64,.64,97.64-.12,28.73,1.15,69.52-2.36,97.75-.69,7.13-2.1,14.38-4.11,21.27-7.49,24.68-24.77,47.18-49.07,57.04-11.75,4.86-26.88,7.86-37.86-.34-3-2.47-4.42-6.31-5.55-9.85-4.33-15.87-4.37-32.48-4.73-48.79-.16-32.08,1.95-65.5,3.72-97.6h0Z"/>
    </g>
    <g class="cls-10">
      <path class="cls-2" d="M410.17,721.39c-.84,38.76-2.93,77.55-.44,116.25,.59,7.69,1.36,15.42,3.14,22.83,.9,3.44,2,7.32,4.39,9.87,7.95,6.95,19.84,4.68,28.8,.94,14.93-6.29,26.81-18.42,34.61-32.48,6.49-11.65,10.41-24.72,11.88-37.95,3.56-29.03,2.13-69.06,2.11-98.62,0,0-.26-93.11-.26-93.11-.12-13.16,.07-33.39-.22-46.43-1.15-14-11.15-29.51-21.99-38.15-11.27-8.46-24.68-8.64-36.08-.31-20.52,15.95-18.53,111.32-22.04,140.77,.43-7.75,.71-15.5,.96-23.26,1.32-30.62,1.06-62.78,7.1-92.9,1.83-8.17,4.05-16.48,9.11-23.38,1.31-1.51,2.81-3.15,4.55-4.19,2.07-1.37,4.28-2.71,6.61-3.6,20.04-8.31,37.42,5.64,47.23,22.29,4.72,7.47,8.13,16.37,8.13,25.48,.07,11.72,.22,31.7,.29,43.64,.22,30.9,.75,109.8,.74,139.66,0,19-.76,38.04-3.21,56.9-3.22,19.91-11.66,39.41-26.19,53.69-11.14,10.69-26.9,19.79-42.81,18.03-4.13-.63-8.06-2.23-11.18-5.15-2.96-3.18-3.93-7.19-4.97-11.16-3.29-15.37-3.41-31-3.64-46.59-.05-30.58,1.79-62.46,3.38-93.08h0Z"/>
    </g>
  </g>
  <g>
    <g>
      <path class="cls-4" d="M674.15,553.92c-.04-8.36-3.16-16.09-7.38-22.93-18.5-30.03-43.06-32.36-60.93-20.71-22.46,14.64-22.52,164.08-26.44,215.35"/>
      <path d="M674.15,553.92c-.38-10.75-5.88-20.56-12.39-28.82-9.3-11.99-23.14-21.68-38.89-19.49,0,0-2.34,.34-2.34,.34,0,0-2.29,.58-2.29,.58-2,.47-4.76,1.56-6.63,2.5-1.97,.94-4.37,2.25-5.88,3.56-2.15,2.03-3.59,4.95-4.8,7.7-5.9,15.17-7.79,31.56-9.89,47.73-3.11,26.12-4.67,52.42-6.29,78.69-1.6,26.29-2.77,52.65-5.33,78.91,1.79-52.75,1.6-105.54,7.66-158.07,2.1-15.07,5.51-47.01,16.3-57.54,1.2-1.19,3.11-2.06,4.48-2.91,2.16-1.21,4.73-2.24,7.1-3.01,1.35-.56,3.57-.89,4.99-1.27,0,0,2.56-.31,2.56-.31,16.72-1.97,31.35,8.48,40.55,21.61,6.19,8.66,11.44,18.89,11.1,29.79h0Z"/>
    </g>
    <g>
      <path class="cls-4" d="M574.94,788.15c-1.86,46.61-6.17,70.3,9.24,82.31,8.35,6.5,21.43,5.98,35.14,.6,29.12-11.44,49.43-41.17,53.1-75.52l.04-.33c1.8-16.89,.82-101.7,.74-118.71"/>
      <path d="M574.94,788.15c-.08,14.1-.91,28.2-.96,42.25,.2,11.81-.35,24.9,7,34.73,5.1,6.86,13.98,9.13,22.22,8.16,20.51-2.45,38.76-15.72,50.48-32.42,8.15-11.7,13.51-25.24,16-39.26,.28-1.85,.65-4.57,.93-6.42,.4-4.3,.62-8.69,.76-13.05,.86-28.39,1.1-66.69,1.6-95.07,0,0,.23-10.57,.23-10.57,.19,5.32,.56,15.83,.68,21.13,.77,27.83,1.48,56.83,.99,84.61-.13,5.25-.21,10.75-.95,16-3.57,30.2-21.43,59.63-49.56,72.66-16.38,7.73-39.47,10.87-48.61-8.72-4.49-9.97-3.96-21.25-3.71-31.82,.47-12.25,2.12-29.81,2.91-42.21h0Z"/>
    </g>
  </g>
  <g>
    <g class="cls-10">
      <path class="cls-2" d="M668.18,560.37c-1.16-6-2.86-11.59-5.9-16.81-5.4-9.74-12.85-19.19-23.65-22.26-8.02-2.35-17.24-1.24-25.45,1.02-6.86,2.25-10.46,12.79-12.41,19.28-6.32,23.85-2.74,49.04-2.91,73.43,.9,29.32,1.08,58.72-1.5,88.01-.75,7.7-1.59,15.6-3.22,23.2,0,0-1.1-.06-1.1-.06-5.18-49.31-8.39-99.24-.88-148.48,2.51-15.25,4.35-31.23,8.3-46.2,1.84-6.52,5.01-14.26,12.01-16.94,16.4-7.71,35.36-5.34,47.18,9.17,8.19,10.13,13.4,23.63,10.64,36.65,0,0-1.1,0-1.1,0h0Z"/>
    </g>
    <g class="cls-10">
      <path class="cls-2" d="M585.42,786.5c2.72,19.41,1.66,39.05,3.44,58.25,1.17,8.47,2.59,17.08,9.99,21.16,8.22,3.56,17.72-.47,25.21-5.15,28.97-18.66,27.28-56.42,28.77-86.86,1.7-32.66,5.76-65.1,10.89-97.41,0,0,1.1,0,1.1,0,1.67,13.12,1.8,26.24,1.94,39.41,.14,26.14-1.34,52.33-4.38,78.29-1.72,30.88-17.37,59.89-44.9,74.87-15.63,8.94-30.75,5.37-36.5-12.83-2.89-10.04-2.35-20.61-1.78-30.66,.96-13.18,2.63-26.11,5.12-39.1,0,0,1.1,.03,1.1,.03h0Z"/>
    </g>
  </g>
  <path class="cls-6" d="M825.05,408.52c39.08-8.77,95.3,8.7,117.79,43.02,3.34,5.32,5.95,11.15,7.26,17.27-1.75-6-4.51-11.66-8.08-16.73-23.1-32.69-78.36-49.83-116.98-43.56h0Z"/>
  <path class="cls-6" d="M859.62,393.55c28.46-5.42,67.97,7.55,84.93,31.73,2.52,3.76,4.53,7.9,5.56,12.27-3.31-8.36-9.29-15.14-16.1-20.65-20.18-15.77-48.79-24.59-74.38-23.35h0Z"/>
  <path class="cls-6" d="M909.91,779.22c-15.42,38.45-72.28,74.2-113.64,72.04-6.72-.45-13.45-1.84-19.47-4.79,12.57,4.67,26.28,3.89,39.13,.95,34.46-8.06,77.74-36.15,93.98-68.2h0Z"/>
  <path class="cls-6" d="M900.98,814.95c-13.72,28.88-60.21,54.05-91.96,50.26-5.21-.67-10.37-2.17-14.83-4.85,9.54,4.18,20.16,4.08,30.22,2.34,26.91-4.87,61.83-24.26,76.56-47.75h0Z"/>
  <g class="cls-13">
    <path class="cls-1" d="M293.57,540.27c-10.54-7.13-18.3-1.32-26.09,6.37-3.66,3.6-7.05,7.55-10.24,11.66-3.09,4.17-6.47,8.33-8.33,13.23,.36-5.4,3.22-10.33,5.84-14.94,5.13-8.24,14.03-19.29,23.79-21.89,5.58-1.49,11.79,1.02,15.04,5.57h0Z"/>
  </g>
  <g class="cls-12">
    <path class="cls-1" d="M416.33,804.27c-1.61,13.31-.16,26.83,3.12,39.74,2.45,9.19,8.12,15.81,18.32,13.02,13.05-3.14,22.47-13.94,29.12-25.1,9.4-15.22,13.15-32.98,14.98-50.6,2.08-17.73,2.87-35.6,1.72-53.47,.97,8.89,1.35,17.85,1.33,26.8-.82,26.65-2.19,54.85-16.32,78.29-6.89,11.43-16.88,22.63-30.43,25.76-11.02,2.93-17.54-4.31-19.94-14.37-3.08-13.1-4.13-26.79-1.91-40.07h0Z"/>
  </g>
  <g class="cls-10">
    <path class="cls-1" d="M610.67,542.51c10.02-15.96,28.18-11.83,39.62,.21,4.46,5.04,7.36,11.36,8.65,17.92,.82,4.27,1.23,8.79,1.48,13.11,1.27,43.46-4.74,86.78-11.78,129.55,3.14-30.18,6.3-60.31,8.16-90.58,.74-17.16,2.09-34.53-.43-51.57-1.13-6.17-3.65-12.18-7.7-17.01-10.83-11.87-27.31-16.3-37.99-1.63h0Z"/>
  </g>
  <g>
    <path class="cls-6" d="M208.71,980.2c-24.69-1.56-48.97-9.49-70.13-22.34-15.06-9.31-33.1-26.74-24.23-45.98,2.67-5.75,6.98-10.43,11.73-14.31-4.31,4.37-8.21,9.25-10.38,14.88-7.24,18.46,10.23,34.01,24.47,42.87,20.83,12.79,44.4,20.95,68.53,24.88h0Z"/>
    <path class="cls-6" d="M202.01,966.8c-24.77-3.99-67.84-19.27-72.69-47.39-.66-4.37-.22-8.84,1.23-12.91-.8,4.23-.8,8.56,.22,12.63,6.53,25.87,48.17,40.26,71.24,47.67h0Z"/>
    <path class="cls-6" d="M197.55,951.17c-18.66-2.57-51.07-12.01-56.24-32.73-.68-3.25-.54-6.62,.41-9.7-.29,3.2,0,6.38,1.01,9.3,6.65,18.37,37.74,27.12,54.82,33.13h0Z"/>
  </g>
  <g>
    <path class="cls-6" d="M663.84,1001c16.4-1.13,32.82-1.64,48.99-4.49,21.81-3.59,42.55-12.85,49.16-35.67,1.64-5.17,2.51-10.59,3.04-16.06,.13,5.49-.35,11.03-1.62,16.45-10.35,42.55-64.68,40.83-99.57,39.77h0Z"/>
    <path class="cls-6" d="M675.17,989.79c26.06,.21,61.21-3.09,77.04-26.56,2.24-3.35,3.95-7.07,5.27-10.96-.67,4.06-2.04,8.03-4,11.72-14.25,25.64-51.99,30.03-78.31,25.81h0Z"/>
    <path class="cls-6" d="M685.85,975.65c22.25-.3,52.12-.68,62.12-24.67-.54,2.99-1.66,5.9-3.22,8.58-11.58,18.72-39.44,19.8-58.9,16.09h0Z"/>
  </g>
</svg>