<?xml version="1.0" encoding="UTF-8"?>
<svg id="Layer_2" data-name="Layer 2" xmlns="http://www.w3.org/2000/svg" viewBox="0 0 672.39 886.59">
  <defs>
    <style>
      .cls-1 {
        fill: #003b10;
      }

      .cls-1, .cls-2, .cls-3 {
        stroke-width: 5px;
      }

      .cls-1, .cls-2, .cls-3, .cls-4, .cls-5, .cls-6, .cls-7 {
        stroke-miterlimit: 10;
      }

      .cls-1, .cls-7 {
        stroke: #001510;
      }

      .cls-2 {
        stroke: #ff4b00;
      }

      .cls-2, .cls-8 {
        fill: #f2c7af;
      }

      .cls-3 {
        fill: #fff;
        stroke: #f15a24;
      }

      .cls-9 {
        fill: #006837;
      }

      .cls-10 {
        fill: #f15a24;
      }

      .cls-11 {
        fill: #ff4b00;
      }

      .cls-12 {
        fill: #fbb03b;
      }

      .cls-13 {
        fill: #42210b;
      }

      .cls-14 {
        fill: #451f00;
      }

      .cls-15 {
        fill: #1a1a1a;
      }

      .cls-16, .cls-6 {
        fill: #29abe2;
      }

      .cls-4 {
        fill: #009245;
        stroke: #006837;
      }

      .cls-17 {
        opacity: .5;
      }

      .cls-18 {
        opacity: .75;
      }

      .cls-5 {
        fill: #b37424;
        stroke: #754c24;
        stroke-width: 6px;
      }

      .cls-6 {
        opacity: .8;
        stroke: #29abe2;
      }

      .cls-7 {
        fill: none;
        opacity: .47;
        stroke-width: 2px;
      }
    </style>
  </defs>
  <path class="cls-4" d="M107.38,833.8s-10.09-181.98,0-214.56c16.64-53.7,49.19-112.51,72.87-109.16,11.06,1.57,13.28,15.71,34.52,26.35,20.75,10.39,41.5,8.35,49.86,7.53,69.82-6.87,92.63-103.48,149.58-101.63,4.86,.16,18.65,7.64,46.03,22.59,57.7,31.51,86.56,47.27,115.06,71.52,23.95,20.38,44.54,37.9,61.37,67.76,18.63,33.07,22.9,76.45,30.68,161.86,3.77,41.35,5.65,62.02,3.84,67.76H107.38Z"/>
  <path class="cls-6" d="M317.8,662.77c-1.2,.1-2.24,3.54-2.79,5.28-.54,1.68-1.07,4.91,.38,6.26,1.25,1.17,3.4,.37,4.44-1.26,1.95-3.07-.03-10.44-2.02-10.28Z"/>
  <g>
    <g>
      <path class="cls-2" d="M461.39,55.8c5.97,6.44-23.44,28.58-22,65,1.17,29.53,21.29,34.24,41,77,23.55,51.09,16.72,91.87,31,94,13.24,1.98,19.08-33.11,42-36,21.38-2.7,47.81,23.86,53,53,4.01,22.53-3.59,51.54-23,61-39,19-51.34-21.38-52-5-1,25-75,161-220,214-75.84,27.72-178.26-92.33-194-192-3.43-21.72,3.16-16.98,7-114,1-25.33,1.82-55.89,18-91,5.87-12.74,9.44-20.48,16-28,34.06-39.04,99.24-15.29,167-26,35.67-5.64,83.3-22.56,136-72Z"/>
      <path class="cls-14" d="M444.39,79.8c-13,2-48.91,60.55-129,65-36,2-50.3,3.06-82-1-78-10-97.35,78.46-111,60-17-23-17-67,0-116C138.48,41.45,203.39,4.8,304.39,.8c83.8-3.32,117.47,3.95,142,17,47,25,12.2,42.61,32,34,23-10,60,34,65,78,4.87,42.88,29.02,107.46,8,146-13.07,23.96-38.48,48.46-53,43-12.89-4.85-23-29-19-68,4.7-45.86-36.48-47.65-47-82-15-49,12-89,12-89Z"/>
      <rect class="cls-15" x="187.89" y="263.3" width="34" height="37" rx="17" ry="17"/>
      <rect class="cls-15" x="324.89" y="263.3" width="34" height="37" rx="17" ry="17"/>
      <path class="cls-3" d="M377.39,485.8s-35.58-20.84-36-21c-23-9-20.56-11.28-57-17-51-8-86,18-86,18,0,0,17.06-40.38,39.8-50.04,13.52-5.75,25.66-5.21,36.37-4.73,10.24,.45,19.83-.22,49.21,14.11,36.26,17.68,53.62,60.67,53.62,60.67Z"/>
      <path class="cls-10" d="M256.39,321.8c-1.39,3.98-3.4,7.76-5.95,11.14-3.67,5.1-8.85,8.94-12.5,13.89-3.62,4.85-1.71,11.1,.89,16,3.56,6.47,10.14,12.31,17.77,12.56,3.47,.07,7.19-1.6,11.21-3.05,12.04-4.68,25.68-5.37,38.29-2.96,4.12,.68,8.07,1.44,11.01-.05,3.17-1.56,5.62-4.87,6.93-8.2,3.03-7.37,.63-15.82-6.9-19.32-5.33-2.72-12.02-2.98-17.5-.35-1.88,.84-3.66,1.97-5.25,3.33,2.84-3.08,6.62-5.42,10.87-6.38,8.59-1.91,19.06,1.89,22.4,10.53,3.26,8.61-.33,19.69-8.61,24.31-4.33,2.26-9.25,1.39-13.66,.8-8.14-1.3-16.15-1.62-24.23-.18-3.98,.64-7.83,1.7-11.7,3.09-4.13,1.42-8.3,3.34-12.96,3.2-9.35-.51-17.25-7.42-21.19-15.51-2.97-5.96-4.52-14.06,.27-19.55,4.1-4.97,9.6-8.3,13.76-13.06,2.79-3.04,5.16-6.49,7.05-10.24h0Z"/>
      <path class="cls-10" d="M324.39,345.8c10.68,22.75,25.04,31.63,47.71,40.27,4.51,1.85,9.02,3.38,13.61,5.13,3.44,1.26,7.82,3.39,9.73,7,4.41,7.65,4.77,17.75,.95,25.59,1.92-8.12,.7-16.82-3.96-23.66-1.93-2.83-4.86-3.66-8.19-4.8-27.73-8.59-52.35-18.63-59.85-49.54h0Z"/>
      <path class="cls-10" d="M240.89,339.3c-4.46,11.6-11.23,23.6-22.83,29.42-4.6,2.34-10.12,2.65-15,3.29-7.03,.87-13.72,3.73-19.97,6.9-13.49,6.77-13.83,24.25-12.41,37.52-4.91-13.91-4.57-33.88,10.12-41.67,4.56-2.51,9.05-4.61,14.03-6.1,4.76-1.49,10.12-1.74,14.91-2.27,14.73-1.92,23.56-15.63,31.16-27.09h0Z"/>
      <path class="cls-10" d="M221.22,498.78c20.5-26.58,58.09-35.17,85.81-14.2,8.46,6.39,15.34,14.76,19.69,24.39-6.63-7.73-14.14-14.65-22.78-19.84-27.86-16.98-57.89-9.09-82.72,9.64h0Z"/>
      <path class="cls-13" d="M259.89,222.3c-8.69,10.59-22.43,17.71-36.48,16.07-8.44-.77-15.46-6.34-23.92-6.06-12.24-.16-23.56,5.89-34.6,10.99,7.51-9.83,18.25-17.86,30.71-20.06,6-1.03,12.47-.39,18.12,1.84,4.45,1.82,7.44,3.27,11.11,3.94,11.86,2.46,24.14-2.06,35.06-6.72h0Z"/>
      <path class="cls-13" d="M306.57,221.08c14.25,9.44,30.17,15.47,47.34,13.16,7.74-.85,16.32-1.87,23.99,.3,16,4.17,27.32,18.24,32.31,33.3-9.52-10.49-20.21-21.4-34.46-24.07-9.61-1.89-19.29,1.04-29.1,.37-16.02-.73-31.58-10.02-40.09-23.07h0Z"/>
      <g class="cls-17">
        <path class="cls-10" d="M367.89,298.3c-7.08,14.93-25.32,22.78-40.57,15.12-4.79-2.36-8.94-5.84-11.87-10.11,7.03,5.24,14.94,9.04,23.67,9.11,11.23,.22,21.14-6.1,28.78-14.12h0Z"/>
      </g>
      <g class="cls-17">
        <path class="cls-10" d="M228.44,300.47c-9.86,13.26-29.29,17.4-42.74,6.9-4.24-3.25-7.63-7.47-9.67-12.23,5.68,6.33,12.39,11.35,20.56,13.39,11.24,2.72,22.55-1.48,31.86-8.06h0Z"/>
      </g>
    </g>
    <g class="cls-18">
      <path class="cls-16" d="M306.39,448.8c13.3,3.56,26.74,7.12,39.27,12.99,3.07,1.59,5.79,3.58,8.94,5.06,4.49,2.3,9.54,4.43,13.86,7.33,4.34,3,8.43,6.08,12.58,9.42,2.99,2.6,5.8,4.7,7.82,8.54,2.16,4.21,.66,8.51-3.23,10.77-2.88,1.63-3.89,4.95-3.82,8.01,.18,2.38,.72,3.82,3.05,4.8,1.21,.55,3.29,1.15,5.24,2.51,1.98,1.31,3.53,3.23,4.57,5.09,3.8,6.42,3.32,15.56-4.7,18.53-6.5,2.4-11.52,5.05-16.55,9.83-4.24,3.55-9.15,6.64-14.37,8.48-6.7,2.24-12.38,3.91-18.2,7.6-4.49,2.45-7.82,6.22-12.04,9.17-3.01,2.06-6.04,3.8-9.26,5.46-3.34,1.95-7.4,2.58-9.85,5.67-4.3,5.43-5.89,13.65-3.46,20.1,1.02,2.49,2.69,4.13,4.92,5.87,2.04,1.54,5.31,4.26,5.28,7.54,.18,1.04-.47,2.78-1.06,3.53-.89,1.36-1.43,2.76-1.96,4.26-5.21,15.21,9.63,9.45,9.93,19.34-.31,3.67-2.63,6.51-4.93,9.12,2.4-3.43,6.21-9.71,1.52-12.78-2.88-1.69-7.19-2.25-9.15-5.5-2.93-4.99-1.07-11.57,1.2-16.4,2.83-3.76-8.63-6.01-11.02-14.21-.71-1.85-1.19-3.77-1.34-5.68-.62-6.69,1.1-13.64,5.08-19.1,2.7-4.03,7.67-5.6,11.65-7.84,2.82-1.56,5.69-3.34,8.27-5.23,4.04-3.11,7.71-7.14,12.24-9.74,3.02-1.95,6.29-3.67,9.68-5.05,6.46-2.61,12.49-3.8,17.98-7.8,2.86-1.94,4.95-3.99,7.77-6.31,4.25-3.4,9.61-5.7,14.52-7.57,.97-.48,1.53-.61,1.97-1.36,.84-1.6,.12-4.4-.87-6.13-1.61-2.81-2.89-3.02-6.17-4.49-2.06-.85-4.38-2.77-5.48-4.83-2.79-5.12-2-11.21,.78-16.01,1.21-2.29,4.14-4.17,5.96-5.46,.03-.03,.01,0,.03-.03,.03-.03,.01-.14,.05-.24-.15-1.52-1.32-2.89-2.61-4.34-5.8-5.76-12.33-11.21-19.21-15.72-4.27-2.6-9.08-5.02-13.33-7.93-6.75-5.12-14.75-8.14-22.47-11.55-5.43-2.42-13.51-5.41-19.05-7.7h0Z"/>
    </g>
    <g class="cls-18">
      <path class="cls-16" d="M301.89,448.79c2.53-1.26,4.76-1.22,7.36-.24,2.97,3.9,5.66,8.29,6.36,13.32,.7,3.96-1.65,7.74-2.37,11.08-.02,.4,.05,.6,.23,.94,.55,1.11,1.16,2.58,1.42,3.83,.68,2.71,.54,5.32,.92,7.79,.31,.66,.43,.78,1.28,1.29,8.13,4.88,12.33,16.75,9.78,25.49-1.3-5.54-4.03-10.45-7.6-14.61-1.71-1.94-3.66-3.57-5.48-4.32-3.05-1.1-5.72-4.56-5.92-7.84-.33-2.68-.3-5.07-1.17-7.4-.98-1.89-1.49-4.24-1.09-6.3,.39-2.46,1.96-4.93,2.8-6.73,1.64-3.4,.56-7.02-.19-10.54,0,0-1.21-4.2-1.21-4.2l.6,.67c-.52-.49-1.22-.93-1.87-1.27,0,0-.02,0-.02,0,.07,0,.15,.03,.22,.02-1.24-.43-2.51-.97-4.03-.97h0Z"/>
    </g>
  </g>
  <path class="cls-9" d="M473.89,684.3c8.3,22.87,14.82,46.24,20.91,69.76,5.95,23.55,11.42,47.19,15.09,71.24-8.31-22.87-14.83-46.24-20.91-69.76-5.93-23.55-11.41-47.19-15.09-71.24h0Z"/>
  <path class="cls-9" d="M295.89,760.3c86.17,20.61,171.07,46.51,254.01,77.68-86.19-20.56-171.05-46.57-254.01-77.68h0Z"/>
  <g>
    <g>
      <path class="cls-1" d="M123.62,873.21c15.73,29.05,108.56-17.92,117.99-51.49,3.46-12.32-.29-23.7-8.58-44.08-50.78-124.81-54.71-134.06-76.51-158.81-16.95-19.24-22.76-13.91-44.81-36.45-37.47-38.29-51.96-77.4-45.62-83.46,1.07-1.02,2.96-1.33,3.3-2.85,1.03-4.62-14.58-9.78-13.53-13.26,.58-1.93,4.51-4.04,5.28-6.15,.92-2.52-1.55-11.61-9.86-7.27-17.26,9.02-34.68,19.25-44.44,25.48-2.03,1.3-5.25,6.23-4.1,8.92,1.57,3.7,6.9,.51,9.21,3.09,3.1,3.47-3.1,11.79-.04,15.83,1.85,2.44,6.11,.98,7.5,1.73,11.7,6.31,35.7,33.55,27.69,91.7-2.33,16.92-8.56,59.97-6.62,66.71,23.76,82.46,46.99,123.58,83.14,190.36Z"/>
      <path class="cls-5" d="M183.37,824.81h0c-26.01,16.65-45.06,15.06-62.39-18.22l-33.49-63.75c-17.33-33.28-20.5-74.94,5.51-91.59h0c26.01-16.65,50.58,2.16,67.9,35.44l22.81,56.86c17.33,33.28,25.66,64.62-.35,81.27Z"/>
      <path class="cls-12" d="M172.24,804.4h0c-15.23,9.75-27.43,6.81-40.93-19.11l-26.05-49.7c-13.5-25.93-18.66-56.66-3.42-66.42h0c15.23-9.75,32.23,6.28,45.73,32.2l18.76,43.67c13.5,25.93,21.15,49.6,5.92,59.35Z"/>
    </g>
    <path class="cls-7" d="M9.64,508.69c12.29-6.73,34.22-20.04,46.51-26.78"/>
    <path class="cls-7" d="M15.89,524.3c13.34-6.73,37.24-20.25,50.58-26.99"/>
  </g>
  <g>
    <g>
      <path class="cls-8" d="M283.39,833.8c7.61-20.64,6.52-42.53,10.17-64.32,.31-1.87,.6-3.85-.09-5.6-.69-1.77-2.25-2.98-3.77-4.04-15.46-10.87-33.92-16.53-49.02-27.93-5.89-4.45-11.19-9.72-17.21-13.99-9.47-6.72-20.42-10.76-31.23-14.68-10.74-3.9-21.5-7.76-32.26-11.59-13.32-4.73-27.48-9.47-41.23-6.33-8.12,1.85-15.43,6.32-22.59,10.73-15.7,9.67-31.43,19.36-46.16,30.56-4.66,3.54-9.46,7.57-11.28,13.28s2.01,15.88,7.7,16.82c3.07,.51,4.76,.68,7.8,0s7.08-4.3,8.34-1.34c1.1,2.58-.36,5.47-1.23,8.15-2.54,7.82,.67,17.24,7.36,21.64,2.19,1.44,4.4,2.32,5.72,4.65,1.81,3.21,.4,5.55-1,9-3.2,7.91,2.64,21.02,10.21,24.07,4.79,1.93,13.02,.04,20.79-2.07-1.32,2.51-7,16,4.4,19.94,2.63,.91,5.07,2.41,7.8,2.71,31.23,3.42,62.84-4.48,94.22-5.76,21.77-.89,50.81-3,72.58-3.89"/>
      <path class="cls-11" d="M284.84,834.2c6.41-17.54,6.71-36.35,8.83-54.69,.27-2.34,.57-4.67,.92-7,.32-2.13,.9-4.35,.8-6.52-.21-4.43-3.76-6.72-7.12-8.94-7.19-4.76-14.95-8.54-22.65-12.37s-15.39-7.75-22.39-12.76-13.55-11.78-21.07-16.72-15.53-8.23-23.75-11.3c-9-3.37-18.06-6.57-27.11-9.81-9.03-3.23-18.05-6.77-27.37-9.11s-18.36-3.16-27.34-.68-16.16,7.34-23.67,11.97c-8.06,4.97-16.11,9.96-24.01,15.18-7.67,5.07-15.38,10.26-22.51,16.08-5.43,4.43-10.46,10.35-9.49,17.8,.41,3.1,1.5,6.22,3.36,8.74s4.15,3.88,7.31,4.33c1.92,.27,3.76,.32,5.68,.02s3.39-.98,5.04-1.77c.68-.32,2.35-1.42,2.89-.63,1.03,1.51-.38,4.42-.9,5.89-2.38,6.73-1.43,14.32,2.92,20.08,1.04,1.38,2.22,2.6,3.58,3.65,1.46,1.13,3.16,1.9,4.62,3.03s2.6,2.99,2.28,4.96-1.44,3.71-2.03,5.58c-1.88,5.95,.26,12.99,3.56,18.03,1.66,2.54,3.81,4.92,6.5,6.39,3.08,1.68,6.68,1.72,10.08,1.35,4.41-.48,8.72-1.58,12.99-2.73l-1.69-2.2c-3.14,6.04-4.75,15.27,1.34,20.04,2.3,1.8,5.34,2.69,8.02,3.77,3.45,1.39,7.29,1.45,10.97,1.67,7.83,.47,15.69,.3,23.52-.2,15.95-1.03,31.77-3.45,47.67-4.98,14.07-1.35,28.23-1.69,42.33-2.51,15.48-.9,30.95-1.9,46.45-2.54,1.92-.08,1.93-3.08,0-3-13.29,.55-26.56,1.37-39.83,2.15-6.71,.4-13.43,.79-20.14,1.14s-13.32,.54-19.96,1.01c-15.45,1.09-30.78,3.41-46.2,4.89-7.5,.72-15.03,1.24-22.57,1.31-3.92,.03-7.84-.05-11.75-.3-1.79-.11-3.59-.26-5.37-.44s-3.47-.73-5.16-1.45c-2.57-1.1-5.57-1.81-7.38-4.11-1.24-1.57-1.69-3.58-1.71-5.53-.03-3.24,1-6.75,2.38-9.4,.59-1.14-.39-2.56-1.69-2.2-4.2,1.14-8.48,2.29-12.83,2.69-3.23,.3-6.41,.17-9.14-1.76-4.75-3.36-7.73-9.9-8.01-15.61-.07-1.38,.02-2.77,.37-4.11,.46-1.74,1.37-3.31,1.9-5.02,1.22-3.87-.44-7.43-3.67-9.69-1.44-1.01-3.06-1.77-4.41-2.9-1.25-1.04-2.33-2.27-3.22-3.63-1.83-2.81-2.9-6.12-3.03-9.47-.06-1.65,.09-3.3,.5-4.9,.48-1.88,1.36-3.64,1.75-5.55,.6-3.01-.27-7.27-4.19-6.58-1.47,.26-2.82,1.06-4.16,1.68-1.63,.76-3.36,1.13-5.16,1.15-3.05,.03-5.74-.48-7.71-2.93-1.78-2.23-2.85-5.19-3.15-8.01-.35-3.24,.66-6.05,2.49-8.72,2.13-3.11,5.14-5.58,8.11-7.85,3.65-2.79,7.37-5.48,11.14-8.11,7.51-5.23,15.2-10.18,22.96-15.03s14.88-9.62,22.7-13.68c3.86-2,7.89-3.68,12.14-4.62s8.85-1.09,13.29-.69c9.11,.82,17.89,3.88,26.46,6.91s17.87,6.38,26.79,9.6c8.27,2.99,16.64,5.83,24.58,9.62,3.84,1.83,7.57,3.89,11.09,6.28s7,5.36,10.35,8.23c6.47,5.54,13.15,10.48,20.61,14.62,7.21,4,14.7,7.44,22,11.27,3.71,1.95,7.37,3.99,10.91,6.25,1.67,1.07,3.45,2.14,4.94,3.46,1.65,1.46,2.15,3.1,1.94,5.27s-.68,4.39-.98,6.58-.59,4.56-.85,6.84c-.49,4.44-.88,8.88-1.29,13.33-.82,8.9-1.7,17.83-3.63,26.57-.94,4.26-2.14,8.47-3.64,12.57-.66,1.82,2.23,2.6,2.89,.8h0Z"/>
    </g>
    <path class="cls-11" d="M61.69,754.88c2.45-.56,4.9-1.37,7.15-2.48,4.14-2.04,8.23-4.21,12.34-6.31,8.11-4.15,16.23-8.3,24.34-12.45,4.65-2.38,9.29-4.76,13.94-7.13,1.29-.66,.15-2.6-1.14-1.94-16.08,8.23-32.16,16.46-48.23,24.68-2.9,1.49-5.8,2.74-8.99,3.47-1.41,.32-.81,2.49,.6,2.17h0Z"/>
    <path class="cls-11" d="M76.44,790.87c7.54-2.22,14.53-5.9,21.16-10.07,6.99-4.41,13.74-9.22,20.56-13.89,4.16-2.85,8.33-5.7,12.49-8.55,1.58-1.08,.08-3.69-1.51-2.59-7.17,4.91-14.33,9.82-21.5,14.73-6.42,4.4-12.84,8.87-19.75,12.47-3.92,2.05-7.99,3.77-12.24,5.01-1.85,.54-1.06,3.44,.8,2.89h0Z"/>
    <path class="cls-11" d="M103.69,821.88c3.24-.53,6-2.23,8.92-3.64,3.4-1.64,6.76-3.34,10.06-5.18,6.67-3.73,13.18-7.77,19.58-11.94,1.21-.79,.08-2.74-1.14-1.94-6.28,4.08-12.65,8.03-19.17,11.71-3.17,1.78-6.38,3.47-9.66,5.03-3.01,1.43-5.85,3.24-9.18,3.79-1.43,.23-.82,2.4,.6,2.17h0Z"/>
  </g>
  <path class="cls-9" d="M295.91,759.82c-1.33,21.49-4.47,42.72-8.08,63.9-3.75,21.16-7.96,42.2-13.99,62.87,1.31-21.49,4.46-42.72,8.08-63.9,3.76-21.16,7.97-42.19,13.99-62.87h0Z"/>
  <path class="cls-6" d="M325.68,669.75c-1,.96-.1,7.57,.33,10.92,.41,3.25,1.64,9.13,3.61,10.49,1.71,1.17,3.17-1.63,3.22-5.12,.1-6.57-5.5-17.88-7.16-16.28Z"/>
  <path class="cls-6" d="M319.24,684.31c-1.22,.32-2.32,4.99-2.9,7.35-.57,2.29-1.14,6.59,.32,8.13,1.27,1.33,3.47-.06,4.54-2.36,2.03-4.33,.07-13.64-1.96-13.12Z"/>
</svg>