<?xml version="1.0" encoding="UTF-8"?>
<svg id="Layer_1" data-name="Layer 1" xmlns="http://www.w3.org/2000/svg" xmlns:xlink="http://www.w3.org/1999/xlink" viewBox="0 0 1920 1080">
  <defs>
    <style>
      .cls-1 {
        opacity: .25;
        stroke-width: 3px;
      }

      .cls-1, .cls-2, .cls-3, .cls-4, .cls-5, .cls-6, .cls-7, .cls-8, .cls-9, .cls-10, .cls-11, .cls-12, .cls-13, .cls-14, .cls-15, .cls-16, .cls-17 {
        stroke-miterlimit: 10;
      }

      .cls-1, .cls-10, .cls-11 {
        stroke: #000;
      }

      .cls-1, .cls-14, .cls-16, .cls-17 {
        fill: none;
      }

      .cls-2 {
        fill: #003b10;
      }

      .cls-2, .cls-3, .cls-4 {
        stroke-width: 5px;
      }

      .cls-2, .cls-17 {
        stroke: #001510;
      }

      .cls-3 {
        stroke: #ff4b00;
      }

      .cls-3, .cls-18 {
        fill: #f2c7af;
      }

      .cls-4 {
        fill: #fff;
        stroke: #f15a24;
      }

      .cls-19 {
        fill: blue;
        opacity: .1;
      }

      .cls-20 {
        font-family: Verdana, Verdana;
      }

      .cls-20, .cls-21 {
        font-size: 40px;
      }

      .cls-22 {
        font-size: 45px;
      }

      .cls-22, .cls-23, .cls-24, .cls-21 {
        font-weight: 700;
      }

      .cls-22, .cls-23, .cls-21 {
        font-family: Verdana-Bold, Verdana;
      }

      .cls-25, .cls-11 {
        fill: #f2f2f2;
      }

      .cls-26 {
        fill: #006837;
      }

      .cls-27 {
        fill: #0071bc;
      }

      .cls-28 {
        fill: #f15a24;
      }

      .cls-29 {
        fill: #ff4b00;
      }

      .cls-30 {
        fill: #f05a24;
      }

      .cls-31 {
        fill: #f6921e;
      }

      .cls-32 {
        fill: #ffe899;
      }

      .cls-33, .cls-6 {
        fill: #fbed21;
      }

      .cls-34 {
        fill: #fbb03b;
      }

      .cls-35 {
        fill: #ff1d25;
      }

      .cls-36 {
        fill: #989898;
      }

      .cls-37 {
        fill: #666;
      }

      .cls-38 {
        fill: #333;
      }

      .cls-39 {
        fill: #d77449;
      }

      .cls-40 {
        fill: #42210b;
      }

      .cls-41 {
        fill: #35b6ff;
      }

      .cls-42 {
        fill: #451f00;
      }

      .cls-43 {
        fill: #1a1a1a;
      }

      .cls-44 {
        fill: #8a3e00;
      }

      .cls-45, .cls-15 {
        fill: #29abe2;
      }

      .cls-46 {
        fill: #4d4d4d;
      }

      .cls-5 {
        fill: #d9e07a;
        stroke: #fff;
      }

      .cls-5, .cls-6, .cls-7, .cls-8, .cls-9, .cls-10, .cls-11 {
        stroke-width: 4px;
      }

      .cls-5, .cls-47, .cls-15 {
        opacity: .8;
      }

      .cls-6, .cls-7 {
        stroke: #1a1a1a;
      }

      .cls-7 {
        fill: #f1f1f1;
      }

      .cls-8 {
        fill: #ffffed;
        stroke: #333;
      }

      .cls-9 {
        fill: #ed4324;
        filter: url(#drop-shadow-2);
        font-family: Impact, Impact;
        font-size: 200.59px;
        stroke: #fbb03b;
      }

      .cls-10 {
        fill: #b5ffff;
      }

      .cls-23 {
        font-size: 36px;
      }

      .cls-24 {
        font-family: Verdana-BoldItalic, Verdana;
        font-size: 23px;
        font-style: italic;
      }

      .cls-48 {
        filter: url(#drop-shadow-4);
      }

      .cls-49 {
        fill: url(#New_Gradient_Swatch_2);
      }

      .cls-12 {
        fill: #009245;
        stroke: #006837;
      }

      .cls-50 {
        opacity: .31;
      }

      .cls-51 {
        opacity: .3;
      }

      .cls-52, .cls-53 {
        opacity: .4;
      }

      .cls-54 {
        opacity: .41;
      }

      .cls-55 {
        opacity: .5;
      }

      .cls-56 {
        opacity: .75;
      }

      .cls-53 {
        filter: url(#drop-shadow-1);
      }

      .cls-57 {
        fill: url(#New_Gradient_Swatch_2-5);
      }

      .cls-58 {
        fill: url(#New_Gradient_Swatch_2-2);
      }

      .cls-59 {
        fill: url(#New_Gradient_Swatch_2-4);
      }

      .cls-60 {
        fill: url(#New_Gradient_Swatch_2-3);
      }

      .cls-13 {
        fill: #b37424;
        stroke: #754c24;
        stroke-width: 6px;
      }

      .cls-14 {
        font-family: BigCaslon-Medium, 'Big Caslon';
        font-size: 25.22px;
        font-weight: 500;
        opacity: .55;
        stroke: #42210b;
      }

      .cls-14, .cls-17 {
        stroke-width: 2px;
      }

      .cls-15 {
        stroke: #29abe2;
      }

      .cls-16 {
        filter: url(#drop-shadow-3);
        stroke: lime;
        stroke-width: 15px;
      }

      .cls-17 {
        opacity: .47;
      }
    </style>
    <filter id="drop-shadow-1" filterUnits="userSpaceOnUse">
      <feOffset dx="14" dy="14"/>
      <feGaussianBlur result="blur" stdDeviation="10"/>
      <feFlood flood-color="#1e1e1e" flood-opacity=".8"/>
      <feComposite in2="blur" operator="in"/>
      <feComposite in="SourceGraphic"/>
    </filter>
    <filter id="drop-shadow-2" filterUnits="userSpaceOnUse">
      <feOffset dx="7" dy="7"/>
      <feGaussianBlur result="blur-2" stdDeviation="5"/>
      <feFlood flood-color="#000" flood-opacity=".75"/>
      <feComposite in2="blur-2" operator="in"/>
      <feComposite in="SourceGraphic"/>
    </filter>
    <linearGradient id="New_Gradient_Swatch_2" data-name="New Gradient Swatch 2" x1="780.59" y1="872.94" x2="810.59" y2="872.94" gradientTransform="translate(1629.86 -35.15) rotate(90)" gradientUnits="userSpaceOnUse">
      <stop offset="0" stop-color="#fff"/>
      <stop offset=".09" stop-color="#fff2d8"/>
      <stop offset=".21" stop-color="#ffe2a7"/>
      <stop offset=".33" stop-color="#ffd47d"/>
      <stop offset=".46" stop-color="#ffc95a"/>
      <stop offset=".59" stop-color="#ffc040"/>
      <stop offset=".72" stop-color="#ffb92d"/>
      <stop offset=".86" stop-color="#ffb621"/>
      <stop offset="1" stop-color="#ffb51e"/>
    </linearGradient>
    <linearGradient id="New_Gradient_Swatch_2-2" data-name="New Gradient Swatch 2" x1="776.01" y1="820.93" x2="814.71" y2="820.93" gradientTransform="translate(73.98 -203.19) rotate(7.02)" xlink:href="#New_Gradient_Swatch_2"/>
    <linearGradient id="New_Gradient_Swatch_2-3" data-name="New Gradient Swatch 2" x1="721.77" y1="824.65" x2="775.44" y2="831.26" gradientTransform="matrix(1, 0, 0, 1, 0, 0)" xlink:href="#New_Gradient_Swatch_2"/>
    <linearGradient id="New_Gradient_Swatch_2-4" data-name="New Gradient Swatch 2" x1="773.74" y1="940.86" x2="817.59" y2="940.86" gradientTransform="translate(1689.55 32.2) rotate(90)" xlink:href="#New_Gradient_Swatch_2"/>
    <linearGradient id="New_Gradient_Swatch_2-5" data-name="New Gradient Swatch 2" x1="726.93" y1="825.19" x2="770.45" y2="830.54" gradientTransform="matrix(1, 0, 0, 1, 0, 0)" xlink:href="#New_Gradient_Swatch_2"/>
    <filter id="drop-shadow-3" filterUnits="userSpaceOnUse">
      <feOffset dx="7" dy="7"/>
      <feGaussianBlur result="blur-3" stdDeviation="5"/>
      <feFlood flood-color="#000" flood-opacity=".75"/>
      <feComposite in2="blur-3" operator="in"/>
      <feComposite in="SourceGraphic"/>
    </filter>
    <filter id="drop-shadow-4" filterUnits="userSpaceOnUse">
      <feOffset dx="7" dy="7"/>
      <feGaussianBlur result="blur-4" stdDeviation="5"/>
      <feFlood flood-color="#000" flood-opacity=".75"/>
      <feComposite in2="blur-4" operator="in"/>
      <feComposite in="SourceGraphic"/>
    </filter>
  </defs>
  <rect class="cls-45" width="1920" height="1080"/>
  <rect class="cls-19" x="683.58" y="475.5" width="535" height="104" rx="52" ry="52"/>
  <rect class="cls-19" x="686.58" y="949.5" width="558" height="104" rx="52" ry="52"/>
  <rect class="cls-19" x="120.58" y="952.5" width="531" height="104" rx="52" ry="52"/>
  <g>
    <g>
      <path class="cls-6" d="M130.89,1009.73c-.28-19.37,.21-36.86,.73-56.22,.26-9.75,.28-19.51-.3-29.23-.28-4.68-.74-9.33-1.28-13.98-.45-3.9-1.64-8.23-.7-12.14,.21-.86,.01-1.57-.39-2.09,.74-.47,2.66-2.29,3.52-1.86,8.56,4.17,14.89-1.47,24.23-.31,8.52,1.06,17.28,13.33,25.83,14.16,8.7,.85,20.58-16.57,29.15-14.87,15.54,3.09,27.64,26.3,42.15,32.89-.35,.86-.6,1.78-.74,2.76-.18,1.23-.11,2.03,0,3.47,.97,13.99,2.86,62.7,4.07,72.33,.01,.11,.03,.24,.05,.39-8.78,2.75-16.07,10.29-24.77,13.32-9,3.13-20.49,5.68-29.83,7.33-9.8,1.73-20,2.32-29.83,3.85-9.8,1.53-18.44-1.21-28.33-2.96-5.58-.99-13.36-1.6-18.72-3.38,.29-1.19,2.75-4.11,3.27-5.5,.94-2.49,2.35-6.26,1.88-7.96Z"/>
      <path class="cls-7" d="M75.98,970.28c5.03,15.59,11.63,21.08,19.06,28.51,9.3,9.3,26.54,12.55,35.81,10.84,1.48-19.75,1.26-38.07,1.74-57.1,.25-9.9,.24-19.82-.41-29.7-.31-4.72-.89-9.39-1.41-14.08-.44-3.95-.61-9.54-1.23-12.86-.04-.19,.99,.57,1.07,.41,.14-.3-.05-.66-.37-.69-4.89-.43-12.26-1.11-21.04-1.11-5.25,0-7.92,.01-10.25,.63-12.13,3.2-18.99,15.24-20.06,17.11-10.3,18.07-7.36,44.21-2.89,58.04Zm9.35-33.2c.95-7.82,3.15-15.95,8.1-22.07,6.93-8.57,17.04-9.49,26.63-8.46,1.68,.18,2.17,4.66,2.14,4.64,.26,1.35,.42,6.26,.45,6.93,.86,15.04,1.79,46.58,1.67,74.93,0,1.73-1.38,2.69-2.95,2.43-16.33-2.68-29.2-18.87-34.23-34.79-2.38-7.52-2.76-15.73-1.81-23.6Z"/>
      <path class="cls-8" d="M229.82,920.21c-3.55-6.64-14.7-26.05-20.93-20.55-10.27,9.06-18.24,18.75-27.05,14.73-9.21-4.21-16.29-11.19-28.39-17.48-6.76-3.51-15.86,2.96-22.36-.21-1.01-.49-3.72-1.93-3.72-1.93,0,0-2.67-1.37-4.65-2.91-2.57-2.01-3.25-5.41-3.25-5.41,0,0,.57-7.06-1.38-9.9-.62-.91-1.52-1.16-2.33-1.46-5.36-1.95-10.85-7.05-12.56-11.24-2.43-5.95,1.53-13.08,2.82-15.4,4.15-7.48,12.95-14.46,21.92-14.16,5.35,.18,8.97,2.88,13.05,.33,2.44-1.53,3.41-3.92,4.2-5.51,4.17-8.32,14-15.05,22.86-16.65,2.08-.38,8.29-1.62,15.32,1.29,2.46,1.02,7.48,3.09,10.76,8.29,2.81,4.45,2.78,8.76,4.64,8.86,1.57,.08,2.33-2.58,4.2-5.01,5.79-7.53,17.68-7.01,23.77-6.75,6.78,.29,11.72,2.09,14.9,3.28,9.86,3.68,15.06,8.88,16.76,10.69,4.42,4.72,4.97,7.77,5.11,8.86,.41,3.19-.81,4.25-.01,6.44,1.31,3.6,5.41,2.95,10.24,6.31,4.89,3.4,7.02,8.48,8.83,12.78,2.08,4.94,3.71,8.81,2.77,13.85-.11,.6-1.57,7.89-7.47,11.5-6.62,4.04-14.4,.77-14.91,2.67-.26,.97,1.74,1.95,4.19,4.41,1.44,1.45,6.55,6.59,6.51,10.82-.06,6.51-11.11,10.78-18.52,16.15-3.41,2.47-9.06,2.03-14.12,.13,0,0-8.7-2.18-11.17-6.8Z"/>
      <path class="cls-7" d="M131.34,1022.64c3.08,1.51,15.83,1.9,15.83,1.9,0,0,21.04-.17,30.76-1.16,5.13-.52,8.85-.62,13.95-.95,4.96-.32,9.9-1,14.8-1.96,17.44-3.43,33.99-10.62,51.02-15.8,.44,.62,1.01,1.29,1.9,2.41,3.48,4.39,3.96,5.82,4.14,6.42,0,0,.51,1.74,.44,3.47-.3,6.77-18.27,12.49-18.27,12.49-14.95,4.76-30.09,8.69-40.14,9.14-27.18,1.22-21.44,1.11-39.14,.21-6.48-.33-14.92-.84-27.47-2.82-13.68-2.17-15.38-5.9-15.78-7.35-.67-2.42,.62-4.52,2.04-8.24,2.04,.71,3.99,1.3,5.93,2.25Z"/>
      <g class="cls-56">
        <path class="cls-32" d="M252.76,852.99c-4.07,1.87-8.03-2.4-9.83-5.45-1.91-3.01-2.99-5.91-6.93-5.73,3.74-3.94,8.4,.2,10.3,3.58,2.07,3.1,2.8,5.95,6.46,7.6h0Z"/>
      </g>
      <g class="cls-51">
        <path class="cls-44" d="M251.75,901.09c-8.53-10.17,2.73-22.34,14.01-16.54-2.42,.47-4.6,.91-6.55,1.67-6.84,2.45-8.04,8.13-7.46,14.87h0Z"/>
      </g>
      <g class="cls-56">
        <path class="cls-32" d="M226.6,891.5c.47,2.09-.63,4.64-2.92,5.16-4.56,1.05-8.01-2.91-12.03-3.59-.66-.04-1.44,.19-2.29,.63,.21-2.13,2.79-3.44,4.78-3.19,3.36,.12,6.42,2.4,9.1,3.05,1.34,.28,2.38-1.03,3.37-2.06h0Z"/>
      </g>
      <g class="cls-51">
        <path class="cls-44" d="M195.84,898.34c-3.59,10.08-15.44,7.51-18.17-1.75,1.82,.82,3.36,1.77,4.87,2.55,5.12,2.99,8.25,1.66,13.3-.8h0Z"/>
      </g>
      <g class="cls-56">
        <path class="cls-32" d="M209.91,838.67c-1.99,4.32-6.4,7.48-11.31,7.64-4.9,.29-10.14-3.39-10.59-8.35,1.72,1.56,3.4,2.69,5.14,3.39,5.78,2.42,11.33-.16,16.75-2.68h0Z"/>
      </g>
      <g class="cls-56">
        <path class="cls-32" d="M181.98,828.62c-3.73-1.29-7.21-2.41-10.94-1.53-.56,.16-.98,.43-1.42,.84-.24,.2-.47,.62-.68,.85-.96-1.52-.06-3.67,1.35-4.65,4.09-3.01,10.9-.55,11.69,4.49h0Z"/>
      </g>
      <g class="cls-51">
        <path class="cls-44" d="M126.97,846.18c-4.42,2.74-6.67,6.74-6.08,11.98-3.24-1.31-4.03-5.84-2.39-8.74,1.47-2.97,5.46-4.95,8.47-3.24h0Z"/>
      </g>
      <g class="cls-56">
        <path class="cls-32" d="M157.25,845.29c-1.47,.19-2.94-.28-4.07,.65-1.15,1.07-1.78,2.31-3.84,3.25-1.51,.62-3.35,.09-4.2-1.27,.72-.25,1.29-.33,1.72-.62,1.34-.93,1.22-1.81,2.66-3.31,2.32-2.75,6.39-2.1,7.74,1.3h0Z"/>
      </g>
      <g class="cls-56">
        <path class="cls-32" d="M145.08,884.12c-2.63-3.5-4.47-7.27-9.19-7.37-1.4-.11-2.95,.02-4.77,.12,5.74-7.84,16.48-1.82,13.97,7.26h0Z"/>
      </g>
      <g class="cls-51">
        <path class="cls-44" d="M175.84,876.29c-1.57,3.57-6.1,4.2-8.7,1.36-1.67-1.56-1.78-2.87-3.3-3.83-.48-.22-1.17-.28-1.97-.32,.74-1.66,3.05-2.32,4.67-1.43,2.25,1.14,2.91,2.52,4.43,3.64,1.39,.98,2.76,.6,4.87,.59h0Z"/>
      </g>
      <g class="cls-51">
        <path class="cls-44" d="M229.91,861.21c-4.92,8.51-16.73,4.46-18.63-4.22,3.16,1.68,5.8,3.72,9.01,4.69,3.23,1.03,6.15,.36,9.62-.47h0Z"/>
      </g>
      <g class="cls-56">
        <path class="cls-32" d="M195.28,872.06c-2.42-3.33-4.9-5.96-8.08-8.31-2.17-1.51-4.45-3.07-7.1-3.19-.84-.03-1.72,.27-2.6,.97,.17-2.55,3.39-3.82,5.65-3.53,6.76,.68,12.81,7.22,12.12,14.06h0Z"/>
      </g>
      <g>
        <path d="M219.51,944.14c-.91-8.16-3.42-23.96,9.97-20.02,6.14,1.93,10.6,7.52,12.21,13.61,.81,2.93,.98,6.02,1.23,9.04,.48,10.04,.1,25.04,.1,35.2,0,0-.16,8.78-.16,8.78-.05,1.42,.03,3.43-.45,4.8-1.74,5.37-8.44,10.22-14.07,7.74-6.42-3.76-6.05-16.85-6.3-23.48,.94,5.66,1.64,11.62,3.86,16.89,.81,1.82,1.73,3.52,3.5,4.37,3.98,1.29,8.72-2.56,9.78-6.39,.32-1,.17-2.87,.18-3.92,0,0-.13-8.78-.13-8.78-.03-5.83-.11-20.69-.02-26.33,.05-4.4,.04-8.63-.32-12.97-.22-4.04-1.51-8.09-3.99-11.3-2.48-3.37-9.57-8.03-13.02-3.92-1.59,2.16-1.8,5.24-2.04,7.92-.21,2.47-.23,6.23-.34,8.76h0Z"/>
        <g class="cls-50">
          <path class="cls-30" d="M221.35,945.09c-.34-5.24-2.4-14.54,1.6-18.57,4.7-3.65,11.18,1.36,13.66,5.41,2.44,3.67,3.43,8.01,3.74,12.33,.89,11.02,.32,25.68,.34,36.82-.06,2.2-.15,9.17-.23,11.29-.1,5.48-6.93,12.78-12.49,9.24-.55-.36-.95-.87-1.35-1.35-2.48-3.83-2.7-8.47-3.07-12.79-.17-2.73-.21-5.46-.16-8.19,.83,5.3,1.45,10.79,3.17,15.84,1.37,4.09,3.49,6.27,6.97,3.66,.92-.69,1.71-1.6,2.36-2.61,1.43-2.01,1.18-4.62,1.14-6.95-.29-12.46-.11-28.29-.16-40.69-.1-5.08-.29-10.5-2.92-14.98-1.71-3-4.78-5.99-8.31-5.92-4.91,.59-3.83,13.55-4.3,17.45h0Z"/>
        </g>
      </g>
      <g>
        <g>
          <path class="cls-33" d="M201.3,971.1c.37,10.34,1.64,31.76-1.59,34.47-1.74,1.47-4.47,1.39-7.33,.23-6.07-2.46-10.3-9.01-11.05-16.62v-.07c-.38-3.74-.55-7.52-.53-11.29l.2-33.64,.05-8.63c.01-1.86,.67-3.58,1.55-5.11,3.87-6.72,9-7.3,12.72-4.76,4.68,3.19,4.27,21.15,5.07,32.52"/>
          <path d="M201.3,971.1c.48,6.92,3.69,31.14-.69,35.51-2.55,2.23-6.44,1.63-9.15,.47-7.39-3.01-11.48-11-12.09-18.55-1.11-12.19-.22-30.65-.27-43.05,.04-1.72,.12-6.36,.16-8.04,.02-.32,.02-1.69,.04-2.03,.29-4.51,2.86-8.16,6.31-10.85,3.43-2.57,8.97-2.29,11.67,1.19,2.21,3.44,2.36,7.11,2.79,10.91,.53,7.22,.28,14.35,.32,21.51-.92-7.1-1.2-14.29-2.27-21.28-.54-3.16-1.06-7.02-2.92-9.53-2.05-2.12-5.54-2.09-7.77-.27-2.33,1.94-4.56,5.3-4.62,8.38,0,.39,0,1.58,.01,1.99,.1,10.97,.07,29.24-.08,40.2,.15,6.68-.33,14.03,3.07,19.98,1.62,2.83,3.97,5.24,6.87,6.59,2.01,.91,4.35,1.54,6.13,.28,.36-.3,.61-1.12,.79-1.66,.89-3.26,1.05-6.91,1.25-10.34,.37-7.1,.26-14.26,.44-21.41h0Z"/>
        </g>
        <g class="cls-50">
          <path class="cls-31" d="M200.28,971.21c.67,6.8,1.25,13.6,1.45,20.47,.05,3.45,.1,6.86-.47,10.45-.17,1.35-.91,3.5-2.38,4.18-2.34,1.37-5.24,.78-7.51-.28-5.28-2.46-8.4-7.62-9.83-12.99-1.25-5.15-1.24-10.48-1.31-15.73-.04-6.49,.16-23.98,.24-30.7,0,0,.21-10.31,.21-10.31,.5-5.43,5.13-12.39,11.21-11.85,6.77,.71,7,8.51,7.46,13.71,.4,6.89,.15,13.7,.12,20.53-.86-6.78-1.14-13.64-2.08-20.33-.47-3.09-.93-6.7-2.49-9.3-.73-1.08-2.07-1.62-3.29-1.73-2.89-.13-4.95,2.56-6.21,5.02-.73,1.36-1.19,2.76-1.23,4.12l.07,10.16-.02,20.46c-.04,6.93-.37,15.91,.4,22.72,.67,5.25,3.31,10.9,8.08,13.4,1.62,.81,3.29,1.33,4.75,.64,.86-.45,.9-1.21,1.23-2.27,1.8-9.88,1.14-20.3,1.57-30.38h0Z"/>
        </g>
      </g>
      <g>
        <g>
          <path class="cls-33" d="M145.26,934.74c.01-1.86,.67-3.58,1.55-5.11,3.87-6.72,9-7.3,12.72-4.76,4.68,3.19,4.64,36.37,5.44,47.74"/>
          <path d="M145.26,934.74c-.42-4.52,2.36-9.26,6.21-11.66,3.01-1.79,7.53-1.42,9.98,1.24,.95,1.19,1.27,2.24,1.73,3.51,1.01,3.26,1.48,6.65,1.85,9.92,1.18,11.65,.85,23.21-.07,34.85-2.99-14.42-2.46-29.36-5.35-43.71-.24-.83-.62-2.09-1.08-2.61-5.47-4.25-12.21,2.91-13.27,8.46h0Z"/>
        </g>
        <g>
          <path class="cls-33" d="M165.87,986.47c.37,10.34,1.26,15.59-1.96,18.3-1.74,1.47-4.47,1.39-7.33,.23-6.07-2.46-10.3-9.01-11.05-16.62v-.07c-.38-3.74-.14-22.57-.12-26.35"/>
          <path d="M165.87,986.47c.55,3.07,1.01,6.11,1.36,9.22,.28,3.27,.61,7.26-1.92,9.89-1.3,1.51-3.57,2.15-5.48,2.01-5.34-.35-9.91-3.9-12.65-8.22-3.73-5.63-3.85-12.44-3.42-18.92,.26-6.19,.76-12.35,1.65-18.51,.78,6.17,1.15,12.35,1.47,18.49,.08,1.53,.3,5.37,.41,6.85,.32,3.49,1.39,7.03,3.27,9.95,1.48,2.34,3.47,4.33,5.84,5.6,2.36,1.27,5.25,1.89,6.73,.53,1.93-1.7,1.94-5.06,2.15-7.63,.2-3.05,.26-6.17,.59-9.26h0Z"/>
        </g>
      </g>
      <g>
        <g class="cls-50">
          <path class="cls-31" d="M145.84,936.15c-3.79-4.82-.69-12.39,5.04-14.47,3.08-1.15,6.01-.56,8.4,1.12,.23,.15,.24,.21,.79,.54,.83,.56,1.38,1.25,1.69,1.83,1.15,2.14,.78,4.41,.99,6.59,.16,4.32,2.51,8.3,3.85,12.37,.97,4.05,1.71,8.29,1.51,12.41-.55,5.84-2.15,11-5.34,16.2,0,0-1.1,.06-1.1,.06-3.57-5.07-4.81-10.51-5.31-16.37-.12-4.04,.62-8.05,1.36-12.02,1.03-3.79,3.05-8.14,1.6-11.93-.42-1.18-1.26-2.36-2.17-2.76-.4-.21-.88-.04-.42,.56,.24,.17-.07,.13-.16,.16-.35,.06-.73,.13-1.05,.22-1.68,.57-1.59,.13-3.01,.84-1.11,.65-2.68,2.03-3.93,3-.52,.44-1.03,1.02-1.64,1.67h-1.1Z"/>
        </g>
        <g class="cls-50">
          <path class="cls-31" d="M164.35,986.11c4.79,5.97,7.86,18.82-1.6,21.9-3.7,.85-6.13-1.56-8.5-3.66-3.65-3.35-7.68-6.87-9.6-11.6-1.4-4.48-2.26-8.73-2.36-13.28,.07-4.46,.83-8.87,2.34-13.12,.56-1.47,1.15-2.95,2.09-4.43,0,0,1.1,0,1.1,0,2.71,4.09,4.2,8.08,5.34,12.58,1.55,5.38,1,11.27,.47,16.68-.57,3.55-1.07,8.34,2.65,10.38,1.08,.61,2.55,.84,3.29,.32,.63-.4,.23-.96-.3-1-.09-.03-.11,0-.15-.09-.4-.43-.26-.93-.04-2.2,.19-1.09,.37-2.42,.68-3.79,.64-3.03,1.58-5.96,3.49-8.66,0,0,1.1-.03,1.1-.03h0Z"/>
        </g>
      </g>
      <path class="cls-36" d="M113.83,902.87c-9.61-.15-22.04,4.4-26.11,13.72,1.32-10.81,16.6-16.95,26.11-13.72h0Z"/>
      <path class="cls-36" d="M106.62,899.64c-5.43,1.13-10.47,3.02-14.99,6.16-1.43,1.04-2.75,2.21-3.91,3.85,.34-8.08,12.04-13.05,18.89-10.01h0Z"/>
      <path class="cls-36" d="M95.99,985.39c5.26,7.29,18.44,16.45,27.75,14.57-1.14,.91-2.59,1.42-4.07,1.69-9.49,1.36-21.65-6.88-23.68-16.26h0Z"/>
      <path class="cls-36" d="M97.84,993.3c4.89,4.98,15.12,11.19,22.27,9.79-.42,.35-.87,.76-1.39,1.02-7.42,3.54-19.05-3.08-20.87-10.82h0Z"/>
      <g class="cls-54">
        <path class="cls-30" d="M224.67,930.68c.11-1.66,1.93-2.79,3.58-2.49,1.59,.26,2.66,1.13,3.66,2.21,1.62,1.92,2.89,4.58,2.07,7.1-1.8-1.52-3.43-2.78-4.96-4.37-.56-.53-1.23-1.24-1.75-1.79-.61-.71-1.48-.78-2.59-.66h0Z"/>
      </g>
      <g class="cls-52">
        <path class="cls-30" d="M198.96,989.62c1.27,5.62,.85,17.04-7.71,11.47-7.94-6.36-7.69-19.08-6.3-28.25,.09,3.94,.41,7.79,.94,11.66,.74,5.86,2.68,14.07,8.75,16.24,1.83,.58,2.7-.91,3.17-2.52,.78-2.77,1.21-5.66,1.14-8.59h0Z"/>
      </g>
      <g class="cls-50">
        <path class="cls-30" d="M158.51,932.03c-2.33-2.82-5.72-1.46-7.43,1.21-1.16,1.85-1.25,4.04-1.27,6.2,0,8.86,1.03,19.52,.71,28.39-2.15-7.4-3.25-14.99-3.6-22.68,.03-4.4-.54-9.5,2.41-13.19,2.35-2.94,7.48-4.11,9.17,.07h0Z"/>
      </g>
      <g>
        <path class="cls-36" d="M242.22,1028.12c5.53-2.2,20.48-7.78,18.88-15.1-.25-1.17-.89-2.31-1.61-3.46,1.18,.67,2.23,1.63,2.97,2.92,4.41,9.68-12.65,16.83-20.24,15.65h0Z"/>
        <path class="cls-36" d="M243.62,1025.13c5.11-3.65,14.38-6.49,14.93-13.58,.51,.86,.8,1.84,.84,2.88-.35,7.09-9.56,11.05-15.77,10.7h0Z"/>
        <path class="cls-36" d="M244.56,1021.65c1.97-1.59,4.74-3.01,6.87-4.28,2.22-1.41,4.05-2.48,4.8-5.29,.9,1.23,.81,3.15,.02,4.58-2.35,3.99-7.3,5.57-11.69,4.99h0Z"/>
      </g>
      <g>
        <path class="cls-36" d="M147.25,1033.96c-9.3,2.66-23.58,.5-21.09-12.21,2.72,11.41,11.9,9.78,21.09,12.21h0Z"/>
        <path class="cls-36" d="M144.89,1031.5c-6.29,3.17-17.65,.28-17.16-8.11,3.71,6.14,10.8,6.58,17.16,8.11h0Z"/>
        <path class="cls-36" d="M142.66,1028.4c-4.42,3.04-13.61,1.17-12.95-5.31,3.37,4.03,8.33,3.68,12.95,5.31h0Z"/>
      </g>
    </g>
    <g class="cls-53">
      <path class="cls-5" d="M330.69,839.65c1.42,1.99,9.52,1.42,13.63,1.19,3.98-.22,11.11-1.5,12.39-4.89,1.11-2.94-2.71-6.07-7.1-6.74-8.26-1.26-21.27,7.15-18.92,10.44Z"/>
      <path class="cls-5" d="M292.3,864.91c.68,2.21,6.73,3.28,9.79,3.87,2.97,.58,8.44,.75,10-2.28,1.36-2.63-.88-6.43-3.98-7.96-5.84-2.87-16.94,2.7-15.82,6.37Z"/>
      <text/>
      <path class="cls-5" d="M320.14,804.82c.92,.09,2.74-2.17,3.68-3.3,.91-1.1,2.28-3.27,1.61-4.41-.58-.98-2.43-.72-3.69,.28-2.39,1.87-3.13,7.27-1.6,7.42Z"/>
      <path class="cls-5" d="M363.51,827.21c.32,1.17,2.69,1.48,3.89,1.67,1.16,.18,3.27,.05,3.79-1.66,.45-1.48-.52-3.44-1.76-4.13-2.33-1.3-6.45,2.18-5.92,4.12Z"/>
      <path class="cls-5" d="M327.01,867.61c.05,.91,2.61,2.12,3.9,2.75,1.25,.61,3.65,1.42,4.67,.51,.89-.79,.32-2.5-.88-3.48-2.26-1.85-7.79-1.29-7.7,.22Z"/>
    </g>
  </g>
  <text class="cls-9" transform="translate(329.87 221.89)"><tspan x="0" y="0">SÅDAN SPILLER DU</tspan></text>
  <g>
    <path class="cls-12" d="M1430.1,856.16s-7.27-131.1,0-154.57c11.99-38.69,35.44-81.05,52.5-78.64,7.97,1.13,9.57,11.32,24.87,18.98,14.94,7.49,29.9,6.02,35.92,5.42,50.3-4.95,66.73-74.55,107.76-73.22,3.5,.11,13.44,5.5,33.16,16.27,41.57,22.7,62.35,34.05,82.89,51.52,17.26,14.68,32.09,27.3,44.21,48.81,13.42,23.82,16.5,55.07,22.1,116.6,2.71,29.79,4.07,44.68,2.76,48.81h-406.17Z"/>
    <path class="cls-15" d="M1581.68,732.95c-.86,.07-1.61,2.55-2.01,3.8-.39,1.21-.77,3.54,.27,4.51,.9,.84,2.45,.27,3.2-.91,1.41-2.21-.02-7.52-1.46-7.41Z"/>
    <g>
      <g>
        <path class="cls-3" d="M1685.12,295.69c4.3,4.64-16.89,20.59-15.85,46.83,.84,21.28,15.34,24.67,29.54,55.47,16.96,36.8,12.05,66.18,22.33,67.72,9.54,1.42,13.75-23.85,30.26-25.93,15.4-1.94,34.44,17.19,38.18,38.18,2.89,16.23-2.59,37.13-16.57,43.94-28.1,13.69-36.99-15.4-37.46-3.6-.72,18.01-54.03,115.98-158.49,154.16-54.63,19.97-128.42-66.52-139.76-138.32-2.47-15.65,2.28-12.23,5.04-82.12,.72-18.25,1.31-40.26,12.97-65.56,4.23-9.17,6.8-14.75,11.53-20.17,24.54-28.12,71.49-11.02,120.31-18.73,25.69-4.06,60.01-16.25,97.97-51.87Z"/>
        <path class="cls-42" d="M1672.88,312.98c-9.37,1.44-35.24,43.62-92.93,46.83-25.93,1.44-36.24,2.21-59.07-.72-56.19-7.2-70.13,56.52-79.96,43.22-12.25-16.57-12.25-48.27,0-83.57,11.58-33.39,58.35-59.79,131.11-62.67,60.37-2.39,84.63,2.85,102.3,12.25,33.86,18.01,8.79,30.69,23.05,24.49,16.57-7.2,43.22,24.49,46.83,56.19,3.51,30.89,20.91,77.41,5.76,105.18-9.41,17.26-27.72,34.91-38.18,30.98-9.28-3.49-16.57-20.89-13.69-48.99,3.39-33.04-26.28-34.33-33.86-59.07-10.81-35.3,8.64-64.11,8.64-64.11Z"/>
        <rect class="cls-43" x="1488.1" y="445.18" width="24.49" height="26.65" rx="12.25" ry="12.25"/>
        <rect class="cls-43" x="1586.79" y="445.18" width="24.49" height="26.65" rx="12.25" ry="12.25"/>
        <path class="cls-4" d="M1624.61,605.46s-25.63-15.01-25.93-15.13c-16.57-6.48-14.81-8.13-41.06-12.25-36.74-5.76-61.95,12.97-61.95,12.97,0,0,12.29-29.09,28.67-36.05,9.74-4.14,18.48-3.75,26.2-3.41,7.38,.33,14.29-.16,35.45,10.16,26.12,12.74,38.63,43.71,38.63,43.71Z"/>
        <path class="cls-28" d="M1537.44,487.32c-1.72,5.87-5.97,10.81-10.21,15.02-5.06,4.76-4.99,8.59-1.95,14.3,2.54,4.47,7.07,8.45,12.32,8.64,2.29,.05,4.9-1.12,7.82-2.2,5.86-2.22,12.31-3.31,18.61-3.15,4.59,.01,9.13,1.17,13.52,1.6,3.95,.37,6.55-2.45,8.11-6.04,3.73-8.99-3.92-15.87-12.81-15.02-2.86,.3-5.67,1.55-8.04,3.43,6.17-7.67,20.43-6.8,24.4,2.84,2.48,6.49-.1,14.65-6.36,18.22-3.26,1.73-6.94,1.11-10.22,.67-2.98-.42-5.81-.77-8.68-.77-5.76-.05-11.41,.87-16.86,2.87-3.04,1.04-6.12,2.42-9.59,2.3-10.22-.62-18.65-11.44-17.64-21.42,1.38-6.62,8.32-9.37,12.33-14.04,2.05-2.14,3.79-4.58,5.23-7.25h0Z"/>
        <path class="cls-28" d="M1586.43,504.61c10.36,20.33,24.51,24.48,44.38,32.13,2.5,.93,5.86,2.63,7.23,5.35,3.13,5.64,3.29,13.11,.26,18.71,1.12-5.87,.15-11.97-3.28-16.77-1.42-1.88-3.29-2.36-5.68-3.16-19.81-5.82-38.48-13.88-42.9-36.27h0Z"/>
        <path class="cls-28" d="M1526.28,499.92c-2.91,8.58-7.74,17.45-16.19,21.76-3.34,1.75-7.45,2.02-10.97,2.49-4.97,.63-9.73,2.66-14.15,4.87-9.55,4.73-9.85,17.01-9.26,26.45-4.06-10.08-3.8-24.85,6.97-30.6,3.35-1.87,6.58-3.39,10.23-4.49,3.44-1.07,7.4-1.27,10.83-1.62,10.47-1.3,16.79-10.93,22.55-18.86h0Z"/>
        <path class="cls-28" d="M1512.1,614.81c16.97-24.32,52.06-26.99,70.41-2.59,2.28,3.05,4.26,6.37,5.6,9.93-8.28-8.74-18.21-16.13-29.98-18.94-16.26-3.79-32.35,2.38-46.02,11.6h0Z"/>
        <path class="cls-40" d="M1539.97,415.64c-5.51,8.21-16.06,14.06-26.47,12.89-6.05-.43-11.04-4.35-17-4.35-8.63-.31-16.78,3.66-24.96,6.59,4.45-7.02,11.22-12.71,19.34-15.09,5.22-1.59,11.25-1.37,16.33,.66,2.97,1.16,4.85,2.22,7.7,2.84,5.27,1.18,10.72,.56,16.12-.83,2.59-.64,6.34-1.88,8.94-2.7h0Z"/>
        <path class="cls-40" d="M1573.59,414.76c9.08,4.99,18.74,8.88,29.07,8.48,2.82-.08,7.41-.65,10.31-.94,8.1-.97,17.14,1.24,23.32,6.65,6.07,5.1,10.06,11.98,11.96,19.5-5.18-4.86-10.3-9.81-16.41-13.01-4.25-2.23-8.52-3.42-13.2-3.41-5.28-.03-10.76,1.11-16.21,.67-11.8-.66-23.33-7.87-28.85-17.94h0Z"/>
        <g class="cls-55">
          <path class="cls-28" d="M1617.77,470.39c-6.75,16.04-28.31,18.58-37.78,3.61,3.14,2.06,6.31,3.73,9.6,4.79,10.56,3.58,20.41-1,28.18-8.4h0Z"/>
        </g>
        <g class="cls-55">
          <path class="cls-28" d="M1517.31,471.95c-9.71,14.41-31.43,12.68-37.76-3.84,2.67,2.63,5.46,4.89,8.48,6.57,9.62,5.57,20.24,3,29.28-2.73h0Z"/>
        </g>
      </g>
      <g class="cls-56">
        <path class="cls-45" d="M1573.46,578.81c9.67,2.34,19.44,4.76,28.55,8.88,2.23,1.12,4.19,2.52,6.48,3.57,3.24,1.6,6.97,3.14,10.11,5.2,3.18,2.15,6.17,4.32,9.21,6.75,3.79,2.86,9.24,8.37,5.44,13.49-1.28,1.55-2.2,1.76-3.17,2.72-1.26,1.4-1.68,4.28-.78,5.84,.3,.38,.29,.41,1.12,.79,.78,.35,2.39,.82,3.94,1.89,5.42,3.77,7.96,12.91,2.15,17.55-1.9,1.4-4.05,1.94-5.85,2.77-3.25,1.37-5.54,3.12-8.21,5.51-3.14,2.63-6.82,4.93-10.68,6.29-2.57,.91-4.83,1.52-6.91,2.35-3.06,1.19-6.14,2.91-8.82,4.82-2.83,2.29-5.91,5.07-9.22,6.8-2.22,1.29-4.66,2.51-6.95,3.48-1.61,.64-2.8,1.3-3.77,2.72-3.45,5.03-4.46,13.25,1.17,17.08,2.06,1.48,4.95,4.45,3.74,7.63-1.35,2.39-2.54,4.56-2.81,7.26-.61,4.2,3.02,4.73,5.86,6.77,3.79,2.95,.65,7.88-1.95,10.4,1.24-1.92,2.67-4.26,2.51-6.57-.24-2.6-2.73-2.9-4.85-3.79-1.2-.47-2.59-1.26-3.49-2.61-2.37-4.02-.82-8.95,.93-12.8-.35-1.19-1.29-1.62-2.69-2.61-5.24-3.01-7.49-9.31-6.75-15.15,.44-4.31,2.11-8.82,5.36-11.93,3.05-2.56,6.87-3.65,10.03-5.91,3.21-1.9,5.44-4.3,8.35-6.71,3.25-2.49,6.65-4.51,10.45-6.08,4.68-1.92,8.8-2.68,12.73-5.53,3.02-2.07,5.73-5.13,9.11-6.88,2.38-1.5,5.65-2.48,7.96-3.64,.76-1.16-.57-4.13-1.76-4.91-.47-.37-1.24-.66-2.71-1.32-1.62-.66-3.56-2.27-4.42-3.91-3.19-5.84-.63-13.77,5.01-16.6-.3,.5,0,.59-.22,.06-.19-.52-.79-1.36-1.5-2.13-4.09-4.09-8.7-8.06-13.54-11.33-3.02-1.89-6.52-3.71-9.56-5.85-4.79-3.73-10.36-5.93-15.97-8.53-4.36-1.99-9.23-3.91-13.61-5.83h0Z"/>
      </g>
      <g class="cls-56">
        <path class="cls-45" d="M1570.22,578.8c.84-.68,2.78-1.03,3.21-.94,.76,.02,1.44,.1,2.18,.36,1.61,1.77,3.21,3.77,4.29,6.33,.49,1.27,.87,2.14,1.09,3.62,.48,2.54-.71,5.51-1.4,7.49-.11,.37-.12,.58-.13,.7,.03,.09,.03,.06,.06,.03-.02-.02,.05,0,.04,.02,.42,.84,.91,2.03,1.11,2.98,.41,1.93,.57,3.73,.55,5.4,0,.04-.03,.03-.03,.1,.03,.07,.04,.14,.44,.38,6.2,3.84,9.08,12.76,6.58,19.28-1.32-3.9-3.47-7.22-6.16-10.05-2.21-2.44-3.63-2.26-5.91-3.98-1.5-1.14-2.56-3.42-2.71-5.14-.18-1.52-.28-2.97-.53-4.2-.09-.47-.31-.99-.51-1.42-1.01-2.08-.81-4.9,.16-6.83,.85-1.92,1.69-2.78,2.07-4.4,.21-2.89-.38-5.28-1.1-8.43,0,0,.6,.67,.6,.67-.31-.37-.79-.73-1.21-1.01,0,0,0,0-.01,0,.07,.02,.15,.02,.22,.02,0,0-.22-.03-.22-.03-.74-.47-1.64-.81-2.68-.94h0Z"/>
      </g>
    </g>
    <path class="cls-26" d="M1694.13,748.46c6.61,16.29,11.46,33.09,15.87,50.05,4.27,17,8.07,34.06,10.06,51.53-6.63-16.28-11.47-33.08-15.87-50.05-4.26-17-8.06-34.06-10.06-51.53h0Z"/>
    <path class="cls-26" d="M1565.9,803.21c29.3,5.64,57.94,13.65,86.45,22.25,28.46,8.8,56.69,18.18,84.14,29.91-29.3-5.63-57.94-13.63-86.45-22.25-28.46-8.81-56.68-18.2-84.14-29.91h0Z"/>
    <g>
      <g>
        <path class="cls-2" d="M1361.35,620.65c2.23,2.5-2.23,8.5-.03,11.41,1.33,1.76,4.4,.71,5.4,1.24,8.43,4.54,25.72,24.17,19.95,66.06-1.68,12.19-6.17,43.2-4.77,48.06,13.77,47.77,27.29,76.29,45.6,110.65,31.09-.07,62.18-.11,93.26-.13,2.96-3.57,5.08-7.12,6.03-10.48,2.49-8.88-.21-17.07-6.18-31.76-36.58-89.92-39.41-96.57-55.11-114.41-12.21-13.86-16.39-10.02-32.28-26.25-27-27.58-37.43-55.75-32.86-60.13,.77-.74,2.13-.96,2.38-2.06,.74-3.33-10.5-7.05-9.75-9.55,.42-1.39,3.25-2.91,3.81-4.43,.66-1.81-1.12-8.37-7.1-5.24-12.43,6.5-24.98,13.87-32.02,18.36-1.46,.93-3.78,4.49-2.96,6.43,1.13,2.66,4.97,.37,6.63,2.23Z"/>
        <path class="cls-13" d="M1484.84,849.68h0c-18.74,12-32.46,10.85-44.94-13.13l-24.13-45.93c-12.48-23.97-14.77-53.99,3.97-65.98h0c18.74-12,36.44,1.56,48.92,25.53l16.43,40.96c12.48,23.97,18.49,46.55-.25,58.55Z"/>
        <path class="cls-34" d="M1476.82,834.98h0c-10.97,7.03-19.76,4.91-29.48-13.77l-18.77-35.8c-9.72-18.68-13.44-40.82-2.47-47.84h0c10.97-7.03,23.22,4.52,32.94,23.2l13.51,31.46c9.72,18.68,15.24,35.73,4.26,42.76Z"/>
      </g>
      <path class="cls-17" d="M1359.68,621.95c8.86-4.85,24.65-14.44,33.5-19.29"/>
      <path class="cls-17" d="M1364.19,633.2c9.61-4.85,26.83-14.59,36.44-19.44"/>
    </g>
    <g>
      <g>
        <path class="cls-18" d="M1386.18,800.62c2.21,.37,3.43,.49,5.62,0,2.19-.49,5.1-3.1,6.01-.96,.79,1.86-.26,3.94-.89,5.87-1.83,5.63,.48,12.42,5.3,15.59,1.58,1.04,3.17,1.67,4.12,3.35,1.31,2.31,.28,4-.72,6.48-2.3,5.7,1.9,15.14,7.35,17.34,3.45,1.39,9.38,.03,14.98-1.49-.72,1.37-3.22,7.26-.84,11.28h.04c32.36-.08,64.72-.11,97.07-.13h0c11.24-.65,22.96-1.39,32.68-1.78,5.48-14.87,4.69-30.64,7.32-46.33,.23-1.34,.43-2.77-.06-4.04-.5-1.27-1.62-2.14-2.72-2.91-11.13-7.83-24.44-11.91-35.31-20.12-4.24-3.21-8.06-7-12.4-10.08-6.82-4.84-14.71-7.75-22.5-10.58-7.74-2.81-15.49-5.59-23.24-8.35-9.6-3.41-19.8-6.82-29.7-4.56-5.85,1.33-11.12,4.56-16.27,7.73-11.31,6.97-22.64,13.95-33.25,22.02-3.36,2.55-6.81,5.46-8.13,9.57-1.31,4.11,1.44,11.44,5.55,12.12Z"/>
        <path class="cls-29" d="M1385.78,802.07c3.15,.51,5.89,.43,8.8-.95,.45-.21,.9-.45,1.37-.62,.19-.07,.41-.16,.61-.17-.37,.02,.02-.48-.07,.13-.04,.31,.1,.72,.06,1.06-.04,.37-.13,.72-.23,1.07-.27,.97-.68,1.9-.97,2.87-1.53,5.24,.07,11.32,3.92,15.18,.95,.95,2.04,1.7,3.19,2.39,1.29,.78,2.79,1.68,2.97,3.34,.16,1.42-.78,2.88-1.27,4.17-.43,1.12-.64,2.31-.69,3.51-.21,4.91,2.14,10.39,5.83,13.64,5.28,4.65,13,2.18,19.04,.55l-1.69-2.2c-1.96,3.82-3.02,8.86-.84,12.79,.25,.46,.78,.74,1.3,.74,17.19,0,34.37-.07,51.56-.09,8.71-.01,17.42-.02,26.14-.02,8.39,0,16.77,.15,25.14-.35,8.98-.53,17.96-1.08,26.95-1.45,.71-.03,1.21-.45,1.45-1.1,3.37-9.25,4.43-19.06,5.32-28.81,.45-4.92,.86-9.84,1.57-14.73,.32-2.22,1.04-4.62,.59-6.86-.41-2.07-1.99-3.42-3.62-4.59-7.44-5.27-15.9-8.81-23.92-13.06-4.1-2.17-8.13-4.54-11.81-7.38s-7.22-6.24-11.06-9.09c-7.65-5.69-16.76-8.86-25.64-12.07-9.63-3.49-19.23-7.24-29.02-10.25-4.75-1.46-9.66-2.59-14.65-2.75s-9.41,.76-13.8,2.61-8.28,4.33-12.26,6.78c-4.24,2.61-8.48,5.24-12.68,7.92-4.27,2.73-8.5,5.52-12.64,8.44-3.71,2.62-7.62,5.22-10.9,8.38-2.64,2.54-4.99,5.88-5.02,9.67-.02,3.21,1.17,6.63,3.3,9.04,.96,1.09,2.24,1.96,3.68,2.25,1.89,.37,2.69-2.52,.8-2.89-2.71-.54-4.05-3.85-4.56-6.25-.73-3.45,.75-6.38,3.1-8.87,2.95-3.12,6.66-5.57,10.14-8.05,3.87-2.75,7.82-5.4,11.81-7.97s7.88-5,11.86-7.45c3.85-2.38,7.67-4.87,11.71-6.92s8.35-3.47,12.92-3.67,9.36,.65,13.88,1.9,8.97,2.88,13.4,4.46c4.65,1.66,9.3,3.33,13.95,5,8.55,3.09,17.39,5.89,25.19,10.65,3.92,2.39,7.34,5.39,10.83,8.35s6.88,5.5,10.67,7.79c7.36,4.43,15.32,7.74,22.79,11.99,1.88,1.07,3.73,2.2,5.52,3.42,1.69,1.15,3.26,2.18,3.16,4.43s-.66,4.51-.95,6.74-.55,4.66-.77,6.99c-.89,9.16-1.45,18.41-3.72,27.37-.57,2.26-1.26,4.49-2.06,6.68l1.45-1.1c-7.95,.33-15.9,.8-23.84,1.26-4.03,.24-8.04,.52-12.08,.52-4.31,0-8.63,0-12.94,0-17.34,.01-34.68,.03-52.02,.06-9.64,.02-19.27,.06-28.91,.06l1.3,.74c-1.62-2.93-.61-6.94,.84-9.76,.59-1.14-.38-2.56-1.69-2.2-3.31,.89-6.71,1.84-10.15,2-2.51,.11-4.58-.41-6.41-2.18-3.15-3.06-5.43-8.49-4.24-12.88,.77-2.85,2.54-5.18,1.09-8.17-1.34-2.76-4.38-3.53-6.43-5.58-1.89-1.89-3.09-4.45-3.49-7.09-.19-1.24-.19-2.55,.02-3.79,.26-1.55,.95-2.96,1.34-4.47,.74-2.8-.22-6.7-3.86-5.66-1.31,.37-2.44,1.2-3.75,1.58-1.68,.49-3.39,.35-5.1,.07-1.89-.31-2.7,2.58-.8,2.89Z"/>
      </g>
      <path class="cls-29" d="M1397.27,799.61c2.78-.64,5.26-1.83,7.79-3.12,3.77-1.93,7.53-3.86,11.3-5.78,7.53-3.86,15.07-7.71,22.6-11.57,1.29-.66,.15-2.6-1.14-1.94-7.39,3.78-14.77,7.56-22.16,11.34-3.69,1.89-7.39,3.78-11.08,5.67-2.58,1.32-5.07,2.58-7.91,3.24-1.41,.33-.81,2.49,.6,2.17h0Z"/>
      <path class="cls-29" d="M1407.91,825.64c7.08-2.09,13.42-5.92,19.5-10.02,6.58-4.43,13.1-8.96,19.65-13.45,1.58-1.08,.08-3.69-1.51-2.59-6.43,4.4-12.83,8.84-19.28,13.2-5.98,4.04-12.18,7.9-19.15,9.96-1.85,.55-1.06,3.44,.8,2.89h0Z"/>
      <path class="cls-29" d="M1427.52,847.88c2.32-.4,4.3-1.58,6.39-2.6,2.48-1.21,4.94-2.43,7.35-3.78,4.81-2.69,9.5-5.6,14.11-8.6,1.21-.79,.08-2.74-1.14-1.94-4.49,2.92-9.04,5.74-13.7,8.37-2.28,1.28-4.59,2.51-6.95,3.63-2.18,1.04-4.25,2.34-6.66,2.76-1.42,.24-.82,2.41,.6,2.17h0Z"/>
    </g>
    <path class="cls-26" d="M1565.91,802.86c2.12,9.25,1.72,18.73,.47,28.03-1.41,9.27-3.67,18.5-8.37,26.75,.09-9.4,1.16-18.4,2.43-27.61,1.38-9.19,2.86-18.15,5.47-27.18h0Z"/>
    <path class="cls-15" d="M1587.35,737.98c-.72,.69-.07,5.46,.24,7.87,.3,2.34,1.18,6.58,2.6,7.55,1.23,.85,2.28-1.18,2.32-3.69,.07-4.73-3.97-12.88-5.16-11.73Z"/>
    <path class="cls-15" d="M1582.72,748.47c-.88,.23-1.67,3.6-2.09,5.3-.41,1.65-.82,4.75,.23,5.85,.91,.96,2.5-.04,3.27-1.7,1.46-3.12,.05-9.83-1.41-9.45Z"/>
  </g>
  <g>
    <g>
      <rect class="cls-49" x="703.43" y="745.45" width="106.98" height="29.99" transform="translate(-90.33 1418.75) rotate(-82.98)"/>
      <path d="M749.88,707.2l26.79,3.3-12.71,103.2-26.79-3.3,12.71-103.2m-2.61-3.34l-13.44,109.15,32.75,4.03,13.44-109.15-32.75-4.03h0Z"/>
    </g>
    <g>
      <path class="cls-39" d="M687.3,1012.61l-22.16-71.33c-6.39-20.57-6.62-44.74-.64-68.08,6.12-23.88,18.18-44.18,33.95-57.15,11.37-9.35,20.31-11.27,30.22-11.27,4.74,0,9.86,.45,15.78,.96,1.64,.14,3.35,.29,5.11,.44,2.84,.35,5.76,.62,8.58,.88,13.37,1.24,25.99,2.4,36.19,12.63,34.68,34.77,41.9,90.41,17.55,135.31l-37.03,68.39-87.56-10.78Z"/>
      <path d="M728.68,806.28c4.67,0,9.76,.44,15.65,.96,1.63,.14,3.31,.29,5.06,.43,2.91,.36,5.81,.63,8.62,.89,13.09,1.21,25.45,2.35,35.26,12.19,16.53,16.58,27.34,39.01,30.43,63.17,3.08,24.08-1.58,49.07-13.14,70.37l-36.54,67.49-85.58-10.54-21.87-70.41c-6.31-20.31-6.53-44.19-.62-67.26,6.04-23.57,17.92-43.59,33.45-56.37,11.06-9.1,19.4-10.93,29.27-10.93h0m0-3c-10.93,0-19.91,2.35-31.17,11.61-33.68,27.69-46.93,84.53-33.79,126.83l22.45,72.26,89.53,11.03,37.51-69.29c24.43-45.03,17.44-101.74-17.81-137.08-12.8-12.83-29.06-11.89-45.7-13.94-8.13-.67-14.88-1.41-21.02-1.41h0Z"/>
    </g>
    <g>
      <path class="cls-58" d="M779.26,714.57c-.12,0-.24,0-.36-.02l-32.62-4.02c-.77-.1-1.46-.49-1.94-1.1-.48-.61-.69-1.38-.6-2.15l.21-1.69c.18-1.46,1.42-2.56,2.89-2.56,.12,0,.24,0,.36,.02l32.62,4.02c.77,.1,1.46,.49,1.94,1.1,.48,.61,.69,1.38,.6,2.15l-.21,1.69c-.18,1.46-1.42,2.56-2.89,2.56Z"/>
      <path d="M746.84,704.52c.06,0,.12,0,.18,.01l32.62,4.02c.78,.1,1.33,.8,1.23,1.58l-.21,1.69c-.09,.71-.69,1.24-1.4,1.24-.06,0-.12,0-.18-.01l-32.62-4.02c-.51-.06-.81-.36-.94-.53-.13-.17-.35-.54-.29-1.04l.21-1.69c.09-.71,.69-1.24,1.4-1.24m0-3c-2.2,0-4.1,1.64-4.38,3.88l-.21,1.69c-.3,2.42,1.42,4.63,3.84,4.92l32.62,4.02c.18,.02,.37,.03,.55,.03,2.2,0,4.1-1.64,4.38-3.88l.21-1.69c.3-2.42-1.42-4.63-3.84-4.92l-32.62-4.02c-.18-.02-.37-.03-.55-.03h0Z"/>
    </g>
    <g>
      <rect class="cls-38" x="735.52" y="800.92" width="26.18" height="54.07" rx="10.97" ry="10.97" transform="translate(-164.63 1469.76) rotate(-82.98)"/>
      <path class="cls-60" d="M732.91,818.92h0c.2,0,.41,.01,.62,.04l31.89,3.93c2.72,.33,4.66,2.82,4.32,5.54l-.52,4.21c-.31,2.49-2.42,4.36-4.92,4.36-.21,0-.41-.01-.62-.04l-31.89-3.93c-1.32-.16-2.49-.83-3.31-1.87-.82-1.05-1.18-2.35-1.02-3.67l.52-4.21c.31-2.49,2.42-4.36,4.92-4.36m0-6c-5.46,0-10.19,4.07-10.87,9.63l-.52,4.21c-.74,6.01,3.53,11.49,9.55,12.23l31.89,3.93c.46,.06,.91,.08,1.35,.08,5.46,0,10.19-4.07,10.87-9.63l.52-4.21c.74-6.01-3.53-11.49-9.55-12.23l-31.89-3.93c-.46-.06-.91-.08-1.35-.08h0Z"/>
    </g>
    <path class="cls-25" d="M675.01,971.97c16.95,12.38,37.87,15.56,58.28,17.75,9.98,.94,20.69,2.22,30.67,1.73,10.04-.5,20.24-3.3,30.66-4.75-4.83,2.1-9.71,3.97-14.67,5.74-4.97,1.7-10.14,3.22-15.52,3.9-10.57,1.4-21.27,.44-31.79-.69-20.58-2.39-43.29-7.46-57.63-23.68h0Z"/>
    <g class="cls-47">
      <rect class="cls-40" x="710.24" y="866.51" width="63.64" height="84.26" rx="26.67" ry="26.67" transform="translate(116.61 -83.88) rotate(7.02)"/>
      <path class="cls-40" d="M763.26,969.27l-54.65-6.73c-7.19-.89-13.09-6.09-14.77-13.05l-9.81-40.47c-2.75-11.35,6.56-21.99,18.34-20.96l81.94,7.2c11.78,1.03,19.12,13.15,14.45,23.85l-17.48,40c-3.04,6.96-10.38,11.1-18.01,10.16Z"/>
    </g>
    <g>
      <rect class="cls-34" x="713.91" y="875.31" width="55.93" height="75.1" rx="23.44" ry="23.44" transform="translate(117.13 -83.83) rotate(7.02)"/>
      <path class="cls-34" d="M760.42,966.87l-48.03-5.91c-6.32-.78-11.49-5.41-12.97-11.6l-8.56-36.05c-2.4-10.11,5.8-19.61,16.15-18.7l72.01,6.29c10.36,.9,16.79,11.69,12.66,21.23l-15.42,35.68c-2.68,6.21-9.14,9.9-15.85,9.08Z"/>
    </g>
    <text class="cls-14" transform="translate(700 923.1) rotate(7.02) scale(1.11 1)"><tspan x="0" y="0">cognac</tspan></text>
    <g>
      <rect class="cls-59" x="741.78" y="805.94" width="13.81" height="43.84" rx="5.79" ry="5.79" transform="translate(-164.47 1469.76) rotate(-82.98)"/>
      <path class="cls-57" d="M733,825.02l31.6,3.89-.22,1.8-31.61-3.89,.22-1.8m-.19-6.02c-2.88,0-5.38,2.15-5.74,5.08l-.27,2.22c-.39,3.17,1.86,6.06,5.04,6.45l32.03,3.94c.24,.03,.48,.04,.71,.04,2.88,0,5.38-2.15,5.74-5.08l.27-2.22c.39-3.17-1.86-6.06-5.04-6.45l-32.03-3.94c-.24-.03-.48-.04-.71-.04h0Z"/>
    </g>
  </g>
  <g>
    <g>
      <path class="cls-11" d="M693.48,411.39l27.27,190.57c3.39,4.45,22.5,8.99,22.5,8.99,14.28,2.81,42.85,5.06,79.2,2.25,0,0,9.52-1.12,12.12-7.87l14.28-199h0c-50.58-13.2-104.62-11.58-154.07,4.63l-1.3,.43Z"/>
      <path class="cls-11" d="M848.85,406.34c-14.71,17.65-41.98,25.71-74.01,26.09-31.3,.38-64.92-1.92-81.36-21.1"/>
    </g>
    <g>
      <g>
        <path class="cls-10" d="M704.74,455.24l23.27,138.91c2.89,3.24,19.21,6.56,19.21,6.56,12.19,2.05,36.56,3.69,67.59,1.64,0,0,8.13-.82,10.34-5.74l12.19-145.06h0c-43.16-9.62-89.28-8.44-131.48,3.38l-1.11,.31Z"/>
        <path class="cls-10" d="M837.33,451.55c-12.56,12.87-35.83,18.74-63.16,19.02-26.71,.27-55.4-1.4-69.43-15.38"/>
      </g>
      <path class="cls-1" d="M728.05,594.87c10.15-7.34,33.64-9.96,48.5-9.63,15.1,.33,32.71,1.38,48.5,11.47"/>
    </g>
    <g class="cls-55">
      <path class="cls-41" d="M714.85,459.19c1.46-2.82,4.16-4.87,7.27-5.51-1.45,2.82-4.16,4.86-7.27,5.51h0Z"/>
    </g>
    <g class="cls-55">
      <path class="cls-41" d="M718.69,462c3.6-4.53,8.27-8.16,13.56-10.51-3.59,4.53-8.28,8.15-13.56,10.51h0Z"/>
    </g>
    <g class="cls-55">
      <path class="cls-41" d="M723.48,464.5c5.07-6.07,11.18-11.25,18.03-15.22-5.06,6.08-11.19,11.24-18.03,15.22h0Z"/>
    </g>
    <g class="cls-55">
      <path class="cls-41" d="M730.94,466.85c6.67-7.86,14.39-14.84,22.9-20.66-6.67,7.87-14.39,14.83-22.9,20.66h0Z"/>
    </g>
    <g class="cls-55">
      <path class="cls-41" d="M739.07,468.25c7.04-8.32,15.12-15.76,24.02-22.05-7.03,8.33-15.13,15.75-24.02,22.05h0Z"/>
    </g>
    <g class="cls-55">
      <path class="cls-41" d="M768.56,469.94c7.8-8.9,16.61-16.89,26.25-23.75-7.79,8.91-16.62,16.88-26.25,23.75h0Z"/>
    </g>
    <g class="cls-55">
      <path class="cls-41" d="M756.43,469.91c7.41-8.87,15.87-16.85,25.17-23.71-7.4,8.87-15.88,16.84-25.17,23.71h0Z"/>
    </g>
    <g class="cls-55">
      <path class="cls-41" d="M746.35,469.11c7.71-8.77,16.44-16.63,25.99-23.35-7.7,8.78-16.45,16.62-25.99,23.35h0Z"/>
    </g>
    <g class="cls-55">
      <path class="cls-41" d="M777.57,469.91c7.43-8.59,15.89-16.28,25.17-22.83-7.42,8.6-15.9,16.27-25.17,22.83h0Z"/>
    </g>
    <g class="cls-55">
      <path class="cls-41" d="M788.25,469.01c6.95-8.14,14.94-15.39,23.74-21.49-6.95,8.15-14.95,15.38-23.74,21.49h0Z"/>
    </g>
    <g class="cls-55">
      <path class="cls-41" d="M799.11,467.94c5.97-7.33,12.99-13.79,20.81-19.1-5.96,7.34-13,13.78-20.81,19.1h0Z"/>
    </g>
    <g class="cls-55">
      <path class="cls-41" d="M812.47,464.76c3.96-5.79,9.06-10.78,14.94-14.6-3.96,5.8-9.06,10.77-14.94,14.6h0Z"/>
    </g>
    <g class="cls-55">
      <path class="cls-41" d="M823.78,459.64c1.95-3.64,5.12-6.55,8.92-8.16-1.94,3.64-5.13,6.54-8.92,8.16h0Z"/>
    </g>
    <g class="cls-55">
      <path class="cls-27" d="M780.29,454.13c1.46-2.82,4.16-4.87,7.27-5.51-1.45,2.82-4.16,4.86-7.27,5.51h0Z"/>
    </g>
    <g class="cls-55">
      <path class="cls-27" d="M807.17,464.7c1.46-2.82,4.16-4.87,7.27-5.51-1.45,2.82-4.16,4.86-7.27,5.51h0Z"/>
    </g>
    <g class="cls-55">
      <path class="cls-27" d="M745.49,466.46c2.69-4.06,6.53-7.3,11-9.25-2.68,4.06-6.54,7.3-11,9.25h0Z"/>
    </g>
    <g class="cls-55">
      <path class="cls-27" d="M732.25,462.94c4.58-5.93,10.23-11,16.64-14.87-4.57,5.93-10.24,10.99-16.64,14.87h0Z"/>
    </g>
    <g class="cls-55">
      <path class="cls-27" d="M717.01,461.45c2.45-4.1,6.09-7.45,10.39-9.53-2.44,4.11-6.09,7.45-10.39,9.53h0Z"/>
    </g>
    <g class="cls-55">
      <path class="cls-27" d="M785.34,467.59c2.45-4.1,6.09-7.45,10.39-9.53-2.44,4.11-6.09,7.45-10.39,9.53h0Z"/>
    </g>
    <g class="cls-55">
      <path class="cls-46" d="M794.81,512.06c13.38-5.81,23.7-16.26,32.65-27.46,2.89-3.76,5.14-7.93,7.18-12.23,2.68-5.79,4.87-11.85,6.87-18.02-.79,6.45-2.37,12.82-4.72,18.94-3.34,9.38-9.71,17.27-16.8,24.1-7.04,6.77-15.59,12.53-25.18,14.68h0Z"/>
    </g>
    <g class="cls-55">
      <path class="cls-37" d="M787.98,527.26c14.4-5.07,27.03-13.87,37.76-24.57,6.18-6.69,10.28-14.86,13.78-23.31-2.24,12.24-8.54,23.95-18.46,31.7-9.39,8-20.75,14.44-33.07,16.19h0Z"/>
    </g>
  </g>
  <polyline class="cls-16" points="796.08 920.78 833.63 971.78 912.58 857.6"/>
  <g class="cls-48">
    <path class="cls-35" d="M671.09,446c24.82,21,47.92,43.75,70.61,66.96,22.55,23.35,44.62,47.1,64.87,72.54-24.83-20.99-47.93-43.74-70.61-66.96-22.54-23.36-44.6-47.11-64.87-72.54h0Z"/>
    <path class="cls-35" d="M808.83,448.39c-21,24.82-43.75,47.92-66.96,70.61-23.35,22.55-47.1,44.62-72.54,64.87,20.99-24.83,43.74-47.93,66.96-70.61,23.36-22.54,47.11-44.6,72.54-64.87h0Z"/>
  </g>
  <text transform="translate(124.32 311.08)"><tspan class="cls-22"><tspan x="0" y="0">FÅ DEN UBEHAGELIGT FULDE </tspan></tspan><tspan class="cls-22"><tspan x="0" y="43">BODEGAGÆNGER SIKKERT HJEM</tspan></tspan><tspan class="cls-23"><tspan x="0" y="126">Klik ikke på vandglassene. </tspan></tspan><tspan class="cls-23"><tspan x="0" y="168">Lad dem falde til bunden </tspan></tspan><tspan class="cls-23"><tspan x="0" y="210">af skærmen, for at gøre </tspan></tspan><tspan class="cls-23"><tspan x="0" y="252">bodegagængeren mere </tspan></tspan><tspan class="cls-23"><tspan x="0" y="294">ædru.</tspan></tspan><tspan class="cls-23"><tspan x="0" y="420">Klik al alkohol væk, så han</tspan></tspan><tspan><tspan class="cls-23" x="0" y="462">ikke bliver endnu fuldere.</tspan><tspan class="cls-20" x="519.47" y="462"> </tspan></tspan><tspan class="cls-21"><tspan x="0" y="510" xml:space="preserve">  </tspan></tspan></text>
  <text class="cls-24"><tspan x="871" y="516.2">INGEN KLIK = +1 POINT</tspan><tspan x="871" y="557.2">KLIK = -1 LIV</tspan></text>
  <text class="cls-24"><tspan x="305.64" y="990.15">KLIK = +1 POINT</tspan><tspan x="305.64" y="1031.15">INGEN KLIK = -3 POINTS</tspan></text>
  <text class="cls-24"><tspan x="867.76" y="988.15">KLIK = +1 POINT</tspan><tspan x="867.76" y="1029.15">INGEN KLIK = -1 LIV</tspan></text>
</svg>