<?xml version="1.0" encoding="UTF-8"?>
<svg id="Layer_1" data-name="Layer 1" xmlns="http://www.w3.org/2000/svg" xmlns:xlink="http://www.w3.org/1999/xlink" viewBox="0 0 1921.33 1084.5">
  <defs>
    <style>
      .cls-1, .cls-2, .cls-3, .cls-4, .cls-5, .cls-6, .cls-7, .cls-8, .cls-9, .cls-10, .cls-11, .cls-12, .cls-13, .cls-14, .cls-15, .cls-16, .cls-17, .cls-18, .cls-19, .cls-20, .cls-21, .cls-22, .cls-23, .cls-24, .cls-25, .cls-26, .cls-27, .cls-28, .cls-29, .cls-30, .cls-31 {
        stroke-miterlimit: 10;
      }

      .cls-1, .cls-2, .cls-16, .cls-17, .cls-30, .cls-31 {
        fill: none;
      }

      .cls-1, .cls-2, .cls-20, .cls-21, .cls-22, .cls-23, .cls-24 {
        stroke-width: 3px;
      }

      .cls-1, .cls-21, .cls-22, .cls-25, .cls-30 {
        stroke: #000;
      }

      .cls-2 {
        stroke: #292927;
      }

      .cls-32 {
        fill: url(#linear-gradient);
      }

      .cls-3 {
        stroke: url(#radial-gradient);
      }

      .cls-3, .cls-4, .cls-5, .cls-6 {
        stroke-width: 4px;
      }

      .cls-3, .cls-4, .cls-5, .cls-6, .cls-33, .cls-34, .cls-35, .cls-36, .cls-37, .cls-11, .cls-12, .cls-13, .cls-26, .cls-27, .cls-28, .cls-29, .cls-38 {
        isolation: isolate;
      }

      .cls-3, .cls-4, .cls-5, .cls-6, .cls-39 {
        opacity: .5;
      }

      .cls-3, .cls-4, .cls-5, .cls-6, .cls-20 {
        fill: #603813;
      }

      .cls-4 {
        stroke: url(#radial-gradient-2);
      }

      .cls-5 {
        stroke: url(#radial-gradient-4);
      }

      .cls-6 {
        stroke: url(#radial-gradient-3);
      }

      .cls-40 {
        fill: #003b10;
      }

      .cls-41, .cls-14 {
        fill: #fbb03b;
      }

      .cls-42 {
        fill: #93278f;
      }

      .cls-43 {
        fill: #736357;
      }

      .cls-44 {
        fill: #333;
      }

      .cls-45 {
        fill: #c7b299;
      }

      .cls-46 {
        fill: #c69c6d;
      }

      .cls-47 {
        fill: #25140b;
      }

      .cls-48, .cls-9 {
        fill: #42210b;
      }

      .cls-49, .cls-15 {
        fill: #534741;
      }

      .cls-50 {
        fill: #4d4d4d;
      }

      .cls-7 {
        fill: url(#linear-gradient-4);
      }

      .cls-7, .cls-8, .cls-9, .cls-11, .cls-12, .cls-13, .cls-16, .cls-17, .cls-26, .cls-27, .cls-28 {
        stroke-width: 2px;
      }

      .cls-7, .cls-8, .cls-13, .cls-27 {
        stroke: #1b1425;
      }

      .cls-8 {
        fill: url(#linear-gradient-2);
      }

      .cls-33 {
        opacity: .18;
      }

      .cls-33, .cls-34 {
        fill: #3d3746;
      }

      .cls-34 {
        opacity: .26;
      }

      .cls-9, .cls-12, .cls-16, .cls-28 {
        stroke: #21140b;
      }

      .cls-35 {
        fill: #6e6a75;
        opacity: .17;
      }

      .cls-10, .cls-17, .cls-20 {
        stroke: #42210b;
      }

      .cls-10, .cls-29 {
        fill: #1b1425;
        stroke-width: 31px;
      }

      .cls-36 {
        opacity: .73;
      }

      .cls-36, .cls-37, .cls-22 {
        fill: #fff;
      }

      .cls-37 {
        opacity: .35;
      }

      .cls-11, .cls-12, .cls-13 {
        opacity: .41;
      }

      .cls-11, .cls-26 {
        stroke: #4d4d4d;
      }

      .cls-14 {
        stroke: #fbb03b;
      }

      .cls-14, .cls-15, .cls-18, .cls-19, .cls-25, .cls-30 {
        stroke-width: 7px;
      }

      .cls-15 {
        stroke: #534741;
      }

      .cls-18 {
        fill: #1b147c;
      }

      .cls-18, .cls-19 {
        stroke: #1b1464;
      }

      .cls-19 {
        fill: #2e3192;
      }

      .cls-51 {
        fill: url(#linear-gradient-3);
      }

      .cls-52 {
        opacity: .14;
      }

      .cls-53, .cls-38 {
        opacity: .6;
      }

      .cls-21 {
        fill: #1a0f0b;
      }

      .cls-23 {
        fill: #009245;
      }

      .cls-23, .cls-24 {
        stroke: #006837;
      }

      .cls-24 {
        fill: #006837;
      }

      .cls-26, .cls-27, .cls-28 {
        opacity: .2;
      }

      .cls-29 {
        opacity: .71;
        stroke: #25140b;
      }

      .cls-31 {
        stroke: #f15a24;
        stroke-width: .25px;
      }
    </style>
    <radialGradient id="radial-gradient" cx="1504.58" cy="-255.16" fx="1504.58" fy="-255.16" r="62.77" gradientTransform="translate(-1600.39 277.06) scale(2.01 -1.99)" gradientUnits="userSpaceOnUse">
      <stop offset="0" stop-color="#fff"/>
      <stop offset=".09" stop-color="#ffecd8"/>
      <stop offset=".21" stop-color="#ffd4a7"/>
      <stop offset=".33" stop-color="#ffc07d"/>
      <stop offset=".46" stop-color="#ffb05a"/>
      <stop offset=".59" stop-color="#ffa340"/>
      <stop offset=".72" stop-color="#ff9a2d"/>
      <stop offset=".86" stop-color="#ff9421"/>
      <stop offset="1" stop-color="#ff931e"/>
    </radialGradient>
    <radialGradient id="radial-gradient-2" cx="1431.61" cy="-123.33" fx="1431.61" fy="-123.33" r="62.77" gradientTransform="translate(0 644.48) scale(1 -1)" gradientUnits="userSpaceOnUse">
      <stop offset="0" stop-color="#fff"/>
      <stop offset=".09" stop-color="#ffecd8"/>
      <stop offset=".21" stop-color="#ffd4a7"/>
      <stop offset=".33" stop-color="#ffc07d"/>
      <stop offset=".46" stop-color="#ffb05a"/>
      <stop offset=".59" stop-color="#ffa340"/>
      <stop offset=".72" stop-color="#ff9a2d"/>
      <stop offset=".86" stop-color="#ff9421"/>
      <stop offset="1" stop-color="#ff931e"/>
    </radialGradient>
    <radialGradient id="radial-gradient-3" cx="1186.61" cy="-123.33" fx="1186.61" fy="-123.33" r="62.77" gradientTransform="translate(0 644.48) scale(1 -1)" gradientUnits="userSpaceOnUse">
      <stop offset="0" stop-color="#fff"/>
      <stop offset=".09" stop-color="#ffecd8"/>
      <stop offset=".21" stop-color="#ffd4a7"/>
      <stop offset=".33" stop-color="#ffc07d"/>
      <stop offset=".46" stop-color="#ffb05a"/>
      <stop offset=".59" stop-color="#ffa340"/>
      <stop offset=".72" stop-color="#ff9a2d"/>
      <stop offset=".86" stop-color="#ff9421"/>
      <stop offset="1" stop-color="#ff931e"/>
    </radialGradient>
    <radialGradient id="radial-gradient-4" cx="1064.74" cy="-123.72" fx="1064.74" fy="-123.72" r="62.77" gradientTransform="translate(0 644.48) scale(1 -1)" gradientUnits="userSpaceOnUse">
      <stop offset="0" stop-color="#fff"/>
      <stop offset=".09" stop-color="#ffecd8"/>
      <stop offset=".21" stop-color="#ffd4a7"/>
      <stop offset=".33" stop-color="#ffc07d"/>
      <stop offset=".46" stop-color="#ffb05a"/>
      <stop offset=".59" stop-color="#ffa340"/>
      <stop offset=".72" stop-color="#ff9a2d"/>
      <stop offset=".86" stop-color="#ff9421"/>
      <stop offset="1" stop-color="#ff931e"/>
    </radialGradient>
    <linearGradient id="linear-gradient" x1="-239.48" y1="45.72" x2="-126.77" y2="45.72" gradientTransform="translate(1289.79 1185.97) rotate(146.81) scale(2.46 -.96) skewX(44.34)" gradientUnits="userSpaceOnUse">
      <stop offset="0" stop-color="#fff"/>
      <stop offset="1" stop-color="#000"/>
    </linearGradient>
    <linearGradient id="linear-gradient-2" x1="1501.9" y1="-114.52" x2="1693.54" y2="-114.52" gradientTransform="translate(0 644.48) scale(1 -1)" gradientUnits="userSpaceOnUse">
      <stop offset="0" stop-color="#fff"/>
      <stop offset="0" stop-color="#f0f0f0"/>
      <stop offset=".03" stop-color="#c7c7c7"/>
      <stop offset=".05" stop-color="#a1a1a1"/>
      <stop offset=".08" stop-color="#818181"/>
      <stop offset=".11" stop-color="#666"/>
      <stop offset=".14" stop-color="#505050"/>
      <stop offset=".17" stop-color="#3f3f3f"/>
      <stop offset=".22" stop-color="#333"/>
      <stop offset=".29" stop-color="#2c2c2c"/>
      <stop offset=".47" stop-color="#2b2b2b"/>
      <stop offset=".66" stop-color="#0f0f0f"/>
    </linearGradient>
    <linearGradient id="linear-gradient-3" x1="1.03" y1="-106.97" x2="113.74" y2="-106.97" gradientTransform="translate(1289.79 1185.97) rotate(146.81) scale(2.46 -.96) skewX(44.34)" gradientUnits="userSpaceOnUse">
      <stop offset="0" stop-color="#fff"/>
      <stop offset="1" stop-color="#000"/>
    </linearGradient>
    <linearGradient id="linear-gradient-4" x1="1234.01" y1="-114.61" x2="1425.65" y2="-114.61" gradientTransform="translate(0 644.48) scale(1 -1)" gradientUnits="userSpaceOnUse">
      <stop offset="0" stop-color="#fff"/>
      <stop offset="0" stop-color="#f0f0f0"/>
      <stop offset=".03" stop-color="#c7c7c7"/>
      <stop offset=".05" stop-color="#a1a1a1"/>
      <stop offset=".08" stop-color="#818181"/>
      <stop offset=".11" stop-color="#666"/>
      <stop offset=".14" stop-color="#505050"/>
      <stop offset=".17" stop-color="#3f3f3f"/>
      <stop offset=".22" stop-color="#333"/>
      <stop offset=".29" stop-color="#2c2c2c"/>
      <stop offset=".47" stop-color="#2b2b2b"/>
      <stop offset=".66" stop-color="#0f0f0f"/>
    </linearGradient>
  </defs>
  <path class="cls-15" d="M1917.74,771.5H4.55c.28,80.26,.33,160.52,.36,240.78,.01,22.91,0,45.81,0,68.72H299.97c41.52-1.03,83.04-1.66,124.57-1.86,152.72-1.63,305.48-1.9,458.21-1.9,101.66,0,203.33,.19,304.99,.75,109.28-.68,218.57-.83,327.84-.83,66.34,0,132.68,.09,199.02,.31,67.66-.21,135.32-.28,202.98-.28-.03-34.16-.05-68.31-.07-102.47-.03-67.73,.03-135.47,.23-203.21h0Z"/>
  <path class="cls-46" d="M.9,.5V766.33c0,6.06,0,12.11,.01,18.17H1920.9V.5H.9Z"/>
  <polygon class="cls-36" points="1714.9 111.5 117.73 111.5 116.4 53.17 1714.9 53.5 1714.9 111.5"/>
  <g>
    <rect class="cls-47" x="944.4" y="11" width="714" height="590"/>
    <g>
      <rect class="cls-21" x="1002.9" y="78.5" width="598" height="181"/>
      <line class="cls-1" x1="1002.89" y1="259.2" x2="1059.89" y2="223.2"/>
      <line class="cls-1" x1="1059.4" y1="223" x2="1060.4" y2="78"/>
      <line class="cls-1" x1="1059.7" y1="223.37" x2="1600.4" y2="223"/>
    </g>
    <g>
      <rect class="cls-21" x="1002.19" y="303.05" width="598" height="181"/>
      <line class="cls-1" x1="1002.67" y1="484.24" x2="1059.67" y2="448.24"/>
      <line class="cls-1" x1="1059.49" y1="448.41" x2="1600.19" y2="448.05"/>
      <line class="cls-1" x1="1059.19" y1="448.05" x2="1060.19" y2="303.05"/>
    </g>
  </g>
  <path class="cls-22" d="M1442.96,784.12c-125-1-1202,1-1327,0"/>
  <path class="cls-46" d="M.88,735.93c.03,31.35,.05,62.7,.06,94.05,.02,49.78,0,99.57-.1,149.36,.03,25.25,.06,50.49,.07,75.74v23.86l115.54-298.23L.88,735.93Z"/>
  <path class="cls-46" d="M1921.09,1078.59c-.03-30.99-.05-61.99-.06-92.98-.03-75.44,.03-150.9,.3-226.35l-37.29-52.72-153.43,108.5,186.35,263.51c1.37,.01,2.75,.03,4.12,.04h0Z"/>
  <line class="cls-2" x1="102.4" y1="821.01" x2="836.4" y2="822"/>
  <line class="cls-2" x1="82.4" y1="872" x2="813.76" y2="872.65"/>
  <line class="cls-2" x1="59.26" y1="931.15" x2="798.76" y2="931.65"/>
  <line class="cls-2" x1="34.4" y1="997" x2="1860.4" y2="999"/>
  <line class="cls-2" x1="8.4" y1="1061" x2="1904.4" y2="1061"/>
  <path class="cls-1" d="M1570.4,589c91.5,128.5,177.5,249.5,272.5,384.5,26,38,50,71,74.88,106.8"/>
  <g class="cls-53">
    <g>
      <path class="cls-25" d="M1144.8,147.08h40.54c3.62,0,6.57,2.94,6.57,6.57v66.04h-54.84v-64.87c0-4.27,3.47-7.73,7.73-7.73h0Z"/>
      <rect class="cls-25" x="1158.16" y="130.91" width="10.55" height="9.55"/>
      <polygon class="cls-25" points="1139.17 117.5 1187.68 117.5 1187.68 117.5 1139.17 117.5"/>
    </g>
    <rect class="cls-25" x="1158.16" y="124.13" width="10.55" height=".04"/>
  </g>
  <path class="cls-38" d="M1150.9,240.5c10-4,56.9-24.24,40-17-7,3-18.24-.5-33.5-.5-4,0-44.5-7.5-48,4-4.4,14.46,30.68,3.68,38.5,11.5,2,2,1.7,2.52,3,2Z"/>
  <path class="cls-38" d="M1284.18,244.27c9.79-4.98,55.71-30.16,39.16-21.15-6.85,3.73-17.85-.62-32.8-.62-3.92,0-43.57-9.33-46.99,4.98-4.31,17.99,30.04,4.58,37.69,14.31,1.96,2.49,1.66,3.14,2.94,2.49h0Z"/>
  <g>
    <g>
      <path class="cls-18" d="M1104.14,162.04h36.99c3.62,0,6.57,2.94,6.57,6.57v68.4h-51.29v-67.23c0-4.27,3.47-7.73,7.73-7.73h0Z"/>
      <rect class="cls-19" x="1116.13" y="145.34" width="9.86" height="9.86"/>
      <polygon class="cls-14" points="1098.38 131.5 1143.75 131.5 1143.75 131.5 1098.38 131.5"/>
    </g>
    <rect class="cls-14" x="1116.13" y="138.34" width="9.86" height=".04"/>
  </g>
  <g>
    <g>
      <rect class="cls-25" x="1292.4" y="85.5" width="11.44" height="43.13"/>
      <rect class="cls-25" x="1292.4" y="108.87" width="11.44" height="43.13"/>
      <g>
        <path class="cls-25" d="M1296.3,119.65h2.48c10,0,18.12,8.12,18.12,18.12v82.52h-39.21v-82.03c0-10.27,8.34-18.61,18.61-18.61h0Z"/>
        <rect class="cls-25" x="1277.69" y="153.72" width="39.21" height="47.14"/>
      </g>
    </g>
    <line class="cls-30" x1="1292.4" y1="92.69" x2="1303.83" y2="92.69"/>
  </g>
  <g>
    <g>
      <rect class="cls-41" x="1257.15" y="90.5" width="13.42" height="49.28"/>
      <rect class="cls-40" x="1257.15" y="117.2" width="13.42" height="49.28"/>
      <g>
        <path class="cls-40" d="M1258.51,129.52h9.27c10,0,18.12,8.12,18.12,18.12v96.86h-46v-96.38c0-10.27,8.34-18.61,18.61-18.61h0Z"/>
        <rect class="cls-41" x="1239.9" y="168.45" width="46" height="53.86"/>
      </g>
    </g>
    <line class="cls-31" x1="1257.15" y1="98.72" x2="1270.57" y2="98.72"/>
  </g>
  <g>
    <rect class="cls-25" x="1309.05" y="368.19" width="23.09" height="36.63"/>
    <g>
      <rect class="cls-25" x="1266.34" y="385.43" width="108.5" height="59.26" rx="23.55" ry="23.55"/>
      <rect class="cls-25" x="1309.05" y="368.19" width="23.09" height="10.77"/>
      <rect class="cls-25" x="1283.93" y="398.36" width="73.6" height="33.47" rx="13.3" ry="13.3"/>
      <g>
        <path d="M1289.29,414.86c2.39,1.41,5.1,2.48,7.97,3.13,1.27,.29,2.68,.48,3.87,.03,3.04-1.16,2.15-5.27,4.97-6.73-.25,1.98,2.16,3.62,4.61,3.99s4.96-.14,7.44-.38c3.7-.35,7.6-.05,10.88,1.37,.58-1,1.2-2.04,2.27-2.74s2.72-.97,3.84-.31c.89,.53,1.57,1.62,2.65,1.41,.78-.15,1.07-.9,1.69-1.3,1.07-.68,2.69-.1,3.6,.7s1.56,1.85,2.75,2.38c1.72,.77,4.21-.02,4.79-1.52"/>
        <path d="M1283.99,423.93c2.37,1.38,4.94,2.47,7.53,3.35s5.48,1.58,8.14,1.5c3.84-.11,7.87-1.52,10.44-4.51,1.03-1.2,1.81-2.18,2.41-3.56s1.12-2.7,1.66-4.07l-1.06,2.51c.22-.51,.46-1,.78-1.46l-1.64,2.13c.23-.3,.48-.55,.78-.79l-2.13,1.64c.16-.12,.33-.22,.5-.31l-15.8-9.07c-.29,4.88,2.76,9.17,6.63,11.77,2.86,1.93,6.24,2.66,9.63,2.83,2.11,.11,4.19-.3,6.29-.49s4.18-.17,6.26,.11l-2.79-.38c1.59,.24,3.13,.64,4.62,1.26l2.79,.38c1.45,.05,2.79-.25,4.05-.9,2.09-.88,3.85-2.3,5.02-4.3,.33-.57,.67-1.12,1.07-1.64l-1.64,2.13c.27-.31,.54-.58,.85-.86l-2.13,1.64c.32-.24,.61-.41,.97-.58l-2.51,1.06c.36-.14,.7-.23,1.08-.31l-2.79,.38c.39-.04,.73-.05,1.11-.01l-2.79-.38c.24,.03,.47,.09,.69,.18l-2.51-1.06c.21,.09,.4,.2,.58,.33l-2.13-1.64c1.04,.81,2.01,1.73,3.12,2.45,1.61,1.05,3.16,1.45,4.99,1.7,4.22,.57,7.61-1.16,10.58-4.02l-2.13,1.64c.16-.15,.35-.26,.55-.34l-2.51,1.06,.33-.1-2.79,.38c.38-.05,.67-.04,1.05,0l-2.79-.38c.24,.05,.48,.12,.71,.21l-2.51-1.06c.34,.15,.64,.32,.95,.52l-2.13-1.64c.42,.34,.79,.72,1.16,1.11,.91,.96,1.97,1.75,3.03,2.53,2.11,1.54,4.89,2.25,7.47,2.32s5.06-.65,7.33-1.81c2.04-1.04,4.31-3.1,5.29-5.21,1.22-2.62,1.85-5.21,1.06-8.09-.67-2.44-2.55-5.08-4.83-6.28-2.44-1.29-5.39-1.93-8.09-1.06-2.46,.8-5.14,2.38-6.28,4.83-.07,.17-.15,.33-.26,.47l1.64-2.13c-.19,.23-.37,.41-.61,.6l2.13-1.64c-.26,.17-.51,.31-.8,.44l2.51-1.06c-.31,.11-.6,.19-.92,.26l2.79-.38c-.44,.06-.85,.06-1.29,.02l2.79,.38c-.32-.06-.6-.14-.91-.26l2.51,1.06c-.35-.18-.64-.36-.95-.6l2.13,1.64c-.64-.56-1.18-1.21-1.8-1.79-1.89-1.73-3.9-2.9-6.38-3.6-2.79-.79-5.75-.54-8.39,.58-1.89,.8-3.26,2.05-4.81,3.37l2.13-1.64-.26,.16,2.51-1.06-.31,.1,2.79-.38-.31,.03,2.79,.38c-.2,0-.39-.05-.57-.14l2.51,1.06c-.18-.09-.35-.19-.51-.32l2.13,1.64c-1.98-1.58-3.7-3.11-6.2-3.84s-5.27-.8-7.76-.1c-4.42,1.24-7.61,4.25-9.88,8.14l11.86-4.83c-3.54-1.47-7.62-1.94-11.43-1.87-3.24,.06-6.44,.93-9.68,.51l2.79,.38c-.65-.12-1.26-.29-1.88-.54l2.51,1.06c-.46-.21-.88-.45-1.3-.74l2.13,1.64c-.28-.22-.52-.44-.76-.71l1.64,2.13c-.2-.27-.36-.51-.5-.81l1.06,2.51c-.08-.19-.13-.38-.16-.58l.38,2.79c-.03-.2-.03-.41,0-.61,.22-3.63-2.15-7.28-5.2-9.07-3.27-1.91-7.33-1.86-10.6,0-2.22,1.26-4.17,3.22-5.41,5.45-.87,1.56-1.41,3.29-2.08,4.95l1.06-2.51c-.21,.51-.45,.98-.77,1.43l1.64-2.13c-.23,.29-.47,.53-.77,.76l2.13-1.64c-.26,.17-.5,.29-.78,.41l2.51-1.06c-.27,.1-.54,.17-.82,.21l2.79-.38c-.59,.06-1.15,.05-1.74,0l2.79,.38c-2.15-.31-4.26-1-6.26-1.84l2.51,1.06c-1.03-.45-2.03-.96-3.01-1.52-2.36-1.37-5.46-1.78-8.09-1.06-2.44,.67-5.08,2.55-6.28,4.83-2.65,5.02-1.31,11.42,3.77,14.37h-.01Z"/>
      </g>
    </g>
  </g>
  <path class="cls-38" d="M1321.9,465.48c10.91-5.57,65.16-28.4,45.03-23.93-12.03,2.67-19.9-.7-36.55-.7-4.36,0-48.56-10.44-52.37,5.57-4.8,20.13,33.48,5.13,42.01,16.01,2.18,2.78,.47,3.77,1.89,3.05h0Z"/>
  <g>
    <rect class="cls-45" x="1272.11" y="389.5" width="23.09" height="36.63"/>
    <g>
      <rect class="cls-45" x="1229.4" y="406.74" width="108.5" height="59.26" rx="23.55" ry="23.55"/>
      <rect class="cls-43" x="1272.11" y="389.5" width="23.09" height="10.77"/>
      <rect class="cls-43" x="1246.99" y="419.67" width="73.6" height="33.47" rx="13.3" ry="13.3"/>
      <path class="cls-49" d="M1251.78,437.15c1.93,1.12,3.98,2.02,6.12,2.68s4.48,1.34,6.59,.59c1.48-.53,2.39-1.72,2.98-3.12s.89-2.95,2.26-3.73l-1.69-.97c-.27,4.58,5.93,5.44,9.21,5.17,2.45-.2,4.86-.62,7.33-.56s4.91,.5,7.22,1.45c.45,.19,1.04-.13,1.27-.52,.67-1.14,1.4-2.35,2.76-2.74s2.02,.35,3.06,1.07c.81,.56,1.77,.79,2.7,.39,1.04-.45,1.4-1.67,2.69-1.3,1.13,.33,1.78,1.36,2.6,2.12s1.7,1.25,2.77,1.41c1.88,.27,4.15-.51,5-2.32,.61-1.3-1.33-2.45-1.94-1.14-.42,.91-1.46,1.3-2.42,1.26-1.27-.05-2-1.01-2.82-1.84-1.45-1.47-3.86-2.59-5.74-1.2-.32,.24-.65,.82-1.03,.91-.46,.1-.83-.38-1.19-.66-.85-.69-1.76-1.08-2.87-1.07-2.63,.03-4.28,1.88-5.51,3.98l1.27-.52c-3.74-1.55-7.88-1.77-11.88-1.33-2.07,.23-4.2,.62-6.28,.37-1.51-.19-4.06-1.03-3.94-2.93,.05-.87-.99-1.37-1.69-.97-1.2,.68-1.93,1.72-2.46,2.97-.47,1.1-.75,2.59-1.75,3.36-1.55,1.21-4.23,.21-5.89-.3-1.96-.6-3.81-1.42-5.58-2.45-1.25-.73-2.39,1.22-1.14,1.94h-.01Z"/>
    </g>
  </g>
  <g>
    <g>
      <rect class="cls-25" x="1390.09" y="93.5" width="20.91" height="43.45"/>
      <rect class="cls-25" x="1390.09" y="117.04" width="20.91" height="43.45"/>
      <g>
        <path class="cls-25" d="M1381.81,127.9h34.97c10,0,18.12,8.12,18.12,18.12v83.26h-71.71v-82.77c0-10.27,8.34-18.61,18.61-18.61h0Z"/>
        <rect class="cls-25" x="1363.2" y="162.23" width="71.71" height="47.49"/>
      </g>
    </g>
    <line class="cls-30" x1="1390.09" y1="100.75" x2="1411" y2="100.75"/>
  </g>
  <g>
    <rect class="cls-25" x="1526.4" y="108.5" width="23.09" height="50.18"/>
    <g>
      <rect class="cls-25" x="1483.69" y="132.12" width="108.5" height="81.18" rx="23.55" ry="23.55"/>
      <rect class="cls-25" x="1526.4" y="108.5" width="23.09" height="14.76"/>
      <rect class="cls-25" x="1501.28" y="149.83" width="73.6" height="45.85" rx="13.3" ry="13.3"/>
      <g>
        <path d="M1506.63,172.44c2.39,1.94,5.1,3.4,7.97,4.28,1.27,.39,2.68,.66,3.87,.04,3.04-1.59,2.15-7.22,4.97-9.22-.25,2.71,2.16,4.96,4.61,5.47s4.96-.2,7.44-.52c3.7-.48,7.6-.06,10.88,1.87,.58-1.37,1.2-2.79,2.27-3.75s2.72-1.33,3.84-.43c.89,.72,1.57,2.22,2.65,1.93,.78-.21,1.07-1.24,1.69-1.78,1.07-.93,2.69-.14,3.6,.96s1.56,2.53,2.75,3.27c1.72,1.06,4.21-.03,4.79-2.08"/>
        <path d="M1499.21,179.87c2.56,2.04,5.06,3.9,8.07,5.2,4.34,1.87,8.85,3.43,13.62,1.99,2.22-.67,4.4-1.96,5.99-3.66,1.83-1.95,2.61-3.66,3.57-6.1,.62-1.58,.91-3.26,1.55-4.83l-1.06,2.51c.22-.5,.48-.96,.81-1.4l-1.64,2.13c.17-.2,.35-.38,.55-.56l-2.13,1.64,.21-.16-15.8-9.07c-.14,2.83,.75,5.93,2.28,8.31s3.77,4.64,6.37,5.86c2.86,1.34,5.81,2.13,9,1.96,2.58-.14,5.13-.7,7.68-1.05l-2.79,.38c1.8-.22,3.59-.24,5.39,0l-2.79-.38c1.38,.21,2.7,.57,3.99,1.11l-2.51-1.06c.51,.23,1.01,.48,1.5,.76,2.28,1.3,5.54,1.88,8.09,1.06,2.41-.78,5.23-2.38,6.28-4.83,.48-1.12,.98-2.22,1.73-3.19l-1.64,2.13c.26-.3,.51-.55,.82-.8l-2.13,1.64c.31-.21,.6-.37,.94-.51l-2.51,1.06c.22-.08,.45-.14,.68-.17l-2.79,.38c.23-.03,.45-.04,.68-.02l-2.79-.38c.23,.02,.44,.07,.66,.16l-2.51-1.06c.22,.09,.42,.2,.6,.35l-2.13-1.64c.46,.41,.81,.91,1.25,1.35,1.92,1.9,4.24,3.12,6.91,3.48s5.21-.04,7.59-1.45c2.04-1.21,3.34-2.97,4.66-4.87l-1.64,2.13c.12-.18,.26-.33,.42-.48l-2.13,1.64c.17-.15,.36-.26,.57-.33l-2.51,1.06,.31-.07-2.79,.38c.22-.03,.43-.02,.65,.03l-2.79-.38c.23,.05,.44,.12,.65,.22l-2.51-1.06c.22,.1,.43,.22,.62,.37l-2.13-1.64c.39,.31,.71,.64,1.02,1.03l-1.64-2.13c1.17,1.59,2.2,3.31,3.62,4.69,2.46,2.39,5.9,3.94,9.37,3.9,6.43-.06,11.53-4.23,13.52-10.2,.83-2.5,.25-5.86-1.06-8.09s-3.77-4.26-6.28-4.83c-5.8-1.32-11.05,1.75-12.92,7.33l-.1,.3,1.06-2.51c-.13,.3-.27,.54-.45,.81l1.64-2.13c-.2,.24-.4,.44-.64,.64l2.13-1.64c-.25,.18-.49,.32-.77,.46l2.51-1.06c-.29,.11-.55,.19-.85,.25l2.79-.38c-.3,.03-.57,.04-.87,.01l2.79,.38c-.3-.05-.55-.13-.84-.24l2.51,1.06c-.19-.09-.38-.21-.55-.34l2.13,1.64c-.37-.31-.68-.64-.98-1.01l1.64,2.13c-1.04-1.4-1.94-2.9-3.13-4.19-1.68-1.82-3.98-3.27-6.38-3.94-3.22-.91-6.76-.55-9.67,1.14-2.3,1.34-3.46,3.17-5.03,5.23l1.64-2.13-.21,.22,2.13-1.64-.23,.18,2.51-1.06c-.16,.1-.34,.15-.53,.15l2.79-.38-.25-.03,2.79,.38-.23-.09,2.51,1.06-.22-.13,2.13,1.64c-1.47-1.17-2.14-2.41-3.95-3.46-3.07-1.79-6.78-2.31-10.22-1.37-4.75,1.29-8.22,5.02-10.1,9.43l14.37-3.77c-3.73-2.12-7.58-3.07-11.82-3.42-3.5-.29-6.97,.49-10.41,1l2.79-.38c-1.25,.17-2.46,.24-3.72,.09l2.79,.38c-.51-.09-.97-.21-1.46-.38l2.51,1.06c-.55-.24-1.05-.53-1.54-.88l2.13,1.64c-.37-.31-.7-.63-1.02-1l1.64,2.13c-.29-.38-.52-.77-.73-1.2l1.06,2.51c-.13-.34-.22-.65-.3-1.01l.38,2.79c-.05-.37-.06-.7-.04-1.08,.18-3.64-2.13-7.27-5.2-9.07s-7.72-2.2-10.6,0c-2.15,1.65-3.34,2.59-4.83,4.92-.81,1.26-1.32,2.74-1.81,4.15s-.76,2.91-1.35,4.3l1.06-2.51c-.19,.41-.39,.78-.65,1.14l1.64-2.13c-.22,.27-.44,.5-.71,.72l2.13-1.64c-.27,.18-.5,.3-.8,.44l2.51-1.06c-.25,.09-.5,.15-.76,.18l2.79-.38c-.41,.03-.77,.02-1.18-.02l2.79,.38c-1.24-.2-2.42-.62-3.59-1.09l2.51,1.06c-2.01-.86-3.87-1.95-5.6-3.28l2.13,1.64-.34-.27c-2.26-1.8-4.41-3.08-7.42-3.08-2.58,0-5.65,1.14-7.42,3.08s-3.2,4.63-3.08,7.42c.12,2.6,.95,5.73,3.08,7.42h0l-.03-.02Z"/>
      </g>
    </g>
  </g>
  <path class="cls-38" d="M1539.25,241.78c10.91-7.63,65.16-38.91,45.03-32.79-12.03,3.66-19.9-.95-36.55-.95-4.36,0-48.56-14.31-52.37,7.63-4.8,27.58,33.48,7.02,42.01,21.94,2.18,3.81,.47,5.17,1.89,4.18h0Z"/>
  <g>
    <g>
      <rect class="cls-25" x="1339.23" y="497.71" width="11.44" height="43.13"/>
      <rect class="cls-25" x="1339.23" y="521.07" width="11.44" height="43.13"/>
      <g>
        <path class="cls-25" d="M1343.13,531.85h2.48c10,0,18.12,8.12,18.12,18.12v82.52h-39.21v-82.03c0-10.27,8.34-18.61,18.61-18.61h0Z"/>
        <rect class="cls-25" x="1324.52" y="565.93" width="39.21" height="47.14"/>
      </g>
    </g>
    <line class="cls-30" x1="1339.23" y1="504.9" x2="1350.66" y2="504.9"/>
  </g>
  <g>
    <g>
      <rect class="cls-41" x="1319.88" y="505.5" width="13.42" height="49.28"/>
      <rect class="cls-42" x="1319.88" y="532.19" width="13.42" height="49.28"/>
      <g>
        <path class="cls-42" d="M1321.24,544.51h9.27c10,0,18.12,8.12,18.12,18.12v96.86h-46v-96.38c0-10.27,8.34-18.61,18.61-18.61h0Z"/>
        <rect class="cls-41" x="1302.63" y="583.45" width="46" height="53.86"/>
      </g>
    </g>
    <line class="cls-31" x1="1319.88" y1="513.71" x2="1333.3" y2="513.71"/>
  </g>
  <g>
    <path class="cls-29" d="M489.65,164h0c56.47,0,102.25,45.78,102.25,102.25h0c0,56.47-45.78,102.25-102.25,102.25h0c-56.47,0-102.25-45.78-102.25-102.25h0c0-56.47,45.78-102.25,102.25-102.25Z"/>
    <g>
      <rect class="cls-10" x="398.36" y="174.96" width="182.59" height="182.59" rx="91.29" ry="91.29"/>
      <g>
        <rect class="cls-48" x="477.24" y="181.53" width="24.47" height="169.44"/>
        <rect class="cls-48" x="404.66" y="254.26" width="169.44" height="24.47"/>
      </g>
    </g>
    <path class="cls-34" d="M513.39,325.05s14.2-4.24,24.83-18.26c7.66-10.1,5.84-14.61,12.42-21.18,2.95-2.95,9.6-2.03,11.69,.73,4.67,6.19-10.6,26.21-25.2,38.34-4.57,3.79-20.68,17.19-28.48,12.42-2.37-1.45-4.38-4.81-3.65-7.3,.86-2.94,5.28-3.82,8.4-4.75h-.01Z"/>
    <path class="cls-34" d="M460.07,246.17s3.2-1.77,2.86-19.37c-.25-12.68,1.17-18.14,2.26-27.37,.49-4.14,6.18-10.95,8.03-8.03,5.11,8.03,.73,32.14-.06,50.13-.26,5.93,1.84,9.4-7.24,10.49-2.75,.33-3.68,1.44-5.84,0s-1.87-3.18,0-5.84h-.01Z"/>
    <path class="cls-35" d="M530.92,321.4s9.84-5.49,13.15-10.22c2.38-3.41,9.49-15.11,11.69-17.53,.99-1.08,3.33-5.53,4.38-5.11,2.36,.95-14.64,25-19.7,29.77-1.58,1.49-22.05,17.19-25.58,16.98-1.07-.07-.11-2.22,0-2.92,.13-.83,14.87-10.35,16.07-10.96h-.01Z"/>
    <path class="cls-34" d="M515.74,215.08c3.6,7.49-2.12,12.05,.49,17.66,2.91,6.27,11.76,4.21,15,11.73,.93,2.16,1.63,5.63,.02,7.34s-4.28,.31-10.97-.33c-9.17-.88-12.15,.97-14.54-1.41-1.18-1.18-1.34-2.53-1.26-9.66,.14-13.19,.78-18.34,3.06-23.92,1.87-4.58,3.21-5.43,4.2-5.46,2.03-.06,3.64,3.28,4.01,4.06h-.01Z"/>
    <path class="cls-33" d="M512.15,229.13c2.28,3.91-.5,6.71,1.16,9.64,1.86,3.28,6.41,1.68,8.51,5.62,.6,1.13,1.15,3,.39,4.02s-2.24,.4-5.8,.4c-4.88,0-6.35,1.18-7.73,0-.68-.58-.84-1.31-1.16-5.22-.6-7.23-.53-10.08,.39-13.26,.75-2.61,1.41-3.14,1.93-3.21,1.07-.14,2.08,1.6,2.32,2.01h-.01Z"/>
    <path class="cls-34" d="M465.84,237.57s.98,.39,1.38-13c.29-9.65,.86-12.99,1.43-19.34,.26-2.85,2.11-4.89,2.56-1.7,1.26,8.79-.7,24.52-1.44,37.6-.24,4.31,.27,8.05-2.4,3.97-.81-1.24-1.11-.91-1.7-3.15s-.45-3.4,.17-4.39h0Z"/>
  </g>
  <g>
    <g>
      <rect class="cls-41" x="1257.15" y="90.5" width="13.42" height="49.28"/>
      <rect class="cls-40" x="1257.15" y="117.2" width="13.42" height="49.28"/>
      <g>
        <path class="cls-40" d="M1258.51,129.52h9.27c10,0,18.12,8.12,18.12,18.12v96.86h-46v-96.38c0-10.27,8.34-18.61,18.61-18.61h0Z"/>
        <rect class="cls-41" x="1242.9" y="168.45" width="40" height="53.86"/>
      </g>
    </g>
    <line class="cls-31" x1="1257.15" y1="98.72" x2="1270.57" y2="98.72"/>
  </g>
  <g class="cls-52">
    <line class="cls-16" x1="1384.88" y1="723.11" x2="1402.58" y2="723"/>
  </g>
  <path class="cls-36" d="M.9,157.5c12.81-8.91,114-104,114-104v58L.9,231.5"/>
  <line class="cls-1" x1="116.4" x2="116.4" y2="784.5"/>
  <line class="cls-1" x1="116.9" y1="783.5" x2="1.4" y2="1082"/>
  <path class="cls-34" d="M458.93,331.51c-.69-6.15,12.31-15.67,15.73-12.3,1.4,1.38,.08,3.53,1.5,13.25,.41,2.82,.75,4.73,.75,6.62,0,2.18-4.6-.21-6.74-.95-3.83-1.32-10.77-2.5-11.23-6.62h-.01Z"/>
  <path class="cls-34" d="M460.65,331.47c-.39-3.21,7.03-8.18,8.98-6.42,.8,.72,.05,1.84,.86,6.91,.24,1.47,.43,2.47,.43,3.46,0,1.14-2.63-.11-3.85-.49-2.19-.69-6.15-1.3-6.41-3.46h-.01Z"/>
  <polygon class="cls-36" points="1920.9 232.5 1715.9 111.5 1715.9 53.5 1920.9 142.5 1920.9 232.5"/>
  <line class="cls-1" x1="1715.4" x2="1715.4" y2="615"/>
  <g>
    <g>
      <rect class="cls-20" x="796.47" y="599.31" width="1007.3" height="355.6"/>
      <path class="cls-23" d="M785.9,951.91H1814.4c7.73,0,14,6.27,14,14v19.87H771.9v-19.87c0-7.73,6.27-14,14-14Z"/>
      <rect class="cls-24" x="776.52" y="589.5" width="1040.59" height="15.8"/>
    </g>
    <g>
      <rect class="cls-3" x="1328.53" y="638.24" width="182.74" height="290.37" rx="37.67" ry="37.67"/>
      <rect class="cls-4" x="1577.53" y="638.24" width="182.74" height="290.37" rx="37.67" ry="37.67"/>
      <rect class="cls-6" x="1085.54" y="638.24" width="182.74" height="290.37" rx="37.67" ry="37.67"/>
      <rect class="cls-5" x="840.82" y="639.01" width="182.74" height="290.37" rx="37.67" ry="37.67"/>
    </g>
  </g>
  <g>
    <g class="cls-39">
      <path class="cls-11" d="M1581,1011.51l77.96,4.81c10.98,.68,14.12,8.66,7.02,17.83h0c-7.1,9.17-21.76,16.05-32.74,15.37l-77.96-4.81c-10.98-.68-14.12-8.66-7.02-17.83h0c7.1-9.17,21.76-16.05,32.74-15.37Z"/>
      <polygon class="cls-12" points="1616.33 1029.83 1601.64 1028.21 1628.9 797.5 1642.9 797.5 1616.33 1029.83"/>
      <polygon class="cls-13" points="1735.9 795.38 1543.82 796.52 1556.41 762.34 1745.08 761.5 1735.9 795.38"/>
    </g>
    <g>
      <g>
        <path class="cls-32" d="M1570.69,1016.41l79.13,5.76c11.14,.81,14.32,9.55,7.1,19.52h0c-7.23,9.97-22.12,17.39-33.26,16.58l-79.13-5.76c-11.14-.81-14.32-9.55-7.1-19.52h0c7.23-9.97,22.12-17.39,33.26-16.58Z"/>
        <path class="cls-44" d="M1570.7,1016.26c25.58,2.04,51.23,3.23,76.83,4.96,1.75,.12,4.04,.23,5.75,.7,6.28,1.47,9.59,6.6,7.99,12.95-4.03,14.11-23.43,25.35-37.71,24.6-25.6-1.7-51.23-3.18-76.8-5.34-2.27-.21-4.88-.34-7.03-1.18-6.34-2.15-8.78-8.16-6.43-14.31,5.08-13.17,23.66-23.2,37.39-22.37h.01Zm-.02,.29c-11.96-.38-23.68,6.2-31.22,15.14-6.57,7.87-7.49,18.6,5.26,19.39,26.37,1.58,52.7,3.89,79.03,5.98,5.73,.39,11.62-1.24,16.92-3.74,5.31-2.54,10.25-6.02,14.09-10.47,6.05-6.67,8.44-17.39-2.93-19.62-27.02-2.4-54.09-4.79-81.15-6.68h0Z"/>
      </g>
      <g>
        <rect class="cls-9" x="1589.9" y="768.5" width="15" height="269"/>
        <rect class="cls-8" x="1501.9" y="740.5" width="195" height="37"/>
      </g>
    </g>
  </g>
  <g>
    <g>
      <path class="cls-26" d="M1313.11,1011.59l77.96,4.81c10.98,.68,14.12,8.66,7.02,17.83h0c-7.1,9.17-21.76,16.05-32.74,15.37l-77.96-4.81c-10.98-.68-14.12-8.66-7.02-17.83h0c7.1-9.17,21.76-16.05,32.74-15.37Z"/>
      <polygon class="cls-28" points="1348.44 1029.92 1333.75 1028.3 1361.01 797.59 1375.01 797.59 1348.44 1029.92"/>
      <polygon class="cls-27" points="1468 795.46 1275.92 796.61 1288.52 762.42 1477.19 761.59 1468 795.46"/>
    </g>
    <g>
      <g>
        <path class="cls-51" d="M1302.79,1016.5l79.13,5.76c11.14,.81,14.32,9.55,7.1,19.52h0c-7.23,9.97-22.12,17.39-33.26,16.58l-79.13-5.76c-11.14-.81-14.32-9.55-7.1-19.52h0c7.23-9.97,22.12-17.39,33.26-16.58Z"/>
        <path class="cls-50" d="M1302.8,1016.4c26.34,2.02,52.72,3.51,79.07,5.33,1.52,.15,3.13,.35,4.57,.88,4.91,1.5,7.84,6,6.86,11.12-1.93,9.8-11.29,17.07-19.75,21.33-5.5,2.65-11.58,4.45-17.85,4.1-24.1-1.65-48.2-3.18-72.28-5.06l-4.51-.37c-2.21-.18-4.81-.35-6.91-1.14-6.15-2.03-8.48-7.8-6.26-13.76,4.91-13.06,23.44-23.3,37.07-22.42h-.01Zm-.01,.19c-11.99-.35-23.76,6.08-31.43,15.02-5.91,6.82-8.16,17.75,3.28,19.8,27.05,2,54.14,3.95,81.18,6.14,11.74,.48,23.55-5.75,31.29-14.4,3.56-4.21,7.04-10.45,4.01-15.78-3.27-5.22-10.7-4.55-16.1-5.12-24.08-1.91-48.14-3.99-72.24-5.66h.01Z"/>
      </g>
      <g>
        <rect class="cls-9" x="1322.01" y="768.59" width="15" height="269"/>
        <rect class="cls-7" x="1234.01" y="740.59" width="195" height="37"/>
      </g>
    </g>
  </g>
  <g>
    <rect class="cls-37" x="1737.72" y="1.42" width="180.87" height="562"/>
    <rect class="cls-17" x="1737.72" y="1.42" width="182" height="562"/>
  </g>
</svg>