<?xml version="1.0" encoding="UTF-8"?>
<svg id="Layer_1" data-name="Layer 1" xmlns="http://www.w3.org/2000/svg" viewBox="0 0 689 663">
  <defs>
    <style>
      .cls-1 {
        fill: #666;
      }

      .cls-2 {
        fill: #e6e6e6;
        stroke: blue;
      }

      .cls-2, .cls-3 {
        stroke-linecap: round;
        stroke-linejoin: round;
        stroke-width: 21px;
      }

      .cls-3 {
        fill: none;
        stroke: #666;
      }
    </style>
  </defs>
  <rect class="cls-2" x="10.5" y="10.5" width="668" height="642" rx="321" ry="321"/>
  <g>
    <g>
      <path class="cls-3" d="M163.93,226.2c41.89-66.38,120.32-106.32,203.98-96.53,1.1,.13,2.2,.26,3.29,.4,36.03,4.49,69.62,22.82,97.36,46.41,27.52,23.41,49.71,52.42,66.37,84.23,7.39,14.11,12.85,29.15,16.3,44.7l.17,.78"/>
      <polygon class="cls-1" points="135.31 300.98 220.77 214.09 167.96 221.36 135.48 179.1 135.31 300.98"/>
    </g>
    <g>
      <path class="cls-3" d="M524.2,441.85c-42.22,63.49-120.13,101.53-203.19,92.1-1.1-.13-2.2-.25-3.3-.39-36.09-4.37-69.74-22.18-97.52-45.1-28.82-23.78-47.5-54.33-62.92-87.18-6.14-13.08-10.51-26.93-13.14-41.14"/>
      <polygon class="cls-1" points="553.97 367.51 467.06 452.95 519.99 446.56 551.76 489.36 553.97 367.51"/>
    </g>
  </g>
</svg>