<?xml version="1.0" encoding="UTF-8"?>
<svg id="Layer_1" data-name="Layer 1" xmlns="http://www.w3.org/2000/svg" xmlns:xlink="http://www.w3.org/1999/xlink" viewBox="0 0 1921.62 1085.1">
  <defs>
    <style>
      .cls-1 {
        opacity: .39;
      }

      .cls-1, .cls-2, .cls-3, .cls-4, .cls-5, .cls-6 {
        fill: none;
      }

      .cls-7, .cls-8, .cls-9, .cls-10, .cls-2, .cls-3, .cls-11, .cls-12, .cls-13, .cls-14, .cls-15, .cls-16, .cls-17, .cls-18, .cls-19, .cls-20, .cls-21, .cls-22, .cls-23, .cls-4, .cls-24, .cls-25, .cls-26, .cls-27, .cls-28, .cls-29, .cls-30, .cls-31, .cls-32, .cls-33, .cls-34, .cls-35, .cls-36, .cls-37, .cls-38, .cls-39, .cls-40, .cls-41, .cls-42, .cls-43, .cls-44, .cls-45, .cls-46, .cls-47, .cls-48, .cls-49, .cls-50, .cls-51, .cls-5, .cls-6 {
        stroke-miterlimit: 10;
      }

      .cls-7, .cls-8, .cls-9, .cls-10, .cls-11 {
        stroke-width: 5px;
      }

      .cls-7, .cls-52 {
        fill: #003b10;
      }

      .cls-7, .cls-6 {
        stroke: #001510;
      }

      .cls-8 {
        fill: #e6e6e6;
      }

      .cls-8, .cls-10, .cls-34, .cls-5 {
        stroke: #f15a24;
      }

      .cls-9, .cls-53 {
        fill: #f2c7af;
      }

      .cls-9, .cls-25 {
        stroke: #ff4b00;
      }

      .cls-10, .cls-54, .cls-24, .cls-30, .cls-41, .cls-55 {
        fill: #fff;
      }

      .cls-2, .cls-3, .cls-12, .cls-38, .cls-39, .cls-40, .cls-41, .cls-42, .cls-43 {
        stroke-width: 3px;
      }

      .cls-2, .cls-14, .cls-4, .cls-24, .cls-40, .cls-41, .cls-44 {
        stroke: #000;
      }

      .cls-3 {
        stroke: #292927;
      }

      .cls-11 {
        fill: #451f00;
      }

      .cls-11, .cls-38 {
        stroke: #1a1a1a;
      }

      .cls-56 {
        fill: url(#linear-gradient);
      }

      .cls-12, .cls-33 {
        stroke: #333;
      }

      .cls-57 {
        opacity: .11;
      }

      .cls-13 {
        fill: url(#New_Gradient_Swatch);
      }

      .cls-13, .cls-19, .cls-20, .cls-21, .cls-4, .cls-31, .cls-32, .cls-33, .cls-34, .cls-35, .cls-36, .cls-37, .cls-46, .cls-48, .cls-49, .cls-50, .cls-6 {
        stroke-width: 2px;
      }

      .cls-13, .cls-36, .cls-46, .cls-49 {
        stroke: #1b1425;
      }

      .cls-58, .cls-43, .cls-59 {
        fill: #006837;
      }

      .cls-60 {
        fill: #f15a24;
      }

      .cls-61 {
        fill: #ff4b00;
      }

      .cls-62 {
        fill: #ed1c24;
      }

      .cls-63, .cls-26 {
        fill: #fbb03b;
      }

      .cls-64 {
        fill: #ff1d25;
      }

      .cls-65 {
        fill: #fcee21;
      }

      .cls-66 {
        fill: #93278f;
      }

      .cls-67 {
        fill: #736357;
      }

      .cls-68 {
        fill: #333;
      }

      .cls-69 {
        fill: #d9e021;
      }

      .cls-70 {
        fill: #c7b299;
      }

      .cls-71 {
        fill: #c69c6d;
      }

      .cls-72 {
        fill: #25140b;
      }

      .cls-73, .cls-19 {
        fill: #42210b;
      }

      .cls-74 {
        fill: #1a1a1a;
      }

      .cls-75, .cls-47 {
        fill: #29abe2;
      }

      .cls-76 {
        fill: #39b54a;
      }

      .cls-77, .cls-27 {
        fill: #534741;
      }

      .cls-78 {
        fill: #4d4d4d;
      }

      .cls-15, .cls-17, .cls-18, .cls-23, .cls-79 {
        opacity: .5;
      }

      .cls-15, .cls-20, .cls-21 {
        fill: #8cc63f;
      }

      .cls-15, .cls-21 {
        stroke: #d9e021;
      }

      .cls-16, .cls-17, .cls-18, .cls-23 {
        stroke-width: 4px;
      }

      .cls-16, .cls-42 {
        fill: #009245;
      }

      .cls-16, .cls-42, .cls-43 {
        stroke: #006837;
      }

      .cls-17 {
        stroke: url(#Summer-2);
      }

      .cls-17, .cls-18, .cls-23, .cls-39 {
        fill: #603813;
      }

      .cls-18 {
        stroke: url(#Summer-3);
      }

      .cls-19, .cls-31, .cls-37, .cls-48 {
        stroke: #21140b;
      }

      .cls-20 {
        stroke: #8cc63f;
      }

      .cls-22, .cls-39 {
        stroke: #42210b;
      }

      .cls-22, .cls-51 {
        fill: #1b1425;
        stroke-width: 31px;
      }

      .cls-80 {
        fill: url(#White_Black);
      }

      .cls-23 {
        stroke: url(#Summer);
      }

      .cls-4 {
        opacity: .7;
      }

      .cls-25 {
        fill: #eab78b;
      }

      .cls-26 {
        stroke: #fbb03b;
      }

      .cls-26, .cls-27, .cls-28, .cls-29, .cls-44 {
        stroke-width: 7px;
      }

      .cls-81 {
        opacity: .18;
      }

      .cls-81, .cls-82 {
        fill: #3d3746;
      }

      .cls-83 {
        fill: #6e6a75;
        opacity: .17;
      }

      .cls-27 {
        stroke: #534741;
      }

      .cls-28 {
        fill: #1b147c;
      }

      .cls-28, .cls-29 {
        stroke: #1b1464;
      }

      .cls-29 {
        fill: #2e3192;
      }

      .cls-30 {
        opacity: .95;
        stroke: #003b10;
        stroke-width: 50px;
      }

      .cls-84 {
        fill: url(#linear-gradient-3);
      }

      .cls-85 {
        fill: url(#linear-gradient-4);
      }

      .cls-86 {
        fill: url(#linear-gradient-2);
      }

      .cls-32 {
        stroke: #666;
      }

      .cls-35, .cls-36, .cls-37 {
        opacity: .2;
      }

      .cls-35, .cls-50 {
        stroke: #4d4d4d;
      }

      .cls-87 {
        opacity: .14;
      }

      .cls-88, .cls-82 {
        opacity: .26;
      }

      .cls-89, .cls-38 {
        opacity: .25;
      }

      .cls-90 {
        opacity: .6;
      }

      .cls-91 {
        opacity: .75;
      }

      .cls-92 {
        fill: url(#radial-gradient);
      }

      .cls-38 {
        fill: gray;
      }

      .cls-40 {
        fill: #1a0f0b;
      }

      .cls-45 {
        fill: #b37424;
        stroke: #754c24;
        stroke-width: 6px;
      }

      .cls-46 {
        fill: url(#New_Gradient_Swatch-2);
      }

      .cls-93 {
        fill: url(#White_Black-2);
      }

      .cls-47 {
        opacity: .8;
        stroke: #29abe2;
      }

      .cls-94 {
        font-family: Verdana-BoldItalic, Verdana;
        font-size: 41px;
        font-style: italic;
        font-weight: 700;
      }

      .cls-48, .cls-49, .cls-50 {
        opacity: .41;
      }

      .cls-55 {
        opacity: .73;
      }

      .cls-51 {
        opacity: .71;
        stroke: #25140b;
      }

      .cls-5 {
        stroke-width: .25px;
      }

      .cls-6 {
        opacity: .47;
      }

      .cls-59 {
        opacity: .44;
      }
    </style>
    <linearGradient id="linear-gradient" x1="1463.77" y1="362.81" x2="1472.09" y2="362.81" gradientTransform="translate(-29.67 78.7) rotate(-4.71)" gradientUnits="userSpaceOnUse">
      <stop offset="0" stop-color="#fff"/>
      <stop offset=".09" stop-color="#ffecd8"/>
      <stop offset=".21" stop-color="#ffd4a7"/>
      <stop offset=".33" stop-color="#ffc07d"/>
      <stop offset=".46" stop-color="#ffb05a"/>
      <stop offset=".59" stop-color="#ffa340"/>
      <stop offset=".72" stop-color="#ff9a2d"/>
      <stop offset=".86" stop-color="#ff9421"/>
      <stop offset="1" stop-color="#ff931e"/>
    </linearGradient>
    <linearGradient id="linear-gradient-2" x1="1355.9" y1="191.16" x2="1524.72" y2="177.25" gradientUnits="userSpaceOnUse">
      <stop offset=".17" stop-color="#fff"/>
      <stop offset="1" stop-color="#000"/>
    </linearGradient>
    <linearGradient id="linear-gradient-3" x1="1356.34" y1="191.94" x2="1521.22" y2="178.36" gradientUnits="userSpaceOnUse">
      <stop offset="0" stop-color="#fff"/>
      <stop offset=".86" stop-color="#0b0b0b"/>
      <stop offset="1" stop-color="#000"/>
    </linearGradient>
    <linearGradient id="linear-gradient-4" x1="1510.29" y1="204.13" x2="1547.9" y2="201.04" gradientUnits="userSpaceOnUse">
      <stop offset="0" stop-color="#000"/>
      <stop offset=".49" stop-color="#f2f2f2"/>
      <stop offset="1" stop-color="#000"/>
    </linearGradient>
    <radialGradient id="radial-gradient" cx="1576.91" cy="276.65" fx="1576.91" fy="276.65" r="8.8" gradientTransform="translate(0 -.07) scale(1 1.05)" gradientUnits="userSpaceOnUse">
      <stop offset="0" stop-color="#fff"/>
      <stop offset=".01" stop-color="#fff"/>
      <stop offset=".39" stop-color="#fff"/>
      <stop offset="1" stop-color="#ff931e"/>
    </radialGradient>
    <radialGradient id="Summer" cx="1297.15" cy="764.67" fx="1297.15" fy="764.67" r="62.77" gradientTransform="translate(-1128.41 -744.4) scale(1.96 1.99)" gradientUnits="userSpaceOnUse">
      <stop offset="0" stop-color="#fff"/>
      <stop offset=".09" stop-color="#ffecd8"/>
      <stop offset=".21" stop-color="#ffd4a7"/>
      <stop offset=".33" stop-color="#ffc07d"/>
      <stop offset=".46" stop-color="#ffb05a"/>
      <stop offset=".59" stop-color="#ffa340"/>
      <stop offset=".72" stop-color="#ff9a2d"/>
      <stop offset=".86" stop-color="#ff9421"/>
      <stop offset="1" stop-color="#ff931e"/>
    </radialGradient>
    <radialGradient id="Summer-2" data-name="Summer" cx="1421.15" fx="1421.15" xlink:href="#Summer"/>
    <radialGradient id="Summer-3" data-name="Summer" cx="1176.15" fx="1176.15" xlink:href="#Summer"/>
    <linearGradient id="White_Black" data-name="White, Black" x1="-1149.54" y1="-119.21" x2="-1036.76" y2="-119.21" gradientTransform="translate(-473.31 2254.86) rotate(146.81) scale(2.46 .96) skewX(-44.34)" gradientUnits="userSpaceOnUse">
      <stop offset="0" stop-color="#fff"/>
      <stop offset="1" stop-color="#000"/>
    </linearGradient>
    <linearGradient id="New_Gradient_Swatch" data-name="New Gradient Swatch" x1="1501.9" y1="759" x2="1693.54" y2="759" gradientUnits="userSpaceOnUse">
      <stop offset="0" stop-color="#fff"/>
      <stop offset="0" stop-color="#f0f0f0"/>
      <stop offset=".03" stop-color="#c7c7c7"/>
      <stop offset=".05" stop-color="#a1a1a1"/>
      <stop offset=".08" stop-color="#818181"/>
      <stop offset=".11" stop-color="#666"/>
      <stop offset=".14" stop-color="#505050"/>
      <stop offset=".17" stop-color="#3f3f3f"/>
      <stop offset=".22" stop-color="#333"/>
      <stop offset=".29" stop-color="#2c2c2c"/>
      <stop offset=".47" stop-color="#2b2b2b"/>
      <stop offset=".66" stop-color="#0f0f0f"/>
    </linearGradient>
    <linearGradient id="White_Black-2" data-name="White, Black" x1="-909.03" y1="33.49" x2="-796.24" y2="33.49" xlink:href="#White_Black"/>
    <linearGradient id="New_Gradient_Swatch-2" data-name="New Gradient Swatch" x1="1234.01" y1="759.08" x2="1425.65" y2="759.08" xlink:href="#New_Gradient_Swatch"/>
  </defs>
  <g>
    <path class="cls-27" d="M3.92,771.5c.11,56.31,.14,112.61,.16,168.91,.02,45.83,0,91.66-.08,137.5,.57,0,1.14,0,1.72,0,148.89,0,297.78,.39,446.66,1.8,116.19-.8,232.4-.96,348.59-.96,152.18,0,304.36,.41,456.53,1.9,13.02,.08,26.05,.21,39.07,.36h620.35v-309.5H3.92Z"/>
    <rect class="cls-71" x="568.9" y="-567.5" width="784" height="1920" transform="translate(1353.4 -568.4) rotate(90)"/>
    <polygon class="cls-55" points="1715.55 111.5 117.73 111.5 116.4 53.17 1715.55 53.5 1715.55 111.5"/>
    <g>
      <rect class="cls-72" x="944.4" y="11" width="714" height="590"/>
      <g>
        <rect class="cls-40" x="1002.9" y="78.5" width="598" height="181"/>
        <line class="cls-2" x1="1002.88" y1="259.2" x2="1059.88" y2="223.2"/>
        <line class="cls-2" x1="1059.4" y1="223" x2="1060.4" y2="78"/>
        <line class="cls-2" x1="1059.7" y1="223.36" x2="1600.4" y2="223"/>
      </g>
      <g>
        <rect class="cls-40" x="1002.18" y="303.04" width="598" height="181"/>
        <line class="cls-2" x1="1002.66" y1="484.24" x2="1059.66" y2="448.24"/>
        <line class="cls-2" x1="1059.48" y1="448.4" x2="1600.18" y2="448.04"/>
        <line class="cls-2" x1="1059.18" y1="448.04" x2="1060.18" y2="303.04"/>
      </g>
    </g>
    <path class="cls-41" d="M1442.96,784.11c-125-1-1202,1-1327,0"/>
    <path class="cls-71" d="M116.45,780.7L.77,735.89c.18,68.18,.22,136.35,.25,204.52,.02,46.14,0,92.28-.08,138.42l115.5-298.13Z"/>
    <path class="cls-71" d="M1921.23,920.79c-.02-53.83,0-107.66,.12-161.49l-37.31-52.76-153.43,108.5,190.77,269.77c-.1-54.67-.13-109.35-.16-164.02Z"/>
    <line class="cls-3" x1="102.4" y1="821.01" x2="836.4" y2="822"/>
    <line class="cls-3" x1="82.4" y1="872" x2="813.75" y2="872.65"/>
    <line class="cls-3" x1="59.25" y1="931.15" x2="798.75" y2="931.65"/>
    <line class="cls-3" x1="34.39" y1="997" x2="1860.4" y2="999"/>
    <line class="cls-3" x1="8.4" y1="1061" x2="1904.4" y2="1061"/>
    <line class="cls-2" x1="1570.4" y1="589" x2="1920.4" y2="1084"/>
    <g class="cls-90">
      <g>
        <path class="cls-44" d="M1144.8,147.08h40.54c3.62,0,6.57,2.94,6.57,6.57v66.04h-54.84v-64.87c0-4.27,3.47-7.73,7.73-7.73Z"/>
        <rect class="cls-44" x="1158.15" y="130.9" width="10.55" height="9.55"/>
        <rect class="cls-44" x="1139.17" y="117.5" width="48.51" height="0"/>
      </g>
      <rect class="cls-44" x="1158.15" y="124.12" width="10.55" height=".04"/>
    </g>
    <path class="cls-90" d="M1150.9,240.5c10-4,56.9-24.24,40-17-7,3-18.24-.5-33.5-.5-4,0-44.5-7.5-48,4-4.4,14.46,30.68,3.68,38.5,11.5,2,2,1.7,2.52,3,2Z"/>
    <path class="cls-90" d="M1284.18,244.26c9.79-4.98,55.71-30.16,39.16-21.15-6.85,3.73-17.85-.62-32.8-.62-3.92,0-43.57-9.33-46.99,4.98-4.31,17.99,30.04,4.58,37.69,14.31,1.96,2.49,1.66,3.14,2.94,2.49Z"/>
    <g>
      <g>
        <path class="cls-28" d="M1104.13,162.04h36.99c3.62,0,6.57,2.94,6.57,6.57v68.4h-51.29v-67.23c0-4.27,3.47-7.73,7.73-7.73Z"/>
        <rect class="cls-29" x="1116.13" y="145.34" width="9.86" height="9.86"/>
        <rect class="cls-26" x="1098.37" y="131.5" width="45.37" height="0"/>
      </g>
      <rect class="cls-26" x="1116.13" y="138.34" width="9.86" height=".04"/>
    </g>
    <g>
      <g>
        <rect class="cls-44" x="1292.39" y="85.5" width="11.44" height="43.13"/>
        <rect class="cls-44" x="1292.39" y="108.86" width="11.44" height="43.13"/>
        <g>
          <path class="cls-44" d="M1296.29,119.65h2.48c10,0,18.12,8.12,18.12,18.12v82.52h-39.21v-82.03c0-10.27,8.34-18.61,18.61-18.61Z"/>
          <rect class="cls-44" x="1277.69" y="153.72" width="39.21" height="47.14"/>
        </g>
      </g>
      <line class="cls-44" x1="1292.39" y1="92.69" x2="1303.83" y2="92.69"/>
    </g>
    <g>
      <g>
        <rect class="cls-63" x="1257.15" y="90.5" width="13.42" height="49.28"/>
        <rect class="cls-52" x="1257.15" y="117.19" width="13.42" height="49.28"/>
        <g>
          <path class="cls-52" d="M1258.51,129.51h9.27c10,0,18.12,8.12,18.12,18.12v96.86h-46v-96.38c0-10.27,8.34-18.61,18.61-18.61Z"/>
          <rect class="cls-63" x="1239.9" y="168.45" width="46" height="53.86"/>
        </g>
      </g>
      <line class="cls-5" x1="1257.15" y1="98.71" x2="1270.57" y2="98.71"/>
    </g>
    <g>
      <rect class="cls-44" x="1309.05" y="368.18" width="23.09" height="36.63"/>
      <g>
        <rect class="cls-44" x="1266.34" y="385.42" width="108.5" height="59.26" rx="23.55" ry="23.55"/>
        <rect class="cls-44" x="1309.05" y="368.18" width="23.09" height="10.77"/>
        <rect class="cls-44" x="1283.93" y="398.35" width="73.6" height="33.47" rx="13.3" ry="13.3"/>
        <g>
          <path d="M1289.28,414.86c2.39,1.41,5.1,2.48,7.97,3.13,1.27,.29,2.68,.48,3.87,.03,3.04-1.16,2.15-5.27,4.97-6.73-.25,1.98,2.16,3.62,4.61,3.99s4.96-.14,7.44-.38c3.7-.35,7.6-.05,10.88,1.37,.58-1,1.2-2.04,2.27-2.74s2.72-.97,3.84-.31c.89,.53,1.57,1.62,2.65,1.41,.78-.15,1.07-.9,1.69-1.3,1.07-.68,2.69-.1,3.6,.7s1.56,1.85,2.75,2.38c1.72,.77,4.21-.02,4.79-1.52"/>
          <path d="M1283.98,423.93c2.37,1.38,4.94,2.47,7.53,3.35s5.48,1.58,8.14,1.5c3.84-.11,7.87-1.52,10.44-4.51,1.03-1.2,1.81-2.18,2.41-3.56s1.12-2.7,1.66-4.07l-1.06,2.51c.22-.51,.46-1,.78-1.46l-1.64,2.13c.23-.3,.48-.55,.78-.79l-2.13,1.64c.16-.12,.33-.22,.5-.31l-15.8-9.07c-.29,4.88,2.76,9.17,6.63,11.77,2.86,1.93,6.24,2.66,9.63,2.83,2.11,.11,4.19-.3,6.29-.49s4.18-.17,6.26,.11l-2.79-.38c1.59,.24,3.13,.64,4.62,1.26l2.79,.38c1.45,.05,2.79-.25,4.05-.9,2.09-.88,3.85-2.3,5.02-4.3,.33-.57,.67-1.12,1.07-1.64l-1.64,2.13c.27-.31,.54-.58,.85-.86l-2.13,1.64c.32-.24,.61-.41,.97-.58l-2.51,1.06c.36-.14,.7-.23,1.08-.31l-2.79,.38c.39-.04,.73-.05,1.11-.01l-2.79-.38c.24,.03,.47,.09,.69,.18l-2.51-1.06c.21,.09,.4,.2,.58,.33l-2.13-1.64c1.04,.81,2.01,1.73,3.12,2.45,1.61,1.05,3.16,1.45,4.99,1.7,4.22,.57,7.61-1.16,10.58-4.02l-2.13,1.64c.16-.15,.35-.26,.55-.34l-2.51,1.06,.33-.1-2.79,.38c.38-.05,.67-.04,1.05,0l-2.79-.38c.24,.05,.48,.12,.71,.21l-2.51-1.06c.34,.15,.64,.32,.95,.52l-2.13-1.64c.42,.34,.79,.72,1.16,1.11,.91,.96,1.97,1.75,3.03,2.53,2.11,1.54,4.89,2.25,7.47,2.32s5.06-.65,7.33-1.81c2.04-1.04,4.31-3.1,5.29-5.21,1.22-2.62,1.85-5.21,1.06-8.09-.67-2.44-2.55-5.08-4.83-6.28-2.44-1.29-5.39-1.93-8.09-1.06-2.46,.8-5.14,2.38-6.28,4.83-.07,.17-.15,.33-.26,.47l1.64-2.13c-.19,.23-.37,.41-.61,.6l2.13-1.64c-.26,.17-.51,.31-.8,.44l2.51-1.06c-.31,.11-.6,.19-.92,.26l2.79-.38c-.44,.06-.85,.06-1.29,.02l2.79,.38c-.32-.06-.6-.14-.91-.26l2.51,1.06c-.35-.18-.64-.36-.95-.6l2.13,1.64c-.64-.56-1.18-1.21-1.8-1.79-1.89-1.73-3.9-2.9-6.38-3.6-2.79-.79-5.75-.54-8.39,.58-1.89,.8-3.26,2.05-4.81,3.37l2.13-1.64-.26,.16,2.51-1.06-.31,.1,2.79-.38-.31,.03,2.79,.38c-.2,0-.39-.05-.57-.14l2.51,1.06c-.18-.09-.35-.19-.51-.32l2.13,1.64c-1.98-1.58-3.7-3.11-6.2-3.84s-5.27-.8-7.76-.1c-4.42,1.24-7.61,4.25-9.88,8.14l11.86-4.83c-3.54-1.47-7.62-1.94-11.43-1.87-3.24,.06-6.44,.93-9.68,.51l2.79,.38c-.65-.12-1.26-.29-1.88-.54l2.51,1.06c-.46-.21-.88-.45-1.3-.74l2.13,1.64c-.28-.22-.52-.44-.76-.71l1.64,2.13c-.2-.27-.36-.51-.5-.81l1.06,2.51c-.08-.19-.13-.38-.16-.58l.38,2.79c-.03-.2-.03-.41,0-.61,.22-3.63-2.15-7.28-5.2-9.07-3.27-1.91-7.33-1.86-10.6,0-2.22,1.26-4.17,3.22-5.41,5.45-.87,1.56-1.41,3.29-2.08,4.95l1.06-2.51c-.21,.51-.45,.98-.77,1.43l1.64-2.13c-.23,.29-.47,.53-.77,.76l2.13-1.64c-.26,.17-.5,.29-.78,.41l2.51-1.06c-.27,.1-.54,.17-.82,.21l2.79-.38c-.59,.06-1.15,.05-1.74,0l2.79,.38c-2.15-.31-4.26-1-6.26-1.84l2.51,1.06c-1.03-.45-2.03-.96-3.01-1.52-2.36-1.37-5.46-1.78-8.09-1.06-2.44,.67-5.08,2.55-6.28,4.83-2.65,5.02-1.31,11.42,3.77,14.37h0Z"/>
        </g>
      </g>
    </g>
    <path class="cls-90" d="M1321.9,465.48c10.91-5.57,65.16-28.4,45.03-23.93-12.03,2.67-19.9-.7-36.55-.7-4.36,0-48.56-10.44-52.37,5.57-4.8,20.13,33.48,5.13,42.01,16.01,2.18,2.78,.47,3.77,1.89,3.05Z"/>
    <g>
      <rect class="cls-70" x="1272.11" y="389.5" width="23.09" height="36.63"/>
      <g>
        <rect class="cls-70" x="1229.4" y="406.74" width="108.5" height="59.26" rx="23.55" ry="23.55"/>
        <rect class="cls-67" x="1272.11" y="389.5" width="23.09" height="10.77"/>
        <rect class="cls-67" x="1246.99" y="419.67" width="73.6" height="33.47" rx="13.3" ry="13.3"/>
        <path class="cls-77" d="M1251.78,437.15c1.93,1.12,3.98,2.02,6.12,2.68s4.48,1.34,6.59,.59c1.48-.53,2.39-1.72,2.98-3.12s.89-2.95,2.26-3.73l-1.69-.97c-.27,4.58,5.93,5.44,9.21,5.17,2.45-.2,4.86-.62,7.33-.56s4.91,.5,7.22,1.45c.45,.19,1.04-.13,1.27-.52,.67-1.14,1.4-2.35,2.76-2.74s2.02,.35,3.06,1.07c.81,.56,1.77,.79,2.7,.39,1.04-.45,1.4-1.67,2.69-1.3,1.13,.33,1.78,1.36,2.6,2.12s1.7,1.25,2.77,1.41c1.88,.27,4.15-.51,5-2.32,.61-1.3-1.33-2.45-1.94-1.14-.42,.91-1.46,1.3-2.42,1.26-1.27-.05-2-1.01-2.82-1.84-1.45-1.47-3.86-2.59-5.74-1.2-.32,.24-.65,.82-1.03,.91-.46,.1-.83-.38-1.19-.66-.85-.69-1.76-1.08-2.87-1.07-2.63,.03-4.28,1.88-5.51,3.98l1.27-.52c-3.74-1.55-7.88-1.77-11.88-1.33-2.07,.23-4.2,.62-6.28,.37-1.51-.19-4.06-1.03-3.94-2.93,.05-.87-.99-1.37-1.69-.97-1.2,.68-1.93,1.72-2.46,2.97-.47,1.1-.75,2.59-1.75,3.36-1.55,1.21-4.23,.21-5.89-.3-1.96-.6-3.81-1.42-5.58-2.45-1.25-.73-2.39,1.22-1.14,1.94h0Z"/>
      </g>
    </g>
    <g>
      <g>
        <rect class="cls-44" x="1390.08" y="93.5" width="20.91" height="43.45"/>
        <rect class="cls-44" x="1390.08" y="117.03" width="20.91" height="43.45"/>
        <g>
          <path class="cls-44" d="M1381.8,127.9h34.97c10,0,18.12,8.12,18.12,18.12v83.26h-71.71v-82.77c0-10.27,8.34-18.61,18.61-18.61Z"/>
          <rect class="cls-44" x="1363.19" y="162.22" width="71.71" height="47.49"/>
        </g>
      </g>
      <line class="cls-44" x1="1390.08" y1="100.74" x2="1411" y2="100.74"/>
    </g>
    <g>
      <rect class="cls-44" x="1526.39" y="108.5" width="23.09" height="50.18"/>
      <g>
        <rect class="cls-44" x="1483.68" y="132.12" width="108.5" height="81.18" rx="23.55" ry="23.55"/>
        <rect class="cls-44" x="1526.39" y="108.5" width="23.09" height="14.76"/>
        <rect class="cls-44" x="1501.27" y="149.83" width="73.6" height="45.85" rx="13.3" ry="13.3"/>
        <g>
          <path d="M1506.63,172.44c2.39,1.94,5.1,3.4,7.97,4.28,1.27,.39,2.68,.66,3.87,.04,3.04-1.59,2.15-7.22,4.97-9.22-.25,2.71,2.16,4.96,4.61,5.47s4.96-.2,7.44-.52c3.7-.48,7.6-.06,10.88,1.87,.58-1.37,1.2-2.79,2.27-3.75s2.72-1.33,3.84-.43c.89,.72,1.57,2.22,2.65,1.93,.78-.21,1.07-1.24,1.69-1.78,1.07-.93,2.69-.14,3.6,.96s1.56,2.53,2.75,3.27c1.72,1.06,4.21-.03,4.79-2.08"/>
          <path d="M1499.2,179.86c2.56,2.04,5.06,3.9,8.07,5.2,4.34,1.87,8.85,3.43,13.62,1.99,2.22-.67,4.4-1.96,5.99-3.66,1.83-1.95,2.61-3.66,3.57-6.1,.62-1.58,.91-3.26,1.55-4.83l-1.06,2.51c.22-.5,.48-.96,.81-1.4l-1.64,2.13c.17-.2,.35-.38,.55-.56l-2.13,1.64,.21-.16-15.8-9.07c-.14,2.83,.75,5.93,2.28,8.31s3.77,4.64,6.37,5.86c2.86,1.34,5.81,2.13,9,1.96,2.58-.14,5.13-.7,7.68-1.05l-2.79,.38c1.8-.22,3.59-.24,5.39,0l-2.79-.38c1.38,.21,2.7,.57,3.99,1.11l-2.51-1.06c.51,.23,1.01,.48,1.5,.76,2.28,1.3,5.54,1.88,8.09,1.06,2.41-.78,5.23-2.38,6.28-4.83,.48-1.12,.98-2.22,1.73-3.19l-1.64,2.13c.26-.3,.51-.55,.82-.8l-2.13,1.64c.31-.21,.6-.37,.94-.51l-2.51,1.06c.22-.08,.45-.14,.68-.17l-2.79,.38c.23-.03,.45-.04,.68-.02l-2.79-.38c.23,.02,.44,.07,.66,.16l-2.51-1.06c.22,.09,.42,.2,.6,.35l-2.13-1.64c.46,.41,.81,.91,1.25,1.35,1.92,1.9,4.24,3.12,6.91,3.48s5.21-.04,7.59-1.45c2.04-1.21,3.34-2.97,4.66-4.87l-1.64,2.13c.12-.18,.26-.33,.42-.48l-2.13,1.64c.17-.15,.36-.26,.57-.33l-2.51,1.06,.31-.07-2.79,.38c.22-.03,.43-.02,.65,.03l-2.79-.38c.23,.05,.44,.12,.65,.22l-2.51-1.06c.22,.1,.43,.22,.62,.37l-2.13-1.64c.39,.31,.71,.64,1.02,1.03l-1.64-2.13c1.17,1.59,2.2,3.31,3.62,4.69,2.46,2.39,5.9,3.94,9.37,3.9,6.43-.06,11.53-4.23,13.52-10.2,.83-2.5,.25-5.86-1.06-8.09s-3.77-4.26-6.28-4.83c-5.8-1.32-11.05,1.75-12.92,7.33l-.1,.3,1.06-2.51c-.13,.3-.27,.54-.45,.81l1.64-2.13c-.2,.24-.4,.44-.64,.64l2.13-1.64c-.25,.18-.49,.32-.77,.46l2.51-1.06c-.29,.11-.55,.19-.85,.25l2.79-.38c-.3,.03-.57,.04-.87,.01l2.79,.38c-.3-.05-.55-.13-.84-.24l2.51,1.06c-.19-.09-.38-.21-.55-.34l2.13,1.64c-.37-.31-.68-.64-.98-1.01l1.64,2.13c-1.04-1.4-1.94-2.9-3.13-4.19-1.68-1.82-3.98-3.27-6.38-3.94-3.22-.91-6.76-.55-9.67,1.14-2.3,1.34-3.46,3.17-5.03,5.23l1.64-2.13-.21,.22,2.13-1.64-.23,.18,2.51-1.06c-.16,.1-.34,.15-.53,.15l2.79-.38-.25-.03,2.79,.38-.23-.09,2.51,1.06-.22-.13,2.13,1.64c-1.47-1.17-2.14-2.41-3.95-3.46-3.07-1.79-6.78-2.31-10.22-1.37-4.75,1.29-8.22,5.02-10.1,9.43l14.37-3.77c-3.73-2.12-7.58-3.07-11.82-3.42-3.5-.29-6.97,.49-10.41,1l2.79-.38c-1.25,.17-2.46,.24-3.72,.09l2.79,.38c-.51-.09-.97-.21-1.46-.38l2.51,1.06c-.55-.24-1.05-.53-1.54-.88l2.13,1.64c-.37-.31-.7-.63-1.02-1l1.64,2.13c-.29-.38-.52-.77-.73-1.2l1.06,2.51c-.13-.34-.22-.65-.3-1.01l.38,2.79c-.05-.37-.06-.7-.04-1.08,.18-3.64-2.13-7.27-5.2-9.07s-7.72-2.2-10.6,0c-2.15,1.65-3.34,2.59-4.83,4.92-.81,1.26-1.32,2.74-1.81,4.15s-.76,2.91-1.35,4.3l1.06-2.51c-.19,.41-.39,.78-.65,1.14l1.64-2.13c-.22,.27-.44,.5-.71,.72l2.13-1.64c-.27,.18-.5,.3-.8,.44l2.51-1.06c-.25,.09-.5,.15-.76,.18l2.79-.38c-.41,.03-.77,.02-1.18-.02l2.79,.38c-1.24-.2-2.42-.62-3.59-1.09l2.51,1.06c-2.01-.86-3.87-1.95-5.6-3.28l2.13,1.64-.34-.27c-2.26-1.8-4.41-3.08-7.42-3.08-2.58,0-5.65,1.14-7.42,3.08s-3.2,4.63-3.08,7.42c.12,2.6,.95,5.73,3.08,7.42h0Z"/>
        </g>
      </g>
    </g>
    <path class="cls-90" d="M1539.24,241.78c10.91-7.63,65.16-38.91,45.03-32.79-12.03,3.66-19.9-.95-36.55-.95-4.36,0-48.56-14.31-52.37,7.63-4.8,27.58,33.48,7.02,42.01,21.94,2.18,3.81,.47,5.17,1.89,4.18Z"/>
    <g>
      <g>
        <rect class="cls-44" x="1339.22" y="497.7" width="11.44" height="43.13"/>
        <rect class="cls-44" x="1339.22" y="521.07" width="11.44" height="43.13"/>
        <g>
          <path class="cls-44" d="M1343.12,531.85h2.48c10,0,18.12,8.12,18.12,18.12v82.52h-39.21v-82.03c0-10.27,8.34-18.61,18.61-18.61Z"/>
          <rect class="cls-44" x="1324.52" y="565.92" width="39.21" height="47.14"/>
        </g>
      </g>
      <line class="cls-44" x1="1339.22" y1="504.89" x2="1350.66" y2="504.89"/>
    </g>
    <g>
      <g>
        <rect class="cls-63" x="1319.87" y="505.5" width="13.42" height="49.28"/>
        <rect class="cls-66" x="1319.87" y="532.19" width="13.42" height="49.28"/>
        <g>
          <path class="cls-66" d="M1321.23,544.51h9.27c10,0,18.12,8.12,18.12,18.12v96.86h-46v-96.38c0-10.27,8.34-18.61,18.61-18.61Z"/>
          <rect class="cls-63" x="1302.62" y="583.44" width="46" height="53.86"/>
        </g>
      </g>
      <line class="cls-5" x1="1319.87" y1="513.71" x2="1333.29" y2="513.71"/>
    </g>
    <g>
      <rect class="cls-51" x="387.4" y="164" width="204.5" height="204.5" rx="102.25" ry="102.25"/>
      <g>
        <rect class="cls-22" x="398.35" y="174.96" width="182.59" height="182.59" rx="91.29" ry="91.29"/>
        <g>
          <rect class="cls-73" x="477.23" y="181.53" width="24.47" height="169.44"/>
          <rect class="cls-73" x="477.15" y="181.77" width="24.47" height="169.44" transform="translate(222.89 755.88) rotate(-90)"/>
        </g>
      </g>
      <path class="cls-82" d="M513.39,325.04s14.2-4.24,24.83-18.26c7.66-10.1,5.84-14.61,12.42-21.18,2.95-2.95,9.6-2.03,11.69,.73,4.67,6.19-10.6,26.21-25.2,38.34-4.57,3.79-20.68,17.19-28.48,12.42-2.37-1.45-4.38-4.81-3.65-7.3,.86-2.94,5.28-3.82,8.4-4.75Z"/>
      <path class="cls-82" d="M460.07,246.17s3.2-1.77,2.86-19.37c-.25-12.68,1.17-18.14,2.26-27.37,.49-4.14,6.18-10.95,8.03-8.03,5.11,8.03,.73,32.14-.06,50.13-.26,5.93,1.84,9.4-7.24,10.49-2.75,.33-3.68,1.44-5.84,0s-1.87-3.18,0-5.84Z"/>
      <path class="cls-83" d="M530.91,321.39s9.84-5.49,13.15-10.22c2.38-3.41,9.49-15.11,11.69-17.53,.99-1.08,3.33-5.53,4.38-5.11,2.36,.95-14.64,25-19.7,29.77-1.58,1.49-22.05,17.19-25.58,16.98-1.07-.07-.11-2.22,0-2.92,.13-.83,14.87-10.35,16.07-10.96Z"/>
      <path class="cls-82" d="M515.74,215.08c3.6,7.49-2.12,12.05,.49,17.66,2.91,6.27,11.76,4.21,15,11.73,.93,2.16,1.63,5.63,.02,7.34-1.61,1.71-4.28,.31-10.97-.33-9.17-.88-12.15,.97-14.54-1.41-1.18-1.18-1.34-2.53-1.26-9.66,.14-13.19,.78-18.34,3.06-23.92,1.87-4.58,3.21-5.43,4.2-5.46,2.03-.06,3.64,3.28,4.01,4.06Z"/>
      <path class="cls-81" d="M512.15,229.12c2.28,3.91-.5,6.71,1.16,9.64,1.86,3.28,6.41,1.68,8.51,5.62,.6,1.13,1.15,3,.39,4.02-.76,1.02-2.24,.4-5.8,.4-4.88,0-6.35,1.18-7.73,0-.68-.58-.84-1.31-1.16-5.22-.6-7.23-.53-10.08,.39-13.26,.75-2.61,1.41-3.14,1.93-3.21,1.07-.14,2.08,1.6,2.32,2.01Z"/>
      <path class="cls-82" d="M465.84,237.56s.98,.39,1.38-13c.29-9.65,.86-12.99,1.43-19.34,.26-2.85,2.11-4.89,2.56-1.7,1.26,8.79-.7,24.52-1.44,37.6-.24,4.31,.27,8.05-2.4,3.97-.81-1.24-1.11-.91-1.7-3.15s-.45-3.4,.17-4.39Z"/>
    </g>
    <g>
      <g>
        <rect class="cls-63" x="1257.15" y="90.5" width="13.42" height="49.28"/>
        <rect class="cls-52" x="1257.15" y="117.19" width="13.42" height="49.28"/>
        <g>
          <path class="cls-52" d="M1258.51,129.51h9.27c10,0,18.12,8.12,18.12,18.12v96.86h-46v-96.38c0-10.27,8.34-18.61,18.61-18.61Z"/>
          <rect class="cls-63" x="1242.9" y="168.45" width="40" height="53.86"/>
        </g>
      </g>
      <line class="cls-5" x1="1257.15" y1="98.71" x2="1270.57" y2="98.71"/>
    </g>
    <g class="cls-87">
      <line class="cls-31" x1="1384.87" y1="723.11" x2="1402.57" y2="723"/>
    </g>
    <path class="cls-55" d="M.9,157.5c12.81-8.91,114-104,114-104v58L.9,231.5"/>
    <line class="cls-2" x1="116.4" x2="116.4" y2="784.5"/>
    <line class="cls-2" x1="116.9" y1="783.5" x2="1.4" y2="1082"/>
    <path class="cls-82" d="M458.93,331.51c-.69-6.15,12.31-15.67,15.73-12.3,1.4,1.38,.08,3.53,1.5,13.25,.41,2.82,.75,4.73,.75,6.62,0,2.18-4.6-.21-6.74-.95-3.83-1.32-10.77-2.5-11.23-6.62Z"/>
    <path class="cls-82" d="M460.65,331.47c-.39-3.21,7.03-8.18,8.98-6.42,.8,.72,.05,1.84,.86,6.91,.24,1.47,.43,2.47,.43,3.46,0,1.14-2.63-.11-3.85-.49-2.19-.69-6.15-1.3-6.41-3.46Z"/>
    <polygon class="cls-55" points="1919.55 231.4 1714.55 110.4 1714.55 52.4 1919.55 141.4 1919.55 231.4"/>
    <g>
      <path class="cls-24" d="M1537.47,327.96c-2.23-.85-17.15,11.74-47,33.51-3.23,2.36-11.35,8.29-23.5,11.17-6.52,1.55-15.27,3.63-23.5,0-11.47-5.06-11.12-16.45-17.62-16.76-6.71-.31-8.16,11.76-23.5,27.93-9.54,10.06-12.82,9.43-17.62,16.76-5.92,9.03-6.58,18.58-5.87,33.51,1,21.21,10.6,25.24,15.13,56.91,3.35,23.45,8.01,41.11,8.37,54.79,.37,14.06-3.64,19.48-5.87,39.1-1.34,11.73-8.88,37.41,0,39.1,88.12,16.76,276.1,0,276.1,0,35.25-5.59,23.5-27.93,17.62-55.85-5.93-28.17-5.87-39.1-23.5-94.95-24.56-77.83-15.05-85.17-35.25-100.53-29.37-22.34-64.62-33.51-93.99-44.68Z"/>
      <path class="cls-54" d="M1389.79,631.88c9.9,2.31,21.12-9.21,35.75-24.23,14.18-14.56,49.45-50.78,25.88-96.42-8.78-16.99-32.17-47.81-50.74-47.27-41.72,1.21-44.14,160.16-10.89,167.93Z"/>
      <path class="cls-41" d="M1461.38,374.09l82.78,39.98c14.31-19.26-5.76-89.06-5.76-89.06l-77.02,49.09Z"/>
      <rect x="1476.35" y="432.91" width="10.05" height="9.27" rx="4.25" ry="4.25"/>
      <rect x="1488.07" y="481.45" width="10.05" height="9.27" rx="4.25" ry="4.25"/>
      <rect x="1496.45" y="527.26" width="10.05" height="9.27" rx="4.25" ry="4.25"/>
      <rect x="1502.71" y="566.79" width="10.05" height="9.27" rx="4.25" ry="4.25" transform="translate(-62.31 204.35) rotate(-7.6)"/>
      <path class="cls-4" d="M1460.99,377.55c4.6,19.24,7.58,28.16,9.49,32.72,.06,.15,1.34,3.19,3.91,9.27,3.66,8.69,3.79,8.99,3.91,9.27,3.68,8.8,6.19,19.02,7.26,23.45,5.94,24.51,8.91,36.76,11.73,51.81,5.61,29.92,8.55,54.17,10.05,68.17,2.09,19.44,3.24,36.28,3.91,49.63"/>
      <path d="M1580.76,454.18c1.83,20.09,5.75,39.86,10.68,59.37,5.06,19.41,11.09,38.76,20.02,56.8-20.39-28.47-33.08-81.3-30.71-116.16h0Z"/>
      <path d="M1620.14,570.56c-28.48,11.24-55.64,26.01-81.03,43.04-8.41,5.77-16.6,11.86-24.26,18.74,22.44-27.48,70.7-54.24,105.3-61.78h0Z"/>
      <g>
        <path class="cls-54" d="M1399.72,370.29c-23.91,7.14-69.68,149.47-21.06,258.43"/>
        <path d="M1399.72,370.29c-8.45,3.86-14.45,19.22-17.8,27.59-24.86,60.45-29.81,135.26-12.76,198.39,2.45,11,5.65,21.83,9.5,32.45-5.32-10.05-9.71-20.58-13.35-31.37-14.94-55-12.69-113.9,1.77-168.76,4.65-16.38,9.78-33.15,19.9-47.13,3.37-4.47,7.17-9.5,12.75-11.16h0Z"/>
      </g>
      <path class="cls-41" d="M1464.62,371.3l-59.85,61.61c-17.21-14.4-3.96-77.99-3.96-77.99l63.81,16.38Z"/>
      <g>
        <g>
          <g>
            <g>
              <path class="cls-25" d="M1517.16,143.82c3.11,2.78-10.08,14.25-7.96,31.2,1.72,13.75,11.53,15.17,22.63,34.38,13.27,22.95,11.61,42.26,18.52,42.7,6.41,.41,7.82-16.2,18.66-18.43,10.11-2.08,23.8,9.3,27.43,22.71,2.8,10.37,.31,24.21-8.59,29.37-17.9,10.37-25.39-8.01-25.06-.33,.51,11.71-29.52,78.07-96.75,108.4-35.17,15.86-88.86-36.26-100.31-82.2-2.5-10.01,.84-8.05-1.14-53.5-.52-11.87-1.33-26.17,5.02-43.19,2.3-6.17,3.71-9.93,6.55-13.69,14.75-19.54,46.84-10.96,78.82-18.57,16.83-4,38.94-13.74,62.19-38.85Z"/>
              <path class="cls-32" d="M1509.98,155.68c-6.14,1.43-21,30.16-59.11,35.32-17.13,2.32-23.93,3.37-39.24,2.69-37.69-1.67-43.45,40.39-50.71,32.29-9.03-10.09-10.77-30.63-4.57-54.17,5.86-22.26,35.46-41.87,83.59-47.63,39.93-4.77,56.32-2.67,68.56,2.48,23.46,9.87,7.51,19.43,16.64,14.65,10.6-5.55,30.02,13.57,34.15,33.92,4.02,19.84,18.11,49.07,9.57,67.87-5.3,11.69-16.49,24.11-23.65,22.12-6.35-1.77-12.14-12.66-11.76-31.02,.44-21.6-19.32-20.85-25.7-36.48-9.1-22.3,2.23-42.02,2.23-42.02Z"/>
              <path class="cls-74" d="M1404.16,267.86h0c-4.49,.36-8.43-2.9-8.8-7.28l-.12-1.4c-.37-4.38,2.97-8.23,7.46-8.59h0c4.49-.36,8.43,2.9,8.8,7.28l.12,1.4c.37,4.38-2.97,8.23-7.46,8.59Z"/>
              <path class="cls-74" d="M1469.66,262.59h0c-4.49,.36-8.43-2.9-8.8-7.28l-.12-1.4c-.37-4.38,2.97-8.23,7.46-8.59h0c4.49-.36,8.43,2.9,8.8,7.28l.12,1.4c.37,4.38-2.97,8.23-7.46,8.59Z"/>
              <path class="cls-60" d="M1429.63,275.92c-.87,3.94-3.46,7.35-6.07,10.31-1.27,1.48-2.38,3.05-2.31,4.66,.26,3.49,2.89,6.77,5.84,8.51,3.54,2.13,6.42,1.17,10.01-.66,5.57-2.63,12.14-3.47,18.18-2.81,4.26,.6,6.58-.22,8.01-4.29,1.2-3.45-.35-7.31-3.93-8.57-3.57-1.49-7.84-.61-10.66,2.13,1.22-1.58,2.93-2.84,4.91-3.48,4.04-1.25,9.18-.05,11.3,3.98,2.02,4.15,.73,9.5-3.24,12.13-2.04,1.23-4.43,1.02-6.59,.92-3.89-.27-7.65-.13-11.4,.84-4.04,.73-7.34,3.35-11.47,3.88-6.82,.18-12.84-5.99-12.98-12.65,.13-2.31,1.7-4.12,3.21-5.62,2.93-2.73,5.63-5.53,7.19-9.28h0Z"/>
              <path class="cls-60" d="M1463.08,284.51c6.9,11.32,15.65,14.29,27.71,17.6,2.77,.89,6.5,1.27,8.4,3.87,2.46,3.45,3.05,8.35,1.38,12.19,.44-3.4-.28-6.79-2.11-9.59-1.09-1.92-2.81-2.57-4.99-2.99,0,0-3.39-.73-3.39-.73-12.14-2.76-23.13-7.52-27.01-20.35h0Z"/>
              <path class="cls-60" d="M1422.91,284.69c-2.39,8.81-6.94,15.98-16.7,17.03-3.25,.68-6.29,2.21-9.12,3.89-1.9,1.07-3.19,2.51-4.06,4.49-1.74,4.1-1.4,8.92-.65,13.32-1.04-2.12-1.71-4.42-2.07-6.8-1.26-9.37,3.65-13.55,11.72-16.78,3.44-1.37,6.84-1.08,9.97-2.57,5.03-2.61,7.97-7.61,10.91-12.57h0Z"/>
              <path class="cls-60" d="M1412.49,336.73c10.04,10.46,23.06,19.82,38.1,18.53,12.35-1.1,22.29-9.33,29.88-18.87-2.92,6.32-7.39,12.07-13.19,16.33-19.53,14.6-43.74,3.28-54.8-16h0Z"/>
              <path d="M1426.04,216.6c-3.34,5.43-9.62,9.78-16.35,9.84-2.14,.1-4.6-.53-6.54-1.02-3.4-.85-6.9-.39-10.43,1-3.55,1.35-6.94,3.55-10.54,5.74,2.11-3.64,4.98-6.9,8.76-9.24,3.81-2.44,8.87-3.5,13.34-2.36,2.23,.57,3.72,1.06,5.5,1.16,5.88,.37,10.93-2.13,16.26-5.11h0Z"/>
              <path d="M1449.93,225.5c9.8,3.25,17.54,3.09,26.91-.85,10.44-4.13,21.14,1.13,26.81,10.1-6.02-3.8-11.95-7.21-18.91-6.8-4.62,.27-8.69,2.68-13.46,3.54-7.53,1.49-15.84-.96-21.35-6h0Z"/>
            </g>
            <path class="cls-34" d="M1408.2,318.08l73.49-4.92s-7.47,16.83-9.88,19.17c-6.59,6.41-13.49,10.06-18.2,11.14-3.91,.9-16.65,2.81-28.58-4.12-4.94-2.87-16.84-21.27-16.84-21.27Z"/>
            <path d="M1408.31,301.85c1.9-1.99,2.16-5.26-.78-6.32-2.45-.87-5.18-.2-7.56,.66-1.61,.63-3.19,1.43-4.31,2.61-2.42,2.41-1.87,6.22,.04,8.77,2,2.63,5.24,4.24,8.39,5.21,13.59,4.09,28.69-4.34,39.73-11.77,0,0,.89,.77,.89,.77,6.5,5.22,14.87,8.32,23.18,8.78,6.35,.3,12.78-.7,18.86-2.67,3.88-1.27,8.17-2.64,11.01-5.57,4.73-5.41-1.96-11.5-7.9-10.55-3.4,0-14.35,4.11-7.37,7.63,3,.98,6.65,.04,8.83-2.31-2.04,2.58-5.83,3.85-9.04,2.94-1.65-.44-3.49-2.22-2.79-4.13,.68-1.7,2.28-2.72,3.77-3.57,5.98-3.43,15.49-3.35,17.93,4.41,1.58,5.15-3.26,9.29-7.4,11.14-14.24,6.7-31.42,8.08-45.4-.02-2.03-1.16-3.85-2.34-5.66-3.9,0,0,1.85,.11,1.85,.11-3.05,2.09-6.14,3.9-9.37,5.58-9.61,4.93-21.08,9.03-31.81,5.3-14.56-4.61-15.41-20.26,1.66-20.6,4.69,.11,6.79,4.11,3.26,7.5h0Z"/>
            <path class="cls-14" d="M1450.25,364.06c-.62-.05-6.98-.51-10.05,2.69-3.26,3.4-.52,8.53,4.12,17.26,2.4,4.5,3.55,5.23,4.63,5.28,3.16,.16,6.05-5.38,7.66-8.47,2.66-5.12,4.83-9.28,2.35-12.75-2.39-3.35-7.56-3.91-8.71-4.01Z"/>
            <path class="cls-54" d="M1410.4,319.06c.23-.16,69.12-5.15,69.37-5.03s-1.72,2.06-2.87,3.11c-10.75,9.83-47.03,12.21-62.68,4.49-2.51-1.24-4.05-2.42-3.83-2.57Z"/>
          </g>
          <path class="cls-56" d="M1465.14,323.13l-5.66,1.4c-.39,.03-.03-.31-.06-.69l-.69-8.18,8.13-.65,.59,7c.04,.46-1.84,1.09-2.31,1.13Z"/>
          <path class="cls-86" d="M1360.92,225.97c1.62-3.66,3.44-7.23,5.39-10.73,1.95-3.5,4-6.95,6.19-10.31,2.18-3.37,4.46-6.69,6.95-9.87,2.49-3.18,5.13-6.28,8.19-9.08,.77-.7,1.56-1.38,2.41-2.01,.87-.65,1.62-1.19,2.47-1.8,1.68-1.2,3.56-2.31,5.51-3.16,3.91-1.75,8.02-2.57,12.06-3.19,4.06-.59,8.11-.9,12.15-1.11,2.01-.05,4.04-.15,6.12-.11l6,.14c7.9,.13,15.74-.02,23.48-1.16,7.75-1.03,15.34-2.96,22.67-5.7,3.66-1.38,7.24-3,10.72-4.81,3.5-1.78,6.91-3.78,10.21-5.94,6.64-4.3,12.81-9.34,18.74-14.72-10.17,12.33-23.15,22.71-38.15,29.19-1.87,.8-3.75,1.6-5.69,2.24l-2.9,.99-2.94,.87c-3.93,1.11-7.91,2.06-11.95,2.64-8.06,1.25-16.25,1.62-24.31,1.32l-5.97-.2c-1.91-.07-3.88,0-5.86,.04-3.94,.09-7.87,.26-11.73,.7-1.93,.23-3.85,.5-5.71,.91-1.88,.37-3.71,.85-5.44,1.52-1.75,.66-3.38,1.5-5,2.53-.79,.51-1.71,1.08-2.45,1.61-.77,.53-1.53,1.11-2.27,1.72-2.97,2.45-5.69,5.31-8.27,8.29-2.57,3-5.06,6.09-7.42,9.28-4.7,6.41-9.22,12.99-13.18,19.93Z"/>
          <path class="cls-84" d="M1361.18,226.19c-.96-8.41-1-17.03,.69-25.42,1.64-8.38,5.17-16.51,10.65-23.22,5.45-6.74,12.74-11.87,20.68-15.28,1.99-.85,4.02-1.6,6.08-2.26,1.03-.33,2.07-.63,3.09-.92,1.02-.28,2.16-.58,3.25-.76,4.4-.73,8.78-.65,13.08-.26,2.13,.18,4.34,.53,6.3,.69,2.04,.16,4.15,.22,6.24,.26,4.19,.12,8.4,.09,12.61-.02,4.2-.14,8.41-.28,12.61-.57,4.2-.29,8.38-.68,12.56-1.13,8.35-.95,16.67-2.29,24.81-4.34,8.13-2.07,16.17-4.74,23.58-8.92-3.38,2.59-7.09,4.76-10.95,6.6-3.86,1.86-7.87,3.39-11.94,4.71-8.16,2.64-16.57,4.4-25.04,5.59-4.23,.62-8.49,1.06-12.75,1.39-4.26,.32-8.53,.58-12.8,.64-4.27,.07-8.55,.05-12.83-.11-2.14-.1-4.28-.23-6.45-.47-2.26-.26-4.23-.65-6.32-.88-4.12-.48-8.28-.81-12.29-.32-1.02,.13-1.94,.3-2.97,.56-1.02,.26-2.02,.53-3.02,.82-2,.58-3.96,1.26-5.89,2.03-7.71,3.08-14.78,7.85-20.21,14.16-5.49,6.28-9.12,14.07-11.06,22.24-1.95,8.19-2.29,16.75-1.72,25.2Z"/>
          <g class="cls-91">
            <path class="cls-85" d="M1516.4,146.23c-.22,1.36-.42,2.71-.72,4.06-.3,1.36-.67,2.69-1.12,3.99-.89,2.61-1.77,5.15-2.35,7.78-.57,2.62-1.08,5.35-1.4,7.97-.3,2.64-.26,5.29,.08,7.91,.67,5.25,2.49,10.32,5.43,14.68,2.86,4.4,6.9,8.06,10.95,11.56,1.02,.85,2.06,1.66,3.15,2.41,1.09,.76,2.25,1.46,3.44,2.33,1.19,.88,2.28,1.94,3.21,3.05,.93,1.08,1.79,2.33,2.48,3.58,1.4,2.52,2.41,5.25,2.95,8.09,.27,1.42,.4,2.87,.39,4.31,0,.74-.03,1.41-.07,2.11-.03,.69-.11,1.49-.23,2.17l-.34,2.03-.17,1.01c-.05,.31-.09,.63-.13,.96-.14,1.31-.21,2.65-.22,3.99-.02,2.68,.24,5.36,.75,7.99,.25,1.32,.59,2.62,.99,3.91,.44,1.27,.85,2.58,1.53,3.68,.65,1.11,1.75,1.91,3.06,2.13,1.3,.23,2.69-.03,3.95-.55-1.2,.64-2.57,1.08-4.01,.98-.71-.05-1.42-.27-2.06-.63-.64-.37-1.18-.89-1.61-1.47-.88-1.17-1.37-2.47-1.93-3.75-.51-1.29-.96-2.62-1.32-3.97-.72-2.7-1.12-5.48-1.27-8.27-.07-1.4-.08-2.8,.02-4.22,.02-.35,.05-.71,.1-1.08l.13-1.02,.25-2.03c.08-.67,.12-1.24,.12-1.92,0-.67,0-1.37-.02-2-.06-1.29-.2-2.57-.47-3.84-.55-2.53-1.53-4.97-2.84-7.2-1.32-2.19-2.99-4.22-4.99-5.69-1.02-.74-2.21-1.45-3.37-2.25-1.17-.79-2.3-1.65-3.39-2.55-2.17-1.82-4.14-3.68-6.13-5.69-1.95-2.02-3.78-4.2-5.33-6.6-3.09-4.8-4.94-10.35-5.47-15.98-.26-2.82-.18-5.68,.26-8.46,.21-1.39,.51-2.76,.83-4.1,.33-1.33,.65-2.67,1.04-4.01,.74-2.69,1.85-5.26,2.92-7.76,.51-1.26,1.09-2.5,1.56-3.77,.46-1.28,.91-2.58,1.36-3.88Z"/>
          </g>
        </g>
        <path class="cls-92" d="M1582.16,289.75c.66,.32,1.22,.91,1.6,1.64,.37,.74,.54,1.53,.53,2.37,0,.84-.2,1.76-.63,2.57-.44,.81-1.05,1.53-1.76,2.08-1.42,1.13-3.06,1.63-4.67,1.86-.73,.09-1.83,.13-2.78-.12-.96-.24-1.86-.65-2.61-1.2-.76-.56-1.39-1.14-1.97-1.96-.57-.85-.94-1.7-1.14-2.63-.21-.91-.22-1.79-.16-2.57,.03-.39,.07-.76,.13-1.1l.1-.63c.05-.25,.11-.49,.19-.72,.67-1.81,1.84-2.9,3.05-3.76,.69-.51,1.54-.83,2.31-.87,.78-.06,1.53,.06,2.19,.35-1.34,.51-2.35,1.3-2.73,2.21-.6,1.05-1.05,2.19-1.03,2.98,0,.1,0,.18,.02,.26l.02,.12,.02,.24,.08,.89c.08,.55,.18,1,.32,1.37,.14,.35,.36,.72,.56,.96,.23,.23,.57,.58,.9,.78,.33,.22,.65,.4,.98,.48,.34,.09,.59,.15,1.18,.14,1.02,0,2.04-.15,2.86-.48,.82-.34,1.5-.8,1.96-1.73,.42-.96,.84-2.09,.49-3.54Z"/>
      </g>
      <g>
        <path class="cls-12" d="M1456.4,402.09c-1.24-2.35-7.3-2.17-16.91-4.52-1.84-.45-2.81-1.82-16.32-2.98-1.14-.1-9.03,.34-10.67,1.72-1.89,1.59-2.1,4.36-2.18,6.01-.41,8.69,1.44,17.17,2.11,20.13,1.5,6.69,2.81,11.31,5.31,16.52,1.73,3.59,2.99,5.29,4.9,6.31,3.13,1.66,6.6,.37,10.19-.89,2.43-.85,4.49-2.11,8.62-4.61,3.34-2.02,5.45-3.3,8.19-5.47,3.29-2.6,4.93-3.9,6.47-6.03,1.85-2.57,3.46-5.99,4.06-5.72,.21,.1,.09,.57,.49,1.09,.39,.51,1.02,.7,1.77,.79,1.61,.2,2.91-.16,4.18-.48,.13-.03,1.23-.28,3.43-.78,2.07-.47,4.13-.99,6.22-1.42,1.67-.35,2.74-.53,3.27-1.47,.24-.43,.39-1.07,.85-1.15,.31-.06,.57,.17,1.02,.49,.58,.4,1.23,.65,1.83,1.02,.68,.42,6.82,3.5,17.18,4.7,8.33,.96-.18,.36,11.27,.78,1.47,.05,10.21-1.02,11.79-2.69,1.48-1.57,1.4-3.87,1.32-6.77-.43-14.61-.16-13.43-.43-15-.81-4.8-1.99-7.91-4.18-13.66-4.78-12.58-7.62-13.74-8.79-14.05-1.44-.38-2.72-.09-3.59,.1-3.06,.68-2.23,.21-6.8,2.75-1.81,1.01-5.3,3.37-5.3,3.37-2.45,1.45-3.38,2.31-5.99,4.25-4.22,3.12-3.7,2.83-5.61,4.88-.37,.4-1.14,1-4.33,4.58-.89,1,0,0,0,0-1.42,1.25-3.04,2.43-3.47,3.43-.39,.9-.09,1.61-.48,1.79-.46,.21-1.1-.72-1.88-1.25-1.34-.9-2.8-.38-5.58,.32-5.7,1.43-6.53,1.23-9.59,2.43-2.69,1.05-1.59,2.94-2.35,1.5Z"/>
        <path class="cls-33" d="M1456.73,402.49c-1.27,6.04-.23,12.27,3.45,20.06"/>
        <path class="cls-33" d="M1475.81,399.09c3.29,5.24,4.84,11.4,4.47,20.07"/>
        <path class="cls-68" d="M1497.26,379.6c.09,.16-2.55,2.91-8.09,7.78-3.78,3.32-1.21,1.2-5.76,5.21-.37,.33-1.11,1.05-3.14,3.88-.5,.7-1.35,1.55-1.23,2.41,.14,1,.83,2.15,1.69,2.35,.61,.14,1.12-.25,1.27-.35,2.18-1.37,4.97-1.27,7.45-1.95,.92-.25,4.26-1.12,6.97-1.73,.04,0,.97-.21,2.25-.38,1.28-.17,2.62-.34,2.68-.13,.07,.27-1.66,.88-5.3,2.43-4.82,2.06-3.63,1.79-6.53,2.95,0,0-1.61,.65-5.03,2.61-.78,.45-1.82,1.07-1.97,2.16,0,0-.1,.76,.39,1.62,1.82,3.17,16.26,.78,16.38,1.38,.06,.28-2.92,1.39-6.53,1.98-2.68,.44-5.24,1.44-7.93,1.81-.37,.05-1.28,.17-1.6,.85-.41,.86,.35,2.11,.61,2.54,2.49,4.11,20.1,8.05,20.08,8.33,0,.15-5.4-.97-13.76-2.71-4.65-.97-9-1.09-9.9-3.57-.26-.72,.06-2.14,.08-3.43,.05-2.91,.29-4.63-.7-8.6-1.63-6.49-4.65-7.69-3.14-9.33,9.69-10.51,20.49-18.6,20.75-18.15Z"/>
        <path class="cls-68" d="M1439.26,441.36c-.1-.16,2.48-2.95,7.9-7.92,3.7-3.39,1.18-1.22,5.64-5.32,.37-.34,1.08-1.07,3.05-3.92,.48-.7,1.32-1.57,1.18-2.41-.16-.98-.88-2.09-1.74-2.27-.61-.12-1.11,.28-1.26,.38-2.15,1.42-4.94,1.4-7.39,2.15-3.84,1.17-6.1,1.83-9.15,2.36-2.26,.4-2.64,.32-2.67,.21-.08-.26,1.64-.92,5.23-2.56,4.77-2.18,3.59-1.88,6.45-3.12,0,0,1.59-.69,4.96-2.73,.77-.46,1.8-1.11,1.92-2.19,0,0,.09-.75-.42-1.58-1.88-3.07-16.24-.27-16.38-.85-.06-.27,2.88-1.46,6.48-2.16,2.66-.52,5.2-1.58,7.88-2.03,.36-.06,1.27-.21,1.58-.89,.39-.86-.39-2.07-.66-2.49-2.57-3.98-20.23-7.32-20.22-7.6,0-.15,5.41,.79,13.79,2.25,4.66,.81,10.03,1,10.97,3.42,.27,.7-.26,3.34-.25,4.61,.02,2.87-.14,3.81,.94,7.69,1.76,6.36,3.76,7.88,2.29,9.54-9.45,10.66-19.85,17.86-20.12,17.43Z"/>
        <path d="M1479.29,405.6c5.7-4.7,13.05-7.25,20.33-8.12-7.01,2.25-13.85,4.58-20.33,8.12h0Z"/>
        <path d="M1480.79,411.9c5.96,.14,11.57-1.1,17.46-1.76-5.51,2.01-11.67,3.29-17.46,1.76h0Z"/>
        <path d="M1455.89,409.4c-6.28-.1-12.23,1.54-18.47,2,5.91-1.81,12.31-3.49,18.47-2h0Z"/>
        <path d="M1437.93,423.31c6.56-1.91,12.62-4.77,19.03-7.09-5.77,3.55-12.2,6.53-19.03,7.09h0Z"/>
      </g>
      <path d="M1420.51,463.99c13.82,19.28,14.53,55.55,16.68,79.02,1.48,20.16,2.65,40.43,6.77,60.25,1.37,6.59,3.17,13.09,5.58,19.43-3.23-5.98-5.57-12.42-7.49-18.96-7.29-25.84-8.27-54-10.23-80.68-.97-13.43-1.93-26.91-4.66-40.09-1.35-6.57-3.35-13.03-6.65-18.97h0Z"/>
    </g>
    <g>
      <g>
        <rect class="cls-39" x="822.84" y="599.3" width="981.56" height="355.6"/>
        <path class="cls-42" d="M812.9,951.9h1001.5c7.73,0,14,6.27,14,14v19.87H798.9v-19.87c0-7.73,6.27-14,14-14Z"/>
        <rect class="cls-43" x="803.4" y="589.5" width="1014" height="15.8"/>
      </g>
      <g>
        <rect class="cls-23" x="1320.83" y="631.23" width="178.07" height="290.37" rx="37.67" ry="37.67"/>
        <rect class="cls-17" x="1563.48" y="631.23" width="178.07" height="290.37" rx="37.67" ry="37.67"/>
        <rect class="cls-18" x="1084.06" y="631.23" width="178.07" height="290.37" rx="37.67" ry="37.67"/>
      </g>
    </g>
    <g>
      <g class="cls-79">
        <path class="cls-50" d="M1580.99,1011.5l77.96,4.81c10.98,.68,14.12,8.66,7.02,17.83h0c-7.1,9.17-21.76,16.05-32.74,15.37l-77.96-4.81c-10.98-.68-14.12-8.66-7.02-17.83h0c7.1-9.17,21.76-16.05,32.74-15.37Z"/>
        <polygon class="cls-48" points="1616.32 1029.83 1601.64 1028.21 1628.9 797.5 1642.9 797.5 1616.32 1029.83"/>
        <polygon class="cls-49" points="1735.89 795.37 1543.81 796.52 1556.41 762.33 1745.07 761.5 1735.89 795.37"/>
      </g>
      <g>
        <g>
          <path class="cls-80" d="M1570.68,1016.41l79.13,5.76c11.14,.81,14.32,9.55,7.1,19.52h0c-7.23,9.97-22.12,17.39-33.26,16.58l-79.13-5.76c-11.14-.81-14.32-9.55-7.1-19.52h0c7.23-9.97,22.12-17.39,33.26-16.58Z"/>
          <path class="cls-68" d="M1570.69,1016.26c25.58,2.04,51.23,3.23,76.83,4.96,1.75,.12,4.04,.23,5.75,.7,6.28,1.47,9.59,6.6,7.99,12.95-4.03,14.11-23.43,25.35-37.71,24.6-25.6-1.7-51.23-3.18-76.8-5.34-2.27-.21-4.88-.34-7.03-1.18-6.34-2.15-8.78-8.16-6.43-14.31,5.08-13.17,23.66-23.2,37.39-22.37h0Zm-.02,.3c-11.96-.38-23.68,6.2-31.22,15.14-6.57,7.87-7.49,18.6,5.26,19.39,26.37,1.58,52.7,3.89,79.03,5.98,5.73,.39,11.62-1.24,16.92-3.74,5.31-2.54,10.25-6.02,14.09-10.47,6.05-6.67,8.44-17.39-2.93-19.62-27.02-2.4-54.09-4.79-81.15-6.68h0Z"/>
        </g>
        <g>
          <rect class="cls-19" x="1589.9" y="768.5" width="15" height="269"/>
          <rect class="cls-13" x="1501.9" y="740.5" width="195" height="37"/>
        </g>
      </g>
    </g>
    <g>
      <g>
        <path class="cls-35" d="M1313.1,1011.59l77.96,4.81c10.98,.68,14.12,8.66,7.02,17.83h0c-7.1,9.17-21.76,16.05-32.74,15.37l-77.96-4.81c-10.98-.68-14.12-8.66-7.02-17.83h0c7.1-9.17,21.76-16.05,32.74-15.37Z"/>
        <polygon class="cls-37" points="1348.43 1029.91 1333.75 1028.29 1361.01 797.58 1375.01 797.58 1348.43 1029.91"/>
        <polygon class="cls-36" points="1468 795.46 1275.92 796.6 1288.51 762.42 1477.18 761.58 1468 795.46"/>
      </g>
      <g>
        <g>
          <path class="cls-93" d="M1302.79,1016.49l79.13,5.76c11.14,.81,14.32,9.55,7.1,19.52h0c-7.23,9.97-22.12,17.39-33.26,16.58l-79.13-5.76c-11.14-.81-14.32-9.55-7.1-19.52h0c7.23-9.97,22.12-17.39,33.26-16.58Z"/>
          <path class="cls-78" d="M1302.8,1016.39c26.34,2.02,52.72,3.51,79.07,5.33,1.52,.15,3.13,.35,4.57,.88,4.91,1.5,7.84,6,6.86,11.12-1.93,9.8-11.29,17.07-19.75,21.33-5.5,2.65-11.58,4.45-17.85,4.1-24.1-1.65-48.2-3.18-72.28-5.06l-4.51-.37c-2.21-.18-4.81-.35-6.91-1.14-6.15-2.03-8.48-7.8-6.26-13.76,4.91-13.06,23.44-23.3,37.07-22.42h0Zm-.01,.2c-11.99-.35-23.76,6.08-31.43,15.02-5.91,6.82-8.16,17.75,3.28,19.8,27.05,2,54.14,3.95,81.18,6.14,11.74,.48,23.55-5.75,31.29-14.4,3.56-4.21,7.04-10.45,4.01-15.78-3.27-5.22-10.7-4.55-16.1-5.12-24.08-1.91-48.14-3.99-72.24-5.66h0Z"/>
        </g>
        <g>
          <rect class="cls-19" x="1322.01" y="768.58" width="15" height="269"/>
          <rect class="cls-46" x="1234.01" y="740.58" width="195" height="37"/>
        </g>
      </g>
    </g>
    <g>
      <path class="cls-16" d="M800.85,1078.75c152.74,0,305.48,.41,458.21,1.9,10.86,.07,21.71,.18,32.57,.3h63.4c1.82-5.71-.07-26.29-3.84-67.46-7.78-85.04-12.05-128.24-30.68-161.16-16.82-29.73-37.41-47.17-61.37-67.46-28.51-24.15-57.36-39.84-115.06-71.21-27.38-14.88-41.16-22.33-46.03-22.49-56.96-1.84-79.77,94.36-149.58,101.19-8.36,.82-29.12,2.85-49.86-7.5-21.24-10.59-23.46-24.68-34.52-26.24-23.68-3.34-56.24,55.22-72.87,108.69-9.44,30.34-1.22,190.83-.12,211.44,3.25,0,6.51,0,9.76,0Z"/>
      <g>
        <path class="cls-58" d="M1157.72,932.08c8.3,22.77,14.82,46.04,20.91,69.45,5.95,23.45,11.42,46.99,15.09,70.94-8.31-22.77-14.83-46.03-20.91-69.45-5.93-23.45-11.41-46.99-15.09-70.94h0Z"/>
        <path class="cls-58" d="M979.72,1007.76c86.17,20.5,171.06,46.29,254.01,77.34-86.18-20.44-171.04-46.34-254.01-77.34h0Z"/>
        <g>
          <g>
            <path class="cls-7" d="M695.77,755.43c3.1,3.46-3.1,11.74-.04,15.77,1.85,2.43,6.11,.97,7.5,1.72,11.7,6.28,35.7,33.41,27.69,91.31-2.33,16.85-8.56,59.71-6.62,66.42,18.46,63.78,36.61,102.73,60.73,148.1,5.27,0,10.54,0,15.81,0,39.9,0,79.79,.03,119.69,.1,2.31-3.38,3.99-6.71,4.9-9.93,3.46-12.27-.29-23.59-8.58-43.89-50.78-124.28-54.71-133.48-76.51-158.12-16.95-19.16-22.76-13.85-44.81-36.29-37.47-38.12-51.96-77.06-45.62-83.1,1.07-1.02,2.96-1.32,3.3-2.84,1.03-4.6-14.58-9.74-13.53-13.2,.58-1.93,4.51-4.02,5.28-6.12,.92-2.51-1.55-11.56-9.86-7.24-17.26,8.98-34.68,19.17-44.44,25.37-2.03,1.29-5.25,6.21-4.1,8.88,1.57,3.68,6.9,.51,9.21,3.08Z"/>
            <path class="cls-45" d="M804.81,1053.84c6.62,12.67,13.5,20.72,20.92,24.91,9.62,0,19.23,0,28.85,.01,4.02-1.7,8.22-3.97,12.62-6.78h0c26.01-16.58,17.68-47.79,.35-80.92l-22.81-56.61c-17.33-33.13-41.89-51.86-67.9-35.28h0c-26.01,16.58-22.84,58.06-5.51,91.2l33.49,63.48Z"/>
            <path class="cls-63" d="M856.07,1051.67h0c-15.23,9.71-27.43,6.79-40.93-19.03l-26.05-49.48c-13.5-25.81-18.66-56.42-3.42-66.13h0c15.23-9.71,32.23,6.25,45.73,32.06l18.76,43.48c13.5,25.81,21.15,49.39,5.92,59.1Z"/>
          </g>
          <path class="cls-6" d="M693.47,757.23c12.29-6.7,34.22-19.96,46.51-26.66"/>
          <path class="cls-6" d="M699.72,772.77c13.34-6.7,37.24-20.17,50.58-26.87"/>
        </g>
        <g>
          <g>
            <path class="cls-53" d="M730.24,1004.18c3.07,.51,4.76,.67,7.8,0s7.08-4.28,8.34-1.33c1.1,2.57-.36,5.45-1.23,8.11-2.54,7.78,.67,17.16,7.36,21.54,2.19,1.43,4.4,2.31,5.72,4.63,1.81,3.2,.4,5.52-1,8.96-3.2,7.87,2.64,20.92,10.21,23.96,4.79,1.93,13.02,.04,20.79-2.06-.73,1.38-2.79,6.13-2.54,10.75,5.06,0,10.11,0,15.17,0,55.68,0,111.37,.06,167.05,.2,6.83-19.96,5.96-41.05,9.49-62.04,.31-1.86,.6-3.83-.09-5.58-.69-1.76-2.25-2.96-3.77-4.03-15.46-10.83-33.92-16.46-49.02-27.81-5.89-4.43-11.19-9.68-17.21-13.93-9.47-6.69-20.42-10.71-31.23-14.62-10.74-3.88-21.5-7.73-32.26-11.54-13.32-4.71-27.48-9.43-41.23-6.31-8.12,1.84-15.43,6.3-22.59,10.69-15.7,9.63-31.43,19.28-46.16,30.43-4.66,3.53-9.46,7.54-11.28,13.22-1.83,5.68,2.01,15.81,7.7,16.75Z"/>
            <path class="cls-61" d="M729.84,1005.63c4.21,.69,7.93,.58,11.82-1.28,.68-.32,2.6-1.57,3.29-1s.26,2.44,.09,3.12c-.3,1.25-.8,2.45-1.21,3.67-2.43,7.13-.53,15.47,4.64,20.93,1.36,1.44,2.96,2.56,4.65,3.57,1.78,1.07,3.6,2.18,4.26,4.28s-.49,4.08-1.25,5.89c-.68,1.63-1.12,3.24-1.26,5.01-.53,6.68,2.65,14.13,7.51,18.66,2.93,2.74,6.38,3.92,10.38,3.86,5.37-.07,10.71-1.52,15.86-2.91l-1.69-2.2c-1.81,3.49-2.89,7.57-2.75,11.51,.03,.81,.66,1.5,1.5,1.5,23.73,0,47.46,0,71.19,.02,23.6,.02,47.19,.05,70.79,.09,13.41,.02,26.82,.05,40.23,.09,.69,0,1.23-.47,1.45-1.1,4.36-12.86,5.64-26.42,6.88-39.87,.62-6.76,1.25-13.54,2.29-20.25,.46-2.96,1.33-6.19-.09-9.03-1.28-2.57-4.03-4.16-6.34-5.69-10.39-6.85-21.93-11.64-32.85-17.54-5.56-3.01-10.96-6.33-15.9-10.28s-9.91-8.64-15.28-12.43c-10.53-7.44-22.89-11.64-34.91-15.97-6.72-2.42-13.44-4.83-20.16-7.22s-13.15-4.79-19.85-6.81-13.02-3.43-19.72-3.64-12.93,1.04-18.98,3.59-11.39,5.94-16.86,9.3c-5.86,3.59-11.71,7.19-17.5,10.88s-11.54,7.46-17.18,11.4c-5.15,3.6-10.51,7.18-15.12,11.47-3.68,3.42-7.1,7.96-7.19,13.19-.08,4.32,1.53,8.98,4.4,12.23,1.27,1.44,2.95,2.61,4.86,2.97s2.7-2.53,.8-2.89c-3.86-.73-5.87-5.32-6.67-8.73-.42-1.83-.6-3.83-.13-5.67,.63-2.49,2.12-4.76,3.8-6.67,3.94-4.48,9.16-7.9,13.99-11.34,5.27-3.76,10.64-7.36,16.08-10.87s11.06-7.01,16.63-10.45c5.38-3.31,10.72-6.77,16.32-9.71s11.34-5.06,17.56-5.57c6.56-.54,13.1,.47,19.44,2.1s12.45,3.84,18.59,6.02c6.49,2.3,12.98,4.61,19.46,6.94,11.78,4.23,23.95,8.05,34.87,14.27,10.87,6.2,19.3,15.7,29.91,22.31,10.05,6.26,21.02,10.85,31.39,16.53,2.64,1.45,5.24,2.96,7.78,4.59,2.16,1.39,5.48,3.01,6.34,5.63,.43,1.32,.2,2.82-.02,4.16-.27,1.67-.54,3.34-.77,5.02-.44,3.17-.82,6.35-1.15,9.53-1.33,12.86-2.01,25.85-4.97,38.48-.73,3.11-1.61,6.19-2.63,9.22l1.45-1.1c-23.77-.06-47.53-.1-71.3-.14s-47.19-.05-70.79-.06c-13.37,0-26.75,0-40.12,0l1.5,1.5c-.13-3.41,.77-6.96,2.34-10,.59-1.14-.39-2.56-1.69-2.2-4.59,1.24-9.3,2.53-14.06,2.77-3.48,.18-6.52-.45-9.14-2.85-4.6-4.22-7.87-11.76-6.54-18.04,.81-3.81,3.6-7.03,1.92-11.07s-5.87-5.02-8.77-7.79c-2.68-2.56-4.4-5.97-5.12-9.58-.36-1.81-.43-3.69-.22-5.52,.23-1.99,.97-3.81,1.6-5.69,.74-2.2,1.31-4.95-.02-7.06-.99-1.57-2.79-1.75-4.43-1.22-1.77,.57-3.32,1.67-5.12,2.16-2.43,.66-4.84,.47-7.29,.07-1.89-.31-2.7,2.58-.8,2.89Z"/>
          </g>
          <path class="cls-61" d="M745.52,1002.37c2.45-.56,4.89-1.36,7.15-2.47,4.14-2.03,8.23-4.19,12.34-6.28,8.11-4.13,16.23-8.27,24.34-12.4,4.65-2.37,9.29-4.73,13.94-7.1,1.29-.66,.15-2.6-1.14-1.94-16.08,8.19-32.16,16.38-48.23,24.58-2.9,1.48-5.81,2.72-8.99,3.45-1.41,.32-.81,2.49,.6,2.17h0Z"/>
          <path class="cls-61" d="M760.26,1038.2c7.54-2.21,14.53-5.87,21.16-10.03,6.99-4.39,13.74-9.18,20.56-13.83,4.16-2.84,8.33-5.68,12.49-8.52,1.59-1.08,.09-3.68-1.51-2.59-7.17,4.89-14.33,9.77-21.5,14.66-6.42,4.38-12.84,8.83-19.75,12.42-3.92,2.04-7.99,3.75-12.24,4.99-1.85,.54-1.06,3.44,.8,2.89h0Z"/>
          <path class="cls-61" d="M787.52,1069.08c3.24-.53,6-2.22,8.92-3.62,3.4-1.64,6.76-3.32,10.06-5.16,6.67-3.72,13.18-7.74,19.58-11.89,1.21-.78,.08-2.73-1.14-1.94-6.28,4.06-12.65,8-19.17,11.66-3.17,1.77-6.38,3.46-9.66,5.01-3.01,1.42-5.85,3.23-9.18,3.77-1.43,.23-.82,2.4,.6,2.17h0Z"/>
        </g>
        <path class="cls-58" d="M979.73,1007.28c2.13,18.89,.02,37.99-4.46,56.39-.81,3.06-1.71,6.11-2.82,9.11-1.21,2.94-2.26,6.15-4.52,8.48,1.1-2.93,1.25-6.1,1.66-9.18,0,0,1.05-9.28,1.05-9.28,2.2-18.67,4.49-37.23,9.1-55.53h0Z"/>
        <path class="cls-59" d="M993.94,924.69c-2.67,8.54-17.69,6.65-19.49,13.57-1.68,6.48,11.03,9.9,14.99,24.13,2.69,9.67-1.87,12.78,1.5,19.6,4.67,9.44,19.66,16.15,29.98,12.06,12.75-5.05,9.86-23.25,23.98-28.65,7.94-3.04,11.06,1.87,19.49-1.51,12.02-4.82,20.56-20.81,16.49-28.65-3.79-7.31-15.74-2.2-22.48-10.56-8.46-10.48,2.06-28.82-3-31.67-6.11-3.44-21.57,23.29-35.97,19.6-7.68-1.97-10.12-11.32-17.99-10.56-3.54,.35-7.36,2.66-8.99,6.03-2.91,6,3.38,10.58,1.5,16.59Z"/>
        <path class="cls-47" d="M1003.07,932.09c-1.22,.32-2.32,4.97-2.9,7.32-.57,2.28-1.14,6.56,.32,8.09,1.27,1.33,3.47-.06,4.54-2.35,2.03-4.31,.07-13.59-1.96-13.06Z"/>
        <path class="cls-47" d="M1001.63,910.65c-1.2,.1-2.24,3.53-2.79,5.26-.54,1.68-1.07,4.89,.38,6.23,1.25,1.17,3.4,.37,4.44-1.25,1.95-3.06-.03-10.39-2.02-10.24Z"/>
        <path class="cls-47" d="M1009.5,917.6c-1,.96-1.64,8.14,.33,10.87,2.57,3.58,1.57,7.17,1.57,9.55,0,9.96,4-1,5.26-4.21,2.39-6.09-5.5-17.81-7.16-16.21Z"/>
        <g>
          <g>
            <path class="cls-9" d="M1145.22,306.29c5.97,6.41-23.44,28.46-22,64.72,1.17,29.41,21.29,34.09,41,76.67,23.55,50.87,16.72,91.47,31,93.59,13.24,1.97,19.08-32.97,42-35.84,21.38-2.68,47.81,23.76,53,52.77,4.01,22.43-3.59,51.32-23,60.74-39,18.92-51.34-21.29-52-4.98-1,24.89-75,160.31-220,213.08-75.84,27.6-178.26-91.94-194-191.17-3.43-21.63,3.16-16.9,7-113.51,1-25.22,1.82-55.65,18-90.61,5.87-12.68,9.44-20.39,16-27.88,34.06-38.87,99.24-15.23,167-25.89,35.67-5.61,83.3-22.46,136-71.69Z"/>
            <path class="cls-11" d="M1128.22,330.19c-13,1.99-48.91,60.29-129,64.72-36,1.99-50.3,3.05-82-1-78-9.96-97.35,78.13-111,59.74-17-22.9-17-66.71,0-115.5,16.08-46.15,81-82.64,182-86.62,83.8-3.3,117.47,3.94,142,16.93,47,24.89,12.2,42.42,32,33.85,23-9.96,60,33.85,65,77.66,4.87,42.69,29.02,107,8,145.37-13.07,23.85-38.48,48.25-53,42.81-12.89-4.83-23-28.87-19-67.71,4.7-45.66-36.48-47.44-47-81.65-15-48.79,12-88.62,12-88.62Z"/>
            <rect class="cls-74" x="871.72" y="512.9" width="34" height="36.84" rx="17" ry="17"/>
            <rect class="cls-74" x="1008.72" y="512.9" width="34" height="36.84" rx="17" ry="17"/>
            <path class="cls-10" d="M1061.22,734.44s-35.58-20.75-36-20.91c-23-8.96-20.56-11.24-57-16.93-51-7.97-86,17.92-86,17.92,0,0,17.06-40.2,39.8-49.83,13.52-5.72,25.66-5.19,36.37-4.71,10.24,.45,19.83-.22,49.21,14.05,36.26,17.61,53.62,60.41,53.62,60.41Z"/>
            <path class="cls-60" d="M940.22,571.15c-1.4,3.98-3.41,7.74-5.97,11.11-2.54,3.41-5.64,6.37-8.55,9.31-2.7,2.72-5.57,5.74-5.91,9.59-.33,10.74,9.69,22.97,20.7,23.35,3.47,.05,7.19-1.61,11.2-3.05,8.04-3.05,16.82-4.49,25.45-4.28,4.33,.08,8.66,.63,12.78,1.35,4.12,.68,8.06,1.43,11-.04,6.47-3.4,9.72-12.32,7.5-19.21-1.11-3.57-3.95-6.47-7.48-8.2-5.33-2.7-12-2.96-17.48-.34-1.88,.83-3.65,1.96-5.25,3.31,2.84-3.07,6.62-5.4,10.86-6.35,8.57-1.91,19.03,1.85,22.4,10.46,3.3,8.68-.4,19.73-8.63,24.25-4.33,2.23-9.23,1.37-13.64,.78-8.13-1.29-16.13-1.61-24.19-.19-3.98,.64-7.83,1.68-11.68,3.06-4.13,1.41-8.28,3.32-12.92,3.2-9.34-.46-17.27-7.32-21.24-15.38-2.99-5.94-4.57-14.04,.21-19.52,4.1-4.96,9.6-8.27,13.77-13.02,2.79-3.03,5.17-6.46,7.06-10.2h0Z"/>
            <path class="cls-60" d="M1008.22,595.04c10.69,22.68,25.08,31.5,47.7,40.08,4.5,1.83,9,3.36,13.59,5.1,3.44,1.25,7.81,3.35,9.74,6.95,4.43,7.62,4.81,17.72,.98,25.53,1.92-8.1,.69-16.79-3.98-23.58-1.94-2.8-4.88-3.62-8.2-4.76-27.65-8.52-52.31-18.52-59.81-49.32h0Z"/>
            <path class="cls-60" d="M924.72,588.57c-4.47,11.57-11.26,23.53-22.84,29.31-4.6,2.33-10.1,2.64-14.97,3.27-7.02,.86-13.7,3.7-19.94,6.85-13.51,6.69-13.89,24.13-12.46,37.38-4.93-13.88-4.53-33.83,10.17-41.54,4.56-2.49,9.04-4.58,14.01-6.06,4.76-1.48,10.09-1.72,14.87-2.25,14.7-1.9,23.55-15.53,31.16-26.96h0Z"/>
            <path class="cls-60" d="M905.05,747.36c20.52-26.49,58.08-35.02,85.78-14.17,8.47,6.36,15.36,14.71,19.72,24.32-6.63-7.7-14.16-14.59-22.81-19.76-27.8-16.87-57.9-9.03-82.7,9.61h0Z"/>
            <path class="cls-73" d="M943.72,472.08c-8.7,10.57-22.44,17.65-36.47,16.02-8.44-.77-15.46-6.31-23.92-6.03-12.23-.16-23.56,5.84-34.61,10.92,7.52-9.81,18.27-17.81,30.72-20,6-1.02,12.45-.39,18.1,1.83,4.45,1.81,7.44,3.25,11.11,3.93,11.86,2.46,24.13-2.03,35.07-6.67h0Z"/>
            <path class="cls-73" d="M990.4,470.87c14.26,9.4,30.18,15.38,47.33,13.09,7.73-.85,16.29-1.86,23.96,.28,15.99,4.13,27.35,18.15,32.36,33.19-9.53-10.47-20.24-21.31-34.48-23.95-9.61-1.86-19.27,1.04-29.08,.38-15.99-.73-31.56-9.97-40.08-22.99h0Z"/>
            <g class="cls-79">
              <path class="cls-60" d="M1051.72,547.75c-7.1,14.89-25.34,22.68-40.57,15.06-4.79-2.35-8.94-5.82-11.88-10.07,6.81,5.08,14.37,8.66,22.77,9.07,11.54,.47,21.82-5.81,29.67-14.06h0Z"/>
            </g>
            <g class="cls-79">
              <path class="cls-60" d="M912.27,549.91c-9.87,13.21-29.27,17.32-42.73,6.89-4.24-3.24-7.64-7.45-9.69-12.2,5.69,6.31,12.4,11.3,20.57,13.33,11.23,2.7,22.53-1.47,31.85-8.02h0Z"/>
            </g>
          </g>
          <g class="cls-91">
            <path class="cls-75" d="M990.22,697.6c13.28,3.54,26.7,7.07,39.21,12.9,3.07,1.58,5.79,3.56,8.93,5.04,4.49,2.29,9.52,4.4,13.85,7.28,4.34,2.97,8.44,6.05,12.58,9.37,2.99,2.58,5.79,4.66,7.84,8.46,2.2,4.16,.78,8.56-3.12,10.82-2.89,1.61-3.94,4.89-3.88,7.95,.17,2.36,.7,3.81,3.01,4.78,1.21,.55,3.26,1.13,5.21,2.47,1.98,1.3,3.56,3.2,4.6,5.05,2.99,4.98,3.75,12.81-1.6,16.81-3.95,2.67-8.16,3.31-11.99,5.74-4.42,2.41-7.69,6.26-11.98,9.06-5.66,4.21-13.3,6.11-19.57,8.41-4.39,1.72-8.72,4.13-12.57,6.89-3.94,3.18-8.04,6.96-12.61,9.38-3.03,1.78-6.31,3.44-9.48,4.8-2.79,1.08-4.78,2.44-6.36,5.11-4.54,7.38-5.36,18.85,2.63,24.12,2.68,1.91,6.47,5.48,5.06,9.55-1.88,3.39-3.46,6.45-3.79,10.32-.65,6.27,4.29,6.75,8.52,9.66,3.46,2.43,2.71,7.02,.66,10.04-.9,1.49-2,2.83-3.16,4.09,.98-1.4,1.89-2.85,2.61-4.38,1.39-2.74,1.92-6.63-1.1-8.35-2.04-1.26-4.92-1.76-7.04-3.31-5.11-3.69-3.76-10.84-2.03-15.94,.3-1.06,1.15-2.47,1.52-3.4,.02-.11,.03-.2-.02-.46-.4-1.97-2.08-2.71-3.97-4.12-5.04-3.07-8.37-8.5-8.77-14.45-.82-9.47,3.04-20.73,12.41-24.55,4.48-2.15,8.71-4.59,12.68-7.47,4.04-3.11,7.72-7.12,12.25-9.7,3.02-1.94,6.29-3.64,9.68-5.02,6.46-2.59,12.46-3.77,17.95-7.76,2.86-1.94,4.95-3.98,7.77-6.29,4.25-3.38,9.61-5.66,14.5-7.52,.97-.48,1.51-.6,1.95-1.35,.83-1.6,.1-4.38-.89-6.1-1.61-2.8-2.92-2.98-6.19-4.46-2.07-.86-4.37-2.78-5.47-4.85-2.76-5.13-1.96-11.22,.86-16,1.2-2.24,4.14-4.09,5.92-5.36,0-.02,0,.02,.02-.02,.03-.03,0-.15,.05-.23-.19-1.53-1.36-2.89-2.66-4.34-5.82-5.72-12.33-11.16-19.22-15.64-4.27-2.58-9.07-4.99-13.33-7.9-6.75-5.09-14.74-8.08-22.45-11.48-5.42-2.41-13.49-5.38-19.02-7.66h0Z"/>
          </g>
          <g class="cls-91">
            <path class="cls-75" d="M985.72,697.59c2.53-1.26,4.76-1.22,7.36-.25,2.97,3.88,5.66,8.25,6.37,13.28,.69,3.96-1.66,7.7-2.38,11.04,0,.44,.04,.55,.23,.92,.98,1.85,1.67,4.28,1.86,6.35,.27,1.61,.2,3.78,.48,5.23,.31,.66,.43,.78,1.28,1.28,8.11,4.85,12.32,16.68,9.78,25.39-1.3-5.52-4.04-10.41-7.6-14.54-1.71-1.93-3.65-3.55-5.47-4.29-3.05-1.09-5.72-4.53-5.93-7.81-.33-2.67-.3-5.05-1.17-7.37-.98-1.88-1.5-4.23-1.1-6.28,.38-2.46,1.95-4.92,2.8-6.72,1.64-3.38,.56-6.98-.19-10.48,0,0-1.22-4.18-1.22-4.18l.6,.67c-.52-.48-1.22-.93-1.87-1.27,0,0-.02,0-.02,0,.07,0,.14,.03,.21,.02-1.25-.43-2.51-.97-4.03-.97h0Z"/>
          </g>
        </g>
      </g>
    </g>
  </g>
  <path class="cls-1" d="M1438.42,711.76c-2.28,19.56,.68,46.12,3,56,1.35,5.74,2.61,8.98,4,17,3.34,19.24-.31,21.38,3,31,5.13,14.92,15.55,14.57,17,27,.69,5.9-1.54,11.26-6,22-6.27,15.1-9.33,15.03-12,23-4.89,14.57,3.81,19.38,6,48,1.62,21.18-2.92,21.47,1,32,4.99,13.42,14.22,17.96,17,33,1.24,6.71-2.38,29.45-3,33"/>
  <rect class="cls-30" x="107.92" y="50.26" width="1706" height="982"/>
  <rect class="cls-38" x="812.42" y="92.76" width="946" height="912" rx="456" ry="456"/>
  <g>
    <g>
      <g>
        <path class="cls-7" d="M793.72,606.37c-19.71,47.89,129.44,114.82,179.59,93.18,18.41-7.94,28.52-23.75,45.07-54,101.34-185.23,108.68-199.15,117.15-250.2,6.58-39.69-5.66-41.51-.15-90.69,9.37-83.55,42.53-139.85,56.2-138.1,2.3,.3,4.55,2.3,6.74,1.21,6.64-3.3-2.57-27.45,2.7-29.61,2.93-1.2,9.38,1.52,12.71,.38,3.97-1.36,12.58-13.36-.94-19.21-28.07-12.16-57.79-23.32-75.04-29.09-3.59-1.2-12.78-.25-14.91,3.8-2.94,5.57,6.23,8.93,5.37,14.3-1.15,7.21-17.41,7.86-19.28,15.59-1.13,4.67,4.87,8.43,5.34,10.86,3.94,20.52-5.38,76.71-84,124.35-22.88,13.87-81.38,48.76-87.64,57.79-76.66,110.43-103.6,179.38-148.91,289.45Z"/>
        <path class="cls-45" d="M911.81,631.51h0c-46.03-15.31-62.99-40.14-39.73-94.15l44.27-103.83c23.26-54.01,70.76-99.02,116.79-83.71h0c46.03,15.31,47.53,63.87,24.27,117.88l-46.48,83.99c-23.26,54.01-53.09,95.13-99.13,79.82Z"/>
        <path class="cls-63" d="M925.57,597.78h0c-26.96-8.96-35.49-26.76-17.36-68.83l34.57-80.87c18.12-42.07,50.37-78.72,77.33-69.76h0c26.96,8.96,24.33,45.54,6.21,87.61l-34.47,66.01c-18.12,42.07-39.31,74.79-66.27,65.83Z"/>
      </g>
      <path class="cls-6" d="M1123.73,107.3c20.37,8.36,58.29,21.97,78.67,30.33"/>
      <path class="cls-6" d="M1110.95,130.35c21.41,9.64,61.55,25.46,82.96,35.09"/>
    </g>
    <g>
      <path class="cls-9" d="M1475.28,146.08c10.27,4.65-13.69,45.44,6.05,87.78,16.01,34.33,42.23,29.9,86.79,70.65,53.24,48.69,65.32,100.3,83.33,95.72,16.7-4.25,6.27-48.63,32.05-63.44,24.05-13.81,68.58,4.44,89.16,36.31,15.91,24.64,21.25,62.72,2.88,83.55-36.9,41.85-71.55,.24-64.22,19.94,11.19,30.05-9.36,227.62-155.3,362.36-76.33,70.47-257.36-20.54-325.38-130.55-14.82-23.98-4.65-21.64-48.11-138.25-11.35-30.44-25.5-66.98-23.67-116.53,.67-17.97,1.07-28.9,5.14-41.06,21.12-63.08,110.27-67.41,185.42-113.75,39.56-24.39,87.74-68.08,125.84-152.73Z"/>
      <path class="cls-11" d="M1466.98,182.9c-14.45,8.83-28.11,95.9-121,140.97-41.75,20.26-58.21,28.63-97.86,39.58-97.56,26.95-76.75,141.16-102.1,126.11-31.57-18.74-53.35-70.76-57.42-137.14-3.85-62.79,55.09-138.39,173.04-193.33,97.86-45.58,141.44-53.72,177.02-50.49,68.18,6.19,35.58,44.31,54.82,24.29,22.36-23.26,88.07,10.37,115.78,59.9,27.01,48.27,87.65,112.62,81.76,168.63-3.66,34.82-21.7,76.42-41.65,77.18-17.7,.67-41.66-22.85-56.22-70.95-17.11-56.55-66.9-38.2-96.39-73.58-42.06-50.47-29.8-111.18-29.8-111.18Z"/>
      <path class="cls-60" d="M1363.54,562.45c.24,5.41-.35,10.86-1.76,16.1-1.91,7.84-6.25,14.91-8.17,22.61-2.01,7.71,3.45,14.41,9.08,19.02,7.64,6.09,18.54,9.72,27.94,6.13,4.35-1.75,7.97-5.64,12.01-9.31,8-7.56,17.6-13.58,27.88-17.6,5.14-2.04,10.5-3.54,15.75-4.75,5.2-1.27,10.39-2.33,13.36-5.76,6.17-7.5,5.53-20.01-.77-27.27-3.3-3.82-8.26-5.8-13.29-6.05-7.76-.48-15.83,2.62-21.02,8.56-1.8,1.96-3.32,4.19-4.5,6.61,1.91-5.03,5.29-9.61,9.84-12.77,9.15-6.33,23.24-7.03,31.35,1.44,7.98,8.44,9.03,23.17,1.67,32.36-2.02,2.41-4.83,4.04-7.51,5.07-5.25,1.95-10.45,2.88-15.66,4.5-7.52,2.26-14.72,5.56-21.36,9.75-4.44,2.76-8.53,5.96-12.44,9.53-4.15,3.69-8.08,7.97-13.53,10.11-11.07,4.03-23.67-.09-32.25-7.51-6.43-5.56-12.23-13.87-9.4-22.75,2.34-7.9,7.16-14.61,9.66-22.34,1.76-5.02,2.81-10.31,3.12-15.69h0Z"/>
      <path class="cls-60" d="M1456.15,557.02c24.2,22.46,44.77,25.53,76.58,24.62,5.4-.1,13.21-.54,18.69-.79,3.16-.1,6.51-.19,9.96,.81,11.74,4.2,19.46,19.9,18.87,31.78-1.48-10.64-7.23-20.58-16.16-26.45-3.74-2.48-7.9-2.06-12.43-1.79-37.51,3.27-70.14,4.29-95.5-28.19h0Z"/>
      <path class="cls-60" d="M1353.79,590.85c.15,18.76-3.38,41.44-20.78,52.11-5.48,3.33-10.95,5.82-15.77,9.91-4.74,3.79-9.06,8.47-12.96,13.07-12.83,14.88-4.4,36.1,4.33,51-12.23-14.21-21.56-37.63-8.03-53.95,4.1-5.09,8.47-9.85,13.53-14.02,4.93-4.08,11.03-6.99,16.45-10.05,16.55-9.57,20.33-30.65,23.24-48.08h0Z"/>
      <path class="cls-60" d="M1505.78,729.7c-15.05,31-55.07,43.08-85.57,28.04-4.22-2.05-8.23-4.51-11.72-7.57,14.39,5.88,30.18,8.82,45.64,6.85,19.89-2.26,38.12-12.75,51.66-27.32h0Z"/>
      <path class="cls-73" d="M1318.44,443.08c-5.84,16.27-18.48,31.01-35.67,35.84-8.04,2.61-16.72,.93-24.67,2.64-18.3,4.02-30.58,19.69-42.06,33.58,5.23-16.27,15.4-32.26,31.19-40.05,5.44-2.72,11.75-4.19,17.79-4.35,2.98-.07,5.68,.02,8.16-.08,18.73-.53,33.52-14.06,45.26-27.56h0Z"/>
      <path class="cls-73" d="M1373.26,418.44c19.58,4.46,39.17,4.77,57.15-3.63,7.84-3.53,15.9-9,24.08-11.94,23.4-9,48.67,2.12,64.97,19.34-15.13-7.87-31.48-15.18-48.74-13.32-10.85,1-20.01,6.63-29.6,11.59-21.06,11.44-47.83,10.31-67.87-2.03h0Z"/>
      <g class="cls-89">
        <path class="cls-60" d="M1433.85,512.74c2.32-6.54,7.85-11.44,13.39-15.35,14.39-9.74,32.81-11.65,49.63-8.73,3.29,.7,6.82,1.23,9.71,3.03-3.16-1.07-6.61-1.03-9.91-1.26-3.33-.14-6.65-.11-9.97,0-13.1,.46-26.23,3.28-37.68,9.82-5.67,3.24-11.3,7.09-15.17,12.48h0Z"/>
      </g>
      <g class="cls-89">
        <path class="cls-60" d="M1272.02,573.63c1.12-6.85,5.69-12.65,10.45-17.49,12.43-12.14,30.22-17.28,47.29-17.39,3.36,.11,6.93,0,10.09,1.26-3.3-.49-6.68,.16-9.97,.52-3.3,.46-6.57,1.07-9.81,1.78-12.82,2.78-25.23,7.88-35.34,16.35-5.01,4.19-9.86,8.99-12.71,14.97h0Z"/>
      </g>
    </g>
  </g>
  <g>
    <path d="M1416.89,494.16c12.43-18.34,36.41-27.38,57.93-28.22,7.4-.2,14.89,.68,21.83,3.11-12.62-2.13-25.35-1.09-37.66,1.93-15.67,4.04-30.9,11.17-42.09,23.18h0Z"/>
    <path d="M1416.39,495.26c5.04-25.73,32.05-40.12,55.4-46.23,8.14-2.07,16.5-3.31,24.86-3.27-16.38,2.47-32.37,7.21-47.03,14.87-14.4,7.56-27.96,18.64-33.23,34.63h0Z"/>
  </g>
  <g>
    <path d="M1329.96,521.19c-24.87-3.57-54.02,8.3-71.38,26.07,13.85-20.74,47.36-34.13,71.38-26.07h0Z"/>
    <path d="M1330.92,521.7c-16.05-10.42-36.28-8.28-53.86-3.52-10.84,3.01-21.2,7.28-31.14,12.66,5.96-4.66,12.65-8.4,19.63-11.42,20.07-8.51,47.56-13.37,65.37,2.28h0Z"/>
  </g>
  <path class="cls-8" d="M1539.59,679.08l-.59,2.06c-7.77,11.5-28.42,21.53-78.04,39.97-69.2,25.71-100.73-5.93-100.73-5.93,0,0-12.45-15.98,12.24-42.06,14.68-15.5,30.91-21.29,45.37-26.36,16.48-5.01,24.43-8.23,73.38-6.18,34.82,1.46,44.3,12.86,46.77,18.23,.02,.05,.05,.11,.09,.19,2.85,6.37,3.36,13.54,1.5,20.08Z"/>
  <g>
    <path class="cls-21" d="M1377.92,718.26c-2,0,.26,4.25-.99,8.05l-80.35,243.98c-3.59,10.83,5.13,21.8,17.33,21.81l248.91,.27c11.63,.01,20.23-10.06,17.56-20.57l-44.61-293.73c-.62-4.1,3.11-7.09-.84-5.82l-157,46Z"/>
    <path class="cls-15" d="M1481.42,687.76c.38-.42,31.52,252.26,31.4,252.06"/>
    <g>
      <path class="cls-20" d="M1592.92,1004.26c25,4,52.64-10.08,61.45-14.59,10.55-5.41,13.2-15.54,11.55-21.41-1.91-6.75-10.95-11.52-19-12-11.81-.7-21.12,16.3-25.84,14.09-5.53-2.6,6.09-28.98-4.11-39.44-5.84-5.99-17.91-5.82-24.13-.09-10.13,9.33-4.57,33.22-5.8,33.34-1.29,.13,.08-26.86-12.65-34.93-7.04-4.46-17.78-2.76-24.14,2.94-10.8,9.68-8.4,30.33-10.05,30.29-1.82-.05,2.03-25.23-9.81-34.92-5.79-4.74-15.13-5.61-21.29-1.6-12.39,8.09-10.1,34.91-11.49,34.84-1.42-.07,3.97-27.66-8.37-39.46-7.75-7.41-22.09-8.23-29.8-1.63-11.07,9.47-7.49,33.34-8.64,33.33-1.19-.01,2.96-25.24-8.39-34.91-7.6-6.48-21.4-5.34-29.82,1.41-13.45,10.78-12.1,35.01-14.32,34.83-2.63-.22,3.4-33.3-9.78-42.5-7.72-5.39-21.53-2.23-26.99,5.97-8.77,13.15,6.34,35.75,2.7,37.92-3.35,2-17.96-10.69-15.19-29.73,1.28-8.77-6.03-21.98-10.16-24.96-5.54-4-15.3-3.36-22.74,7.5-11.26,16.43,7.64,44.2,1.24,48.53-5.17,3.5-14.17,23.14-19.43,4.17-3.03-10.94-7-17-11-21s-11.73-7.77-17,2c-1.62,2.99-2.34,4.75-3,8-4.75,23.38,3.88,42.14,27.12,42.98l298.88,11.02Z"/>
      <path class="cls-15" d="M1454.42,695.76c1.25,79.67,3.17,168.34,4.42,248"/>
      <path class="cls-15" d="M1424.42,705.76c.26-.61-23.61,244.94-23.61,244.94"/>
      <path class="cls-15" d="M1402.42,711.76c.26-.61-65.61,238.87-65.61,238.87"/>
      <path class="cls-15" d="M1501.42,681.76c.38-.42,52.53,250.3,52.41,250.11"/>
      <path class="cls-21" d="M1324.27,992.12s-22.56-17.13-28.35-32.86c-2.64-7.17-2.5-14.62,0-19,14.52-25.42,37.84,21.79,50,13,10.98-7.94-1-21,12-34,5.66-5.66,22.1-6.75,28-2,10.25,8.25,11.5,33.27,14.71,33.27,4.23,0,1.81-25.37,16.33-34.93,6.87-4.52,17.14-5.24,24.44-1.32,13.91,7.49,12.88,29.65,17.61,29.59,5.59-.08,3.81-31,17.69-36.27,8.26-3.13,19.8,3.68,25.78,10.78,8.54,10.14,7.49,22.9,9.48,22.86,3.34-.07-.69-36.17,12.26-41.65,7.7-3.26,21.01,4.47,25.78,14.81,6.98,15.15-5.49,33.53-2.75,34.94,3.19,1.64,13.59-26.62,36.69-33.56,13.95-4.19,21.56,3.61,24.91,14.14,5.32,16.7-34.57,62.46-34.57,62.46l-250-.27Z"/>
      <path class="cls-21" d="M1309.92,1005.26c-6.07,.17-13.07-1.47-18-5-3.37-2.42-4.89-10.29-5.18-14.11-.47-6.4,6.25-14.13,12.84-14.46,9.67-.49,15.84,15.11,19.71,13.37,4.55-2.04-4.81-23.13,3.6-31.41,4.82-4.74,14.7-4.53,19.76,.07,8.24,7.5,3.54,26.5,4.55,26.61,1.05,.11,.09-21.41,10.56-27.76,5.79-3.51,14.57-2.09,19.75,2.49,8.78,7.78,6.7,24.23,8.05,24.2,1.49-.03-1.51-20.12,8.24-27.77,4.77-3.74,12.42-4.38,17.44-1.14,10.1,6.52,8.06,27.88,9.2,27.83,1.16-.05-3.09-22.07,7.09-31.4,6.39-5.86,18.13-6.43,24.41-1.12,9.01,7.61,5.93,26.62,6.88,26.62,.97,0-2.28-20.13,7.08-27.77,6.26-5.12,17.55-4.13,24.4,1.3,10.95,8.67,9.7,27.97,11.52,27.84,2.15-.16-2.58-26.56,8.26-33.81,6.35-4.25,17.64-1.65,22.06,4.92,7.1,10.54-5.41,28.46-2.44,30.21,2.73,1.61,14.77-8.41,12.61-23.6-.99-7,5.07-17.49,8.47-19.83,4.56-3.15,12.55-2.58,18.57,6.11,9.12,13.16-6.52,35.18-1.31,38.67,4.21,2.82,20.07-7.78,24.49-22.87,2.55-8.7,3.66-11.46,7.02-13.27,4.1-2.2,9.66,.7,13.92,8.51,1.3,2.39,2.17,4.93,2.69,7.52,3.75,18.66-10.22,48.53-29.25,49.07h-277Z"/>
    </g>
  </g>
  <g class="cls-79">
    <path class="cls-76" d="M1473.8,825.28c.75-.03,1.49-.07,2.24-.13s1.56-.12,2.31-.3c.04-.01,.09-.02,.13-.04,.23-.07,.9-.35,1.11-.47,.01,0,.02-.01,.03-.02,.19-.12,.77-.56,.93-.72,.02-.02,.7-.9,.71-.92s.45-1.06,.46-1.08c.12-.38,.18-.81,.16-1.2,0-.03-.15-1.17-.16-1.2-.03-.1-.41-1.01-.46-1.09-.06-.1-.63-.84-.72-.93-.15-.15-.76-.61-.94-.72-.34-.22-.91-.41-1.16-.49-.1-.03-.19-.06-.29-.09-.79-.2-1.62-.29-2.42-.4-1.09-.15-2.18-.3-3.26-.48-.85-.14-1.74-.27-2.56-.55-.07-.02-.13-.05-.2-.07l1.07,.45c-.09-.04-.19-.08-.27-.15l.91,.7s-.05-.04-.07-.07l.7,.91s-.02-.03-.02-.04l.45,1.07s0-.03-.01-.04l.16,1.2s0-.02,0-.03l-.16,1.2s0-.02,0-.04l-.45,1.07s.02-.03,.03-.05l-.7,.91s.04-.04,.06-.06l-.91,.7c.07-.05,.15-.09,.23-.13l-1.07,.45c.16-.07,.33-.13,.51-.16l-1.2,.16c.05,0,.11,0,.16,0l-1.2-.16s.09,.02,.13,.04l-1.07-.45s.09,.05,.13,.08l-.91-.7c.06,.04,.11,.1,.15,.15l-.7-.91c.08,.11,.14,.22,.19,.34l-.45-1.07c.18,.44,.26,.93,.33,1.41l-.16-1.2c.09,.66,.13,1.33,.18,2,.07,.99,.17,1.97,.33,2.96,.03,.21,.08,.42,.15,.62,.14,.39,.31,.81,.49,1.17,.02,.03,.04,.07,.05,.1,0,.01,.02,.02,.03,.04,.13,.21,.56,.76,.73,.94,.25,.28,1.23,.9,.97,.76,.34,.18,.76,.36,1.13,.48,.4,.13,.85,.18,1.26,.18,.87,0,1.66-.22,2.42-.64,.03-.02,.06-.03,.08-.05,.16-.09,.57-.44,.5-.38,.09-.07,.35-.25,.5-.39,.08-.08,.16-.16,.23-.24,.5-.6,.95-1.2,1.32-1.88,.32-.58,.6-1.19,.87-1.8,.33-.52,.51-1.07,.53-1.67,.13-.6,.11-1.2-.08-1.79-.14-.59-.41-1.1-.81-1.53-.32-.49-.74-.88-1.26-1.16-1.04-.55-2.31-.83-3.47-.45l-1.07,.45c-.68,.4-1.21,.94-1.61,1.61-.41,.93-.83,1.91-1.45,2.73l.7-.91c-.09,.12-.19,.23-.31,.32l.91-.7s-.09,.06-.14,.08l1.07-.45s-.05,.02-.08,.02l1.2-.16s-.05,0-.07,0l1.2,.16s-.04,0-.06-.02l1.07,.45s-.04-.02-.05-.03l.91,.7s-.05-.05-.07-.07l.7,.91c-.04-.06-.08-.12-.1-.19l.45,1.07c-.12-.28-.16-.6-.2-.9l.16,1.2c-.1-.74-.13-1.48-.19-2.22-.03-.4-.06-.79-.11-1.19-.09-.73-.16-1.48-.33-2.2-.15-.63-.4-1.27-.73-1.83-.24-.42-.55-.81-.89-1.15-.02-.02-.04-.03-.05-.05-.22-.2-.69-.58-.95-.73-.37-.21-.78-.41-1.19-.51-.02,0-.04-.01-.06-.02-.31-.07-.92-.16-1.24-.17-.05,0-.1,0-.15,0-.49,.02-1.04,.09-1.52,.25s-.91,.34-1.34,.56c-.03,.02-.06,.03-.1,.05-.01,0-.03,.02-.04,.03-.21,.13-.76,.56-.94,.73-.58,.53-.74,.91-1.01,1.55s-.43,.91-.4,1.78c.01,.3,.09,.96,.17,1.25,.02,.06,.43,1.04,.46,1.09,0,0,0,.02,.01,.02,.05,.08,.65,.86,.72,.93,.01,.01,.02,.02,.03,.03,0,0,.02,.01,.03,.02,.11,.11,.81,.64,.93,.72,.03,.02,.06,.04,.09,.06,.7,.4,1.51,.66,2.29,.84,1.37,.31,2.77,.48,4.16,.68,.67,.09,1.34,.19,2.01,.29,.45,.07,.91,.13,1.34,.26,.06,.02,.12,.04,.18,.06l-1.07-.45s.06,.03,.09,.05l-.91-.7s.01,.01,.02,.02l-.7-.91s0,0,0,.01l-.45-1.07s0,0,0,.01l-.16-1.2s0,0,0,0l.16-1.2s0,0,0,0l.45-1.07s0,0,0,0l.7-.91s-.01,.01-.02,.02l.91-.7s-.04,.02-.05,.03l1.07-.45c-.16,.07-.34,.09-.52,.11l1.2-.16c-.99,.13-1.99,.16-2.98,.2-.62-.02-1.2,.11-1.73,.39-.56,.18-1.04,.49-1.45,.93-.44,.41-.75,.89-.93,1.45-.28,.54-.41,1.11-.39,1.73l.16,1.2c.21,.76,.6,1.42,1.16,1.99,.86,.79,1.98,1.37,3.18,1.32h0Z"/>
  </g>
  <g class="cls-79">
    <path class="cls-65" d="M1506.42,769.26c.45-.02,.91-.05,1.36-.09,.53-.05,1.07-.13,1.6-.21,.09-.01,.18-.03,.27-.05,.03,0,.06-.02,.09-.03s1.06-.44,1.08-.46c0,0,0,0,.01,0,0,0,.02,0,.02-.01,.02-.01,.9-.69,.92-.71,0,0,0,0,0,0,.08-.08,.65-.82,.71-.92,0-.02,.45-1.07,.46-1.08,0,0,.16-1.2,.16-1.2,0-.19-.35-2.6-.08-.6-.11-.79,0-.42-.31-1.14s-.11-.39-.58-1c-.23-.29-.22-.33-.37-.47-.08-.08-.83-.66-.93-.72,0,0-.02-.01-.03-.02s-.02,0-.03-.01c-.09-.04-1-.42-1.09-.46,0,0-.02,0-.02,0-.03-.01-.06-.02-.09-.03-.46-.14-.94-.2-1.41-.28-.65-.11-1.31-.21-1.96-.33-.54-.1-1.09-.2-1.6-.38-.04-.02-.09-.03-.13-.05l1.07,.45c-.08-.03-.15-.07-.22-.12l.91,.7s-.04-.04-.06-.06l.7,.91s-.02-.02-.02-.04l.45,1.07s0-.02,0-.03l.16,1.2s0-.02,0-.03l-.16,1.2s0-.02,0-.03l-.45,1.07s.01-.02,.02-.03l-.7,.91s.04-.04,.06-.06l-.91,.7c.06-.04,.13-.08,.19-.11l-1.07,.45c.08-.03,.16-.07,.24-.08l-1.2,.16s.06,0,.08,0l-1.2-.16s.05,.01,.07,.02l-1.07-.45s.05,.03,.07,.04l-.91-.7s.06,.05,.08,.08l-.7-.91c.05,.06,.09,.14,.12,.21l-.45-1.07c.12,.28,.17,.59,.21,.9l-.16-1.2c.12,.92,.11,1.86,.23,2.78,.06,.48,.11,.97,.2,1.45,.01,.07,.03,.15,.05,.22,.12,.43,.31,.86,.51,1.24,0,.02,.02,.04,.03,.06,0,.01,.01,.02,.02,.03,.01,.02,.7,.9,.71,.92,0,0,0,0,.01,.01,0,0,.01,.01,.02,.02,.07,.07,.84,.66,.93,.72,.34,.22,.73,.36,1.12,.47,1.18,.32,2.5,.16,3.55-.46,.02-.01,.04-.02,.06-.03,.1-.06,.84-.64,.93-.72,.01-.01,.02-.02,.03-.03,.02-.02,.04-.05,.07-.07,.27-.31,.53-.66,.77-.99,.16-.23,.28-.48,.4-.73,.36-.77,.68-1.55,.98-2.34,.19-.6,.21-1.2,.08-1.79-.03-.6-.21-1.16-.53-1.67-.28-.52-.67-.95-1.16-1.26-.43-.4-.94-.67-1.53-.81l-1.2-.16c-.81,0-1.57,.21-2.27,.61l-.91,.7c-.56,.56-.94,1.22-1.16,1.99-.1,.27-.21,.54-.32,.8l.45-1.07c-.18,.43-.36,.88-.64,1.25l.7-.91s-.08,.1-.13,.14l.91-.7s-.04,.03-.07,.04l1.07-.45s-.03,0-.04,.01l1.2-.16s-.02,0-.03,0l1.2,.16s-.02,0-.04,0l1.07,.45s-.02-.01-.03-.02l.91,.7s-.03-.02-.04-.04l.7,.91s-.04-.07-.06-.11l.45,1.07c-.07-.17-.1-.37-.12-.55l.16,1.2c-.06-.46-.08-.93-.11-1.4-.06-.9-.16-1.78-.29-2.68-.03-.21-.06-.41-.12-.62-.14-.52-.34-1.04-.63-1.5-.11-.17-.33-.44-.38-.49,.05,.06-.24-.35-.38-.48-.27-.28-.88-.71-.97-.76-.02-.01-.04-.03-.06-.04-.1-.06-.99-.43-1.1-.46-.01,0-.03,0-.04-.01-.09-.03-1.13-.17-1.22-.16-.01,0-.03,0-.04,0-.42-.02-.87,.05-1.28,.17-.04,.01-.07,.02-.11,.04-.4,.15-.79,.32-1.17,.49-.7,.32-1.48,1.09-1.85,1.77,0,0,0,.01-.01,.02-.06,.12-.42,.96-.46,1.09-.13,.39-.17,.82-.17,1.23,0,.76,.22,1.69,.64,2.34,.06,.09,.63,.84,.71,.92,0,0,.01,.01,.02,.02s.01,.01,.02,.02c0,0,0,0,.01,.01h0c.3,.24,.61,.48,.92,.71,.04,.03,.08,.05,.12,.08,.46,.23,.95,.44,1.45,.6,.83,.26,1.7,.38,2.56,.52,.45,.07,.89,.14,1.33,.22,.31,.05,.62,.11,.92,.2,.04,.01,.09,.03,.13,.05l-1.07-.45s.05,.02,.08,.04l-.91-.7s.01,.01,.02,.02l-.7-.91s0,0,0,.01l-.45-1.07s0,0,0,0l-.16-1.2s0,0,0,0l.16-1.2s0,0,0,0l.45-1.07s0,0,0,.01l.7-.91s0,0-.01,.01l.91-.7s-.03,.02-.04,.02l1.07-.45c-.13,.05-.28,.07-.42,.09l1.2-.16c-.56,.07-1.14,.1-1.7,.13-.62-.02-1.2,.11-1.73,.39-.56,.18-1.04,.49-1.45,.93-.44,.41-.75,.89-.93,1.45-.28,.54-.41,1.11-.39,1.73l.16,1.2c.21,.76,.6,1.42,1.16,1.99l.91,.7c.7,.41,1.46,.61,2.27,.61h0Z"/>
  </g>
  <g class="cls-79">
    <path class="cls-69" d="M1392.08,833.31c.58-.03,1.16-.07,1.74-.14s1.14-.13,1.71-.23c.12-.02,.25-.04,.37-.08,.44-.13,.86-.32,1.26-.53,1.4-.76,2.27-2.39,2.27-3.96s-.9-3.13-2.29-3.96c-.39-.23-.84-.39-1.25-.54-.54-.21-1.13-.31-1.7-.43-.81-.17-1.62-.32-2.43-.5s-1.6-.34-2.35-.65l1.07,.45c-.15-.07-.31-.14-.44-.24l.91,.7s-.08-.07-.12-.11l.7,.91s-.03-.05-.04-.07l.45,1.07s-.01-.04-.01-.05l.16,1.2s0-.04,0-.06l-.16,1.2s0-.04,.02-.06l-.45,1.07s.03-.05,.04-.07l-.7,.91s.06-.07,.1-.1l-.91,.7c.12-.09,.25-.15,.39-.21l-1.07,.45s.09-.04,.14-.04l-1.2,.16s.06,0,.08,0l-1.2-.16s.05,.01,.08,.02l-1.07-.45s.06,.03,.08,.05l-.91-.7s.07,.07,.1,.11l-.7-.91c.06,.08,.1,.16,.14,.25l-.45-1.07c.16,.39,.22,.81,.28,1.22l-.16-1.2c.2,1.51,.18,3.04,.32,4.55,.06,.67,.14,1.35,.27,2.02,.11,.55,.35,1.1,.61,1.58,.37,.68,1.05,1.33,1.72,1.72s1.55,.66,2.32,.63c.22,0,.23-.03,.63-.08,.5-.07,.41-.04,.64-.09,1.3-.31,2.33-1.31,3-2.41,.09-.15,.17-.3,.24-.46,.26-.56,.5-1.14,.72-1.72,.27-.69,.5-1.39,.72-2.1,.19-.6,.21-1.2,.08-1.79-.03-.6-.21-1.16-.53-1.67-.28-.52-.67-.95-1.16-1.26-.43-.4-.94-.67-1.53-.81l-1.2-.16c-.81,0-1.57,.21-2.27,.61l-.91,.7c-.56,.56-.94,1.22-1.16,1.99-.26,.84-.53,1.68-.87,2.49l.45-1.07c-.13,.31-.26,.63-.47,.89l.7-.91s-.08,.09-.12,.13l.91-.7s-.04,.03-.06,.04l1.07-.45s-.03,.01-.05,.01l1.2-.16s-.02,0-.04,0l1.2,.16s-.02,0-.03,0l1.07,.45s-.03-.01-.04-.02l.91,.7s-.03-.03-.05-.05l.7,.91s-.05-.09-.07-.13l.45,1.07c-.09-.23-.13-.48-.16-.73l.16,1.2c-.18-1.34-.16-2.71-.27-4.05-.03-.33-.06-.67-.1-1-.08-.65-.14-1.35-.31-2-.46-1.84-1.75-3.46-3.63-3.98-.76-.21-1.79-.25-2.55,0-.46,.15-.9,.35-1.33,.56-.09,.04-.16,.09-.24,.15-.33,.23-.68,.48-.98,.76-.01,.01-.02,.02-.03,.04-.16,.16-.61,.75-.73,.94,0,.01-.01,.02-.02,.03-.07,.13-.42,.96-.47,1.1-.13,.4-.17,.84-.17,1.26,0,.84,.22,1.67,.65,2.39,.45,.77,1.13,1.41,1.9,1.86,.73,.42,1.58,.71,2.4,.94,.62,.17,1.25,.3,1.89,.43s1.3,.26,1.94,.39c.48,.1,.97,.19,1.44,.34,.07,.02,.14,.05,.21,.08l-1.07-.45c.05,.02,.11,.05,.16,.08l-.91-.7s.02,.02,.04,.03l-.7-.91s0,.01,.01,.02l-.45-1.07s0,.01,0,.02l-.16-1.2s0,0,0,.01l.16-1.2s0,0,0,.01l.45-1.07s0,.01-.01,.02l.7-.91s-.02,.02-.03,.02l.91-.7s-.05,.03-.08,.04l1.07-.45c-.22,.09-.48,.12-.72,.15l1.2-.16c-.66,.09-1.34,.13-2,.17-.62-.02-1.2,.11-1.73,.39-.56,.18-1.04,.49-1.45,.93-.44,.41-.75,.89-.93,1.45-.28,.54-.41,1.11-.39,1.73l.16,1.2c.21,.76,.6,1.42,1.16,1.99l.91,.7c.7,.41,1.46,.61,2.27,.61h0Z"/>
  </g>
  <g class="cls-57">
    <path class="cls-62" d="M1521.61,860.16c.45-.02,.9-.05,1.35-.09,.54-.05,1.07-.13,1.61-.21,.09-.01,.18-.03,.27-.05,.03,0,.06-.02,.08-.03,.05-.02,1.05-.44,1.09-.46,0,0,0,0,.01,0,0,0,.02,0,.02-.01,.12-.07,.83-.62,.92-.72,0,0,.7-.91,.71-.92,.1-.18-.05,.13,.23-.55-.66,1.56,.18-.37,.23-.54,0,0,.16-1.19,.16-1.2,0-.05-.15-1.16-.16-1.21-.02-.08-.42-1.01-.46-1.09-.07-.12-.62-.83-.72-.92-.06-.06-.85-.67-.93-.72,0,0-.02-.01-.03-.02-.01,0-.02-.01-.03-.02,0,0-.01,0-.02,0-.26-.13-.82-.36-1.09-.46-.03-.01-.06-.02-.09-.03-.45-.14-.93-.21-1.39-.29-.65-.11-1.3-.22-1.94-.34-.54-.1-1.09-.2-1.61-.39-.05-.02-.09-.03-.13-.05l1.07,.45c-.08-.04-.17-.08-.24-.13l.91,.7s-.04-.04-.06-.06l.7,.91s-.02-.02-.02-.04l.45,1.07s0-.02,0-.03l.16,1.2s0-.02,0-.03l-.16,1.2s0-.02,0-.03l-.45,1.07s.01-.03,.02-.04l-.7,.91s.04-.04,.06-.06l-.91,.7c.06-.05,.14-.08,.21-.11l-1.07,.45c.07-.03,.14-.06,.22-.07l-1.2,.16s.05,0,.08,0l-1.2-.16s.05,0,.07,.02l-1.07-.45s.05,.03,.08,.04l-.91-.7s.06,.05,.08,.08l-.7-.91c.05,.06,.08,.13,.11,.21l-.45-1.07c.12,.28,.17,.6,.21,.9l-.16-1.2c.13,.96,.12,1.94,.23,2.91,.06,.55,.1,1.15,.25,1.7,.11,.42,.39,1,.51,1.25,.01,.02,.02,.04,.03,.07,0,0,.01,.02,.02,.02,.08,.13,.62,.82,.72,.93,.48,.52,1.38,1.05,2.06,1.21,.1,.02,1.11,.16,1.21,.16,0,0,.02,0,.02,0,.42,.02,.84-.06,1.24-.17-.31,.09,.8-.27,1.12-.48,.16-.1,.79-.59,.94-.72,.01-.01,.02-.02,.03-.03,.02-.02,.04-.05,.06-.07,.23-.27,.52-.66,.73-.95,.01-.02,.03-.04,.04-.05,.16-.23,.28-.49,.39-.75,.35-.79,.69-1.59,.99-2.4,.19-.6,.21-1.2,.08-1.79-.03-.6-.21-1.16-.53-1.67-.28-.52-.67-.95-1.16-1.26-.43-.4-.94-.67-1.53-.81l-1.2-.16c-.81,0-1.57,.21-2.27,.61l-.91,.7c-.56,.56-.94,1.22-1.16,1.99-.13,.35-.26,.7-.41,1.04l.45-1.07c-.16,.38-.32,.78-.57,1.11l.7-.91s-.08,.09-.12,.13l.91-.7s-.04,.03-.06,.04l1.07-.45s-.03,0-.04,.01l1.2-.16s-.02,0-.04,0l1.2,.16s-.02,0-.03,0l1.07,.45s-.02-.01-.03-.02l.91,.7s-.03-.03-.04-.04l.7,.91s-.04-.07-.06-.11l.45,1.07c-.07-.18-.1-.37-.12-.56l.16,1.2c-.13-.98-.11-1.97-.24-2.94-.07-.58-.13-1.23-.27-1.82-.13-.53-.36-1.06-.62-1.53-.02-.03-.03-.05-.05-.08-.14-.2-.56-.76-.73-.94-.01-.01-.02-.02-.03-.03-.27-.3-.62-.55-.96-.75-.01,0-.02-.02-.03-.02,0,0,0,0-.01,0-.05-.03-1.03-.44-1.09-.46-.23-.06-.3-.05-.67-.1-.34-.05-.44-.09-.67-.08-.47,.01-.96,.05-1.39,.23-1.06,.42-1.42,.54-2.26,1.32-.51,.47-1.05,1.38-1.2,2.06-.02,.08-.16,1.12-.16,1.21,0,0,0,.01,0,.02-.02,.4,.04,.84,.17,1.24,.03,.1,.41,1,.46,1.09,0,0,0,.01,.01,.02,.03,.06,.67,.88,.72,.93,0,0,.02,.02,.02,.02,.29,.31,.65,.56,1.01,.78,.44,.26,.94,.44,1.43,.61,.82,.28,1.7,.4,2.56,.55,.45,.08,.91,.15,1.36,.23,.32,.06,.64,.11,.96,.21,.05,.01,.09,.03,.13,.05l-1.07-.45s.06,.02,.08,.04l-.91-.7s.01,.01,.02,.02l-.7-.91s0,0,0,.01l-.45-1.07s0,0,0,0l-.16-1.2s0,0,0,0l.16-1.2s0,0,0,0l.45-1.07s0,0,0,0l.7-.91s0,0-.01,.01l.91-.7s-.03,.02-.05,.03l1.07-.45c-.14,.06-.3,.07-.44,.09l1.2-.16c-.55,.07-1.12,.1-1.67,.13-.62-.02-1.2,.11-1.73,.39-.56,.18-1.04,.49-1.45,.93-.44,.41-.75,.89-.93,1.45-.28,.54-.41,1.11-.39,1.73l.16,1.2c.21,.76,.6,1.42,1.16,1.99l.91,.7c.7,.41,1.46,.61,2.27,.61h0Z"/>
  </g>
  <g class="cls-57">
    <path class="cls-62" d="M1401.35,781.7c.35-.01,.69-.02,1.04-.06,.47-.05,.95-.07,1.4-.2,.7-.19,1.53-.63,2.02-1.17,.05-.06,.67-.85,.71-.92,.41-.63,.62-1.54,.62-2.27,0-.4-.05-.81-.16-1.2s-.24-.75-.46-1.08c0-.01-.7-.91-.71-.91-.26-.28-.58-.53-.92-.71,0,0,0,0,0,0-.04-.02-1.04-.44-1.08-.46-.01,0-.02,0-.03-.01-.06-.02-.13-.03-.19-.04-.61-.11-1.23-.18-1.84-.26-.32-.04-.63-.08-.95-.12l1.2,.16c-.39-.05-.79-.1-1.17-.2-.07-.02-.13-.04-.2-.06l1.07,.45s-.05-.02-.08-.04l.91,.7s-.01-.01-.02-.02l.7,.91s0,0,0-.01l.45,1.07s0,0,0-.01l.16,1.2s0,0,0,0l-.16,1.2s0,0,0-.01l-.45,1.07s0,0,0-.01l-.7,.91s.01-.01,.02-.02l-.91,.7s.05-.03,.07-.04l-1.07,.45c.06-.03,.13-.05,.2-.06l-1.2,.16s.04,0,.06,0l-1.2-.16s.03,0,.05,.01l-1.07-.45s.03,.02,.05,.03l-.91-.7s.04,.03,.05,.05l-.7-.91s.05,.08,.07,.13l-.45-1.07c.06,.16,.09,.32,.11,.49l-.16-1.2c.03,.21,.04,.43,.06,.64,0,.1,.02,.21,.03,.31,.05,.44,.11,.88,.18,1.32,0,.04,.01,.08,.02,.13,0,.03,.01,.07,.02,.1,0,.02,0,.03,.01,.05,0,0,0,.01,0,.02,.06,.17,.38,.93,.46,1.09,.17,.35,.72,.96,.74,.97,0,0,.01,.01,.02,.02,.14,.13,.81,.63,.46,.36-.21-.16,.31,.27,.47,.36,.03,.02,1.04,.45,1.08,.46,0,0,0,0,.01,0,0,0,0,0,.01,0,.06,.02,1.14,.16,1.21,.16,.41,.02,.83-.04,1.22-.16,0,0,0,0,.01,0,0,0,0,0,0,0,.01,0,1.07-.45,1.08-.46,.01,0,.02-.01,.03-.02,0,0,.01,0,.02-.01,.13-.09,.81-.61,.93-.72,.03-.02,.05-.05,.08-.08,0-.01,.02-.02,.03-.03,.24-.29,.5-.63,.72-.94,.02-.02,.04-.05,.05-.07,.04-.06,.08-.13,.12-.19,.11-.19,.21-.38,.31-.58,.33-.52,.51-1.07,.53-1.67,.13-.6,.11-1.2-.08-1.79-.14-.59-.41-1.1-.81-1.53-.32-.49-.74-.88-1.26-1.16l-1.07-.45c-.8-.21-1.6-.21-2.39,0l-1.07,.45c-.68,.4-1.21,.94-1.61,1.61-.14,.29-.29,.59-.49,.84l.7-.91c-.04,.05-.08,.1-.13,.14l.91-.7s-.03,.02-.05,.03l1.07-.45s-.02,0-.04,.01l1.2-.16s-.02,0-.02,0l1.2,.16s-.02,0-.03,0l1.07,.45s-.01,0-.02-.01l.91,.7s-.02-.02-.03-.03l.7,.91s-.03-.04-.04-.07l.45,1.07c-.04-.1-.06-.21-.07-.32l.16,1.2c-.03-.22-.04-.44-.06-.66-.05-.62-.11-1.24-.24-1.84-.01-.05-.02-.09-.04-.14,0-.02-.01-.04-.02-.06,0,0,0-.02-.01-.03-.11-.29-.33-.81-.46-1.1-.02-.03-.03-.07-.05-.1,0,0,0-.01-.01-.02-.08-.11-.62-.83-.71-.92-.01-.01-.02-.02-.04-.04-.28-.27-.59-.54-.94-.72,0,0-.01,0-.02,0-.06-.04-1.02-.44-1.09-.46-.01,0-.03,0-.04-.01-.03,0-1.18-.16-1.21-.16,0,0-.02,0-.03,0,0,0-.01,0-.02,0-.07,0-1.15,.15-1.21,.16-.02,0-.04,0-.05,.01-.03,0-.07,.02-.1,.03-.01,0-.02,0-.04,.01-.21,.08-.88,.36-1.09,.46,0,0-.01,0-.02,0-.35,.19-.71,.47-.95,.73,0,0,0,0-.01,.01,0,0-.7,.91-.71,.92,0,0,0,0,0,0-.04,.08-.43,1-.46,1.09,0,0-.16,1.2-.16,1.2,0,.03,.15,1.17,.16,1.2,.09,.38,.26,.77,.46,1.09,0,0,0,0,0,0,.02,.03,.68,.89,.71,.92,0,0,0,0,.01,.01,0,0,0,0,0,0h0c.15,.12,.3,.24,.46,.35l.46,.35s0,0,0,0c0,0,0,0,0,0,.02,0,.03,.02,.05,.03,0,0,0,0,.01,0,.21,.1,.88,.38,1.09,.46,.01,0,.02,0,.04,.01,.31,.11,.66,.15,.99,.2,.82,.12,1.64,.22,2.47,.33,.05,0,.1,.01,.15,.02l-1.2-.16c.15,.02,.31,.04,.46,.07,.09,.02,.18,.03,.26,.06l-1.07-.45s.02,0,.02,.01l-.91-.7s0,0,0,0l-.7-.91s0,0,0,0l-.45-1.07s0,0,0,0l-.16-1.2s0,0,0,0l.16-1.2s0,0,0,0l.45-1.07s0,0,0,0l.7-.91s0,0,0,0l.91-.7s-.01,0-.02,0l1.07-.45c-.05,.02-.11,.03-.16,.03l1.2-.16c-.36,.05-.74,.06-1.1,.07-.62-.02-1.2,.11-1.73,.39-.56,.18-1.04,.49-1.45,.93-.44,.41-.75,.89-.93,1.45-.28,.54-.41,1.11-.39,1.73l.16,1.2c.21,.76,.6,1.42,1.16,1.99l.91,.7c.7,.41,1.46,.61,2.27,.61h0Z"/>
  </g>
  <g class="cls-88">
    <path class="cls-64" d="M1436.42,896.77c.45-.02,.9-.05,1.35-.09,.54-.05,1.07-.13,1.61-.21,.09-.01,.18-.03,.27-.05,.03,0,.06-.02,.08-.03,.05-.02,1.05-.44,1.09-.46,0,0,0,0,.01,0,0,0,.02,0,.02-.01,.12-.07,.83-.62,.92-.72,0,0,.7-.91,.71-.92,.1-.18-.05,.13,.23-.55-.66,1.56,.18-.37,.23-.54,0,0,.16-1.19,.16-1.2,0-.05-.15-1.16-.16-1.21-.02-.08-.42-1.01-.46-1.09-.07-.12-.62-.83-.72-.92-.06-.06-.85-.67-.93-.72,0,0-.02-.01-.03-.02-.01,0-.02-.01-.03-.02,0,0-.01,0-.02,0-.26-.13-.82-.36-1.09-.46-.03-.01-.06-.02-.09-.03-.45-.14-.93-.21-1.39-.29-.65-.11-1.3-.22-1.94-.34-.54-.1-1.09-.2-1.61-.39-.05-.02-.09-.03-.13-.05l1.07,.45c-.08-.04-.17-.08-.24-.13l.91,.7s-.04-.04-.06-.06l.7,.91s-.02-.02-.02-.04l.45,1.07s0-.02,0-.03l.16,1.2s0-.02,0-.03l-.16,1.2s0-.02,0-.03l-.45,1.07s.01-.03,.02-.04l-.7,.91s.04-.04,.06-.06l-.91,.7c.06-.05,.14-.08,.21-.11l-1.07,.45c.07-.03,.14-.06,.22-.07l-1.2,.16s.05,0,.08,0l-1.2-.16s.05,0,.07,.02l-1.07-.45s.05,.03,.08,.04l-.91-.7s.06,.05,.08,.08l-.7-.91c.05,.06,.08,.13,.11,.21l-.45-1.07c.12,.28,.17,.6,.21,.9l-.16-1.2c.13,.96,.12,1.94,.23,2.91,.06,.55,.1,1.15,.25,1.7,.11,.42,.39,1,.51,1.25,.01,.02,.02,.04,.03,.07,0,0,.01,.02,.02,.02,.08,.13,.62,.82,.72,.93,.48,.52,1.38,1.05,2.06,1.21,.1,.02,1.11,.16,1.21,.16,0,0,.02,0,.02,0,.42,.02,.84-.06,1.24-.17-.31,.09,.8-.27,1.12-.48,.16-.1,.79-.59,.94-.72,.01-.01,.02-.02,.03-.03,.02-.02,.04-.05,.06-.07,.23-.27,.52-.66,.73-.95,.01-.02,.03-.04,.04-.05,.16-.23,.28-.49,.39-.75,.35-.79,.69-1.59,.99-2.4,.19-.6,.21-1.2,.08-1.79-.03-.6-.21-1.16-.53-1.67-.28-.52-.67-.95-1.16-1.26-.43-.4-.94-.67-1.53-.81l-1.2-.16c-.81,0-1.57,.21-2.27,.61l-.91,.7c-.56,.56-.94,1.22-1.16,1.99-.13,.35-.26,.7-.41,1.04l.45-1.07c-.16,.38-.32,.78-.57,1.11l.7-.91s-.08,.09-.12,.13l.91-.7s-.04,.03-.06,.04l1.07-.45s-.03,0-.04,.01l1.2-.16s-.02,0-.04,0l1.2,.16s-.02,0-.03,0l1.07,.45s-.02-.01-.03-.02l.91,.7s-.03-.03-.04-.04l.7,.91s-.04-.07-.06-.11l.45,1.07c-.07-.18-.1-.37-.12-.56l.16,1.2c-.13-.98-.11-1.97-.24-2.94-.07-.58-.13-1.23-.27-1.82-.13-.53-.36-1.06-.62-1.53-.02-.03-.03-.05-.05-.08-.14-.2-.56-.76-.73-.94-.01-.01-.02-.02-.03-.03-.27-.3-.62-.55-.96-.75-.01,0-.02-.02-.03-.02,0,0,0,0-.01,0-.05-.03-1.03-.44-1.09-.46-.23-.06-.3-.05-.67-.1-.34-.05-.44-.09-.67-.08-.47,.01-.96,.05-1.39,.23-1.06,.42-1.42,.54-2.26,1.32-.51,.47-1.05,1.38-1.2,2.06-.02,.08-.16,1.12-.16,1.21,0,0,0,.01,0,.02-.02,.4,.04,.84,.17,1.24,.03,.1,.41,1,.46,1.09,0,0,0,.01,.01,.02,.03,.06,.67,.88,.72,.93,0,0,.02,.02,.02,.02,.29,.31,.65,.56,1.01,.78,.44,.26,.94,.44,1.43,.61,.82,.28,1.7,.4,2.56,.55,.45,.08,.91,.15,1.36,.23,.32,.06,.64,.11,.96,.21,.05,.01,.09,.03,.13,.05l-1.07-.45s.06,.02,.08,.04l-.91-.7s.01,.01,.02,.02l-.7-.91s0,0,0,.01l-.45-1.07s0,0,0,0l-.16-1.2s0,0,0,0l.16-1.2s0,0,0,0l.45-1.07s0,0,0,0l.7-.91s0,0-.01,.01l.91-.7s-.03,.02-.05,.03l1.07-.45c-.14,.06-.3,.07-.44,.09l1.2-.16c-.55,.07-1.12,.1-1.67,.13-.62-.02-1.2,.11-1.73,.39-.56,.18-1.04,.49-1.45,.93-.44,.41-.75,.89-.93,1.45-.28,.54-.41,1.11-.39,1.73l.16,1.2c.21,.76,.6,1.42,1.16,1.99l.91,.7c.7,.41,1.46,.61,2.27,.61h0Z"/>
  </g>
  <text class="cls-94" transform="translate(163.32 174.59)"><tspan x="0" y="0">H NEEEEEEJ! BRK UDOVER </tspan><tspan x="0" y="72">DET HELE...</tspan><tspan x="0" y="216">DET LYKKEDES DIG IKKE AT </tspan><tspan x="0" y="288">F DEN UBEHAGELIGT </tspan><tspan x="0" y="360">FULDE MAND HJEM I SENG. </tspan><tspan x="0" y="432">BODEGAEN ER NU SMURT </tspan><tspan x="0" y="504">IND I OPKAST OG HAN</tspan><tspan x="0" y="576">HAR FET 6 MNEDERS </tspan><tspan x="0" y="648">KARANTNE FRA BODEGAEN. </tspan><tspan x="0" y="792">PRV IGEN!</tspan></text>
</svg>